<?xml version="1.0" encoding="utf-8" standalone="no"?>
<!DOCTYPE svg PUBLIC "-//W3C//DTD SVG 1.1//EN"
  "http://www.w3.org/Graphics/SVG/1.1/DTD/svg11.dtd">
<svg xmlns:xlink="http://www.w3.org/1999/xlink" width="440.024375pt" height="327.800906pt" viewBox="0 0 440.024375 327.800906" xmlns="http://www.w3.org/2000/svg" version="1.1">
 <metadata>
  <rdf:RDF xmlns:dc="http://purl.org/dc/elements/1.1/" xmlns:cc="http://creativecommons.org/ns#" xmlns:rdf="http://www.w3.org/1999/02/22-rdf-syntax-ns#">
   <cc:Work>
    <dc:type rdf:resource="http://purl.org/dc/dcmitype/StillImage"/>
    <dc:date>2024-03-18T23:58:50.267072</dc:date>
    <dc:format>image/svg+xml</dc:format>
    <dc:creator>
     <cc:Agent>
      <dc:title>Matplotlib v3.5.3, https://matplotlib.org/</dc:title>
     </cc:Agent>
    </dc:creator>
   </cc:Work>
  </rdf:RDF>
 </metadata>
 <defs>
  <style type="text/css">*{stroke-linejoin: round; stroke-linecap: butt}</style>
 </defs>
 <g id="figure_1">
  <g id="patch_1">
   <path d="M 0 327.800906 
L 440.024375 327.800906 
L 440.024375 0 
L 0 0 
z
" style="fill: #ffffff"/>
  </g>
  <g id="axes_1">
   <g id="patch_2">
    <path d="M 62.343125 278.630906 
L 419.463125 278.630906 
L 419.463125 12.518906 
L 62.343125 12.518906 
z
" style="fill: #ffffff"/>
   </g>
   <g id="matplotlib.axis_1">
    <g id="xtick_1">
     <g id="line2d_1">
      <path d="M 62.343125 278.630906 
L 62.343125 12.518906 
" clip-path="url(#pd904fcc7ec)" style="fill: none; stroke: #b0b0b0; stroke-width: 0.8; stroke-linecap: square"/>
     </g>
     <g id="line2d_2">
      <defs>
       <path id="mb251e6d950" d="M 0 0 
L 0 3.5 
" style="stroke: #000000; stroke-width: 0.8"/>
      </defs>
      <g>
       <use xlink:href="#mb251e6d950" x="62.343125" y="278.630906" style="stroke: #000000; stroke-width: 0.8"/>
      </g>
     </g>
     <g id="text_1">
      <!-- 0 -->
      <g transform="translate(57.889375 296.268719)scale(0.14 -0.14)">
       <defs>
        <path id="DejaVuSans-30" d="M 2034 4250 
Q 1547 4250 1301 3770 
Q 1056 3291 1056 2328 
Q 1056 1369 1301 889 
Q 1547 409 2034 409 
Q 2525 409 2770 889 
Q 3016 1369 3016 2328 
Q 3016 3291 2770 3770 
Q 2525 4250 2034 4250 
z
M 2034 4750 
Q 2819 4750 3233 4129 
Q 3647 3509 3647 2328 
Q 3647 1150 3233 529 
Q 2819 -91 2034 -91 
Q 1250 -91 836 529 
Q 422 1150 422 2328 
Q 422 3509 836 4129 
Q 1250 4750 2034 4750 
z
" transform="scale(0.015625)"/>
       </defs>
       <use xlink:href="#DejaVuSans-30"/>
      </g>
     </g>
    </g>
    <g id="xtick_2">
     <g id="line2d_3">
      <path d="M 133.767125 278.630906 
L 133.767125 12.518906 
" clip-path="url(#pd904fcc7ec)" style="fill: none; stroke: #b0b0b0; stroke-width: 0.8; stroke-linecap: square"/>
     </g>
     <g id="line2d_4">
      <g>
       <use xlink:href="#mb251e6d950" x="133.767125" y="278.630906" style="stroke: #000000; stroke-width: 0.8"/>
      </g>
     </g>
     <g id="text_2">
      <!-- 20 -->
      <g transform="translate(124.859625 296.268719)scale(0.14 -0.14)">
       <defs>
        <path id="DejaVuSans-32" d="M 1228 531 
L 3431 531 
L 3431 0 
L 469 0 
L 469 531 
Q 828 903 1448 1529 
Q 2069 2156 2228 2338 
Q 2531 2678 2651 2914 
Q 2772 3150 2772 3378 
Q 2772 3750 2511 3984 
Q 2250 4219 1831 4219 
Q 1534 4219 1204 4116 
Q 875 4013 500 3803 
L 500 4441 
Q 881 4594 1212 4672 
Q 1544 4750 1819 4750 
Q 2544 4750 2975 4387 
Q 3406 4025 3406 3419 
Q 3406 3131 3298 2873 
Q 3191 2616 2906 2266 
Q 2828 2175 2409 1742 
Q 1991 1309 1228 531 
z
" transform="scale(0.015625)"/>
       </defs>
       <use xlink:href="#DejaVuSans-32"/>
       <use xlink:href="#DejaVuSans-30" x="63.623047"/>
      </g>
     </g>
    </g>
    <g id="xtick_3">
     <g id="line2d_5">
      <path d="M 205.191125 278.630906 
L 205.191125 12.518906 
" clip-path="url(#pd904fcc7ec)" style="fill: none; stroke: #b0b0b0; stroke-width: 0.8; stroke-linecap: square"/>
     </g>
     <g id="line2d_6">
      <g>
       <use xlink:href="#mb251e6d950" x="205.191125" y="278.630906" style="stroke: #000000; stroke-width: 0.8"/>
      </g>
     </g>
     <g id="text_3">
      <!-- 40 -->
      <g transform="translate(196.283625 296.268719)scale(0.14 -0.14)">
       <defs>
        <path id="DejaVuSans-34" d="M 2419 4116 
L 825 1625 
L 2419 1625 
L 2419 4116 
z
M 2253 4666 
L 3047 4666 
L 3047 1625 
L 3713 1625 
L 3713 1100 
L 3047 1100 
L 3047 0 
L 2419 0 
L 2419 1100 
L 313 1100 
L 313 1709 
L 2253 4666 
z
" transform="scale(0.015625)"/>
       </defs>
       <use xlink:href="#DejaVuSans-34"/>
       <use xlink:href="#DejaVuSans-30" x="63.623047"/>
      </g>
     </g>
    </g>
    <g id="xtick_4">
     <g id="line2d_7">
      <path d="M 276.615125 278.630906 
L 276.615125 12.518906 
" clip-path="url(#pd904fcc7ec)" style="fill: none; stroke: #b0b0b0; stroke-width: 0.8; stroke-linecap: square"/>
     </g>
     <g id="line2d_8">
      <g>
       <use xlink:href="#mb251e6d950" x="276.615125" y="278.630906" style="stroke: #000000; stroke-width: 0.8"/>
      </g>
     </g>
     <g id="text_4">
      <!-- 60 -->
      <g transform="translate(267.707625 296.268719)scale(0.14 -0.14)">
       <defs>
        <path id="DejaVuSans-36" d="M 2113 2584 
Q 1688 2584 1439 2293 
Q 1191 2003 1191 1497 
Q 1191 994 1439 701 
Q 1688 409 2113 409 
Q 2538 409 2786 701 
Q 3034 994 3034 1497 
Q 3034 2003 2786 2293 
Q 2538 2584 2113 2584 
z
M 3366 4563 
L 3366 3988 
Q 3128 4100 2886 4159 
Q 2644 4219 2406 4219 
Q 1781 4219 1451 3797 
Q 1122 3375 1075 2522 
Q 1259 2794 1537 2939 
Q 1816 3084 2150 3084 
Q 2853 3084 3261 2657 
Q 3669 2231 3669 1497 
Q 3669 778 3244 343 
Q 2819 -91 2113 -91 
Q 1303 -91 875 529 
Q 447 1150 447 2328 
Q 447 3434 972 4092 
Q 1497 4750 2381 4750 
Q 2619 4750 2861 4703 
Q 3103 4656 3366 4563 
z
" transform="scale(0.015625)"/>
       </defs>
       <use xlink:href="#DejaVuSans-36"/>
       <use xlink:href="#DejaVuSans-30" x="63.623047"/>
      </g>
     </g>
    </g>
    <g id="xtick_5">
     <g id="line2d_9">
      <path d="M 348.039125 278.630906 
L 348.039125 12.518906 
" clip-path="url(#pd904fcc7ec)" style="fill: none; stroke: #b0b0b0; stroke-width: 0.8; stroke-linecap: square"/>
     </g>
     <g id="line2d_10">
      <g>
       <use xlink:href="#mb251e6d950" x="348.039125" y="278.630906" style="stroke: #000000; stroke-width: 0.8"/>
      </g>
     </g>
     <g id="text_5">
      <!-- 80 -->
      <g transform="translate(339.131625 296.268719)scale(0.14 -0.14)">
       <defs>
        <path id="DejaVuSans-38" d="M 2034 2216 
Q 1584 2216 1326 1975 
Q 1069 1734 1069 1313 
Q 1069 891 1326 650 
Q 1584 409 2034 409 
Q 2484 409 2743 651 
Q 3003 894 3003 1313 
Q 3003 1734 2745 1975 
Q 2488 2216 2034 2216 
z
M 1403 2484 
Q 997 2584 770 2862 
Q 544 3141 544 3541 
Q 544 4100 942 4425 
Q 1341 4750 2034 4750 
Q 2731 4750 3128 4425 
Q 3525 4100 3525 3541 
Q 3525 3141 3298 2862 
Q 3072 2584 2669 2484 
Q 3125 2378 3379 2068 
Q 3634 1759 3634 1313 
Q 3634 634 3220 271 
Q 2806 -91 2034 -91 
Q 1263 -91 848 271 
Q 434 634 434 1313 
Q 434 1759 690 2068 
Q 947 2378 1403 2484 
z
M 1172 3481 
Q 1172 3119 1398 2916 
Q 1625 2713 2034 2713 
Q 2441 2713 2670 2916 
Q 2900 3119 2900 3481 
Q 2900 3844 2670 4047 
Q 2441 4250 2034 4250 
Q 1625 4250 1398 4047 
Q 1172 3844 1172 3481 
z
" transform="scale(0.015625)"/>
       </defs>
       <use xlink:href="#DejaVuSans-38"/>
       <use xlink:href="#DejaVuSans-30" x="63.623047"/>
      </g>
     </g>
    </g>
    <g id="xtick_6">
     <g id="line2d_11">
      <path d="M 419.463125 278.630906 
L 419.463125 12.518906 
" clip-path="url(#pd904fcc7ec)" style="fill: none; stroke: #b0b0b0; stroke-width: 0.8; stroke-linecap: square"/>
     </g>
     <g id="line2d_12">
      <g>
       <use xlink:href="#mb251e6d950" x="419.463125" y="278.630906" style="stroke: #000000; stroke-width: 0.8"/>
      </g>
     </g>
     <g id="text_6">
      <!-- 100 -->
      <g transform="translate(406.101875 296.268719)scale(0.14 -0.14)">
       <defs>
        <path id="DejaVuSans-31" d="M 794 531 
L 1825 531 
L 1825 4091 
L 703 3866 
L 703 4441 
L 1819 4666 
L 2450 4666 
L 2450 531 
L 3481 531 
L 3481 0 
L 794 0 
L 794 531 
z
" transform="scale(0.015625)"/>
       </defs>
       <use xlink:href="#DejaVuSans-31"/>
       <use xlink:href="#DejaVuSans-30" x="63.623047"/>
       <use xlink:href="#DejaVuSans-30" x="127.246094"/>
      </g>
     </g>
    </g>
    <g id="text_7">
     <!-- Quality Score -->
     <g transform="translate(180.679063 316.857469)scale(0.18 -0.18)">
      <defs>
       <path id="DejaVuSans-51" d="M 2522 4238 
Q 1834 4238 1429 3725 
Q 1025 3213 1025 2328 
Q 1025 1447 1429 934 
Q 1834 422 2522 422 
Q 3209 422 3611 934 
Q 4013 1447 4013 2328 
Q 4013 3213 3611 3725 
Q 3209 4238 2522 4238 
z
M 3406 84 
L 4238 -825 
L 3475 -825 
L 2784 -78 
Q 2681 -84 2626 -87 
Q 2572 -91 2522 -91 
Q 1538 -91 948 567 
Q 359 1225 359 2328 
Q 359 3434 948 4092 
Q 1538 4750 2522 4750 
Q 3503 4750 4090 4092 
Q 4678 3434 4678 2328 
Q 4678 1516 4351 937 
Q 4025 359 3406 84 
z
" transform="scale(0.015625)"/>
       <path id="DejaVuSans-75" d="M 544 1381 
L 544 3500 
L 1119 3500 
L 1119 1403 
Q 1119 906 1312 657 
Q 1506 409 1894 409 
Q 2359 409 2629 706 
Q 2900 1003 2900 1516 
L 2900 3500 
L 3475 3500 
L 3475 0 
L 2900 0 
L 2900 538 
Q 2691 219 2414 64 
Q 2138 -91 1772 -91 
Q 1169 -91 856 284 
Q 544 659 544 1381 
z
M 1991 3584 
L 1991 3584 
z
" transform="scale(0.015625)"/>
       <path id="DejaVuSans-61" d="M 2194 1759 
Q 1497 1759 1228 1600 
Q 959 1441 959 1056 
Q 959 750 1161 570 
Q 1363 391 1709 391 
Q 2188 391 2477 730 
Q 2766 1069 2766 1631 
L 2766 1759 
L 2194 1759 
z
M 3341 1997 
L 3341 0 
L 2766 0 
L 2766 531 
Q 2569 213 2275 61 
Q 1981 -91 1556 -91 
Q 1019 -91 701 211 
Q 384 513 384 1019 
Q 384 1609 779 1909 
Q 1175 2209 1959 2209 
L 2766 2209 
L 2766 2266 
Q 2766 2663 2505 2880 
Q 2244 3097 1772 3097 
Q 1472 3097 1187 3025 
Q 903 2953 641 2809 
L 641 3341 
Q 956 3463 1253 3523 
Q 1550 3584 1831 3584 
Q 2591 3584 2966 3190 
Q 3341 2797 3341 1997 
z
" transform="scale(0.015625)"/>
       <path id="DejaVuSans-6c" d="M 603 4863 
L 1178 4863 
L 1178 0 
L 603 0 
L 603 4863 
z
" transform="scale(0.015625)"/>
       <path id="DejaVuSans-69" d="M 603 3500 
L 1178 3500 
L 1178 0 
L 603 0 
L 603 3500 
z
M 603 4863 
L 1178 4863 
L 1178 4134 
L 603 4134 
L 603 4863 
z
" transform="scale(0.015625)"/>
       <path id="DejaVuSans-74" d="M 1172 4494 
L 1172 3500 
L 2356 3500 
L 2356 3053 
L 1172 3053 
L 1172 1153 
Q 1172 725 1289 603 
Q 1406 481 1766 481 
L 2356 481 
L 2356 0 
L 1766 0 
Q 1100 0 847 248 
Q 594 497 594 1153 
L 594 3053 
L 172 3053 
L 172 3500 
L 594 3500 
L 594 4494 
L 1172 4494 
z
" transform="scale(0.015625)"/>
       <path id="DejaVuSans-79" d="M 2059 -325 
Q 1816 -950 1584 -1140 
Q 1353 -1331 966 -1331 
L 506 -1331 
L 506 -850 
L 844 -850 
Q 1081 -850 1212 -737 
Q 1344 -625 1503 -206 
L 1606 56 
L 191 3500 
L 800 3500 
L 1894 763 
L 2988 3500 
L 3597 3500 
L 2059 -325 
z
" transform="scale(0.015625)"/>
       <path id="DejaVuSans-20" transform="scale(0.015625)"/>
       <path id="DejaVuSans-53" d="M 3425 4513 
L 3425 3897 
Q 3066 4069 2747 4153 
Q 2428 4238 2131 4238 
Q 1616 4238 1336 4038 
Q 1056 3838 1056 3469 
Q 1056 3159 1242 3001 
Q 1428 2844 1947 2747 
L 2328 2669 
Q 3034 2534 3370 2195 
Q 3706 1856 3706 1288 
Q 3706 609 3251 259 
Q 2797 -91 1919 -91 
Q 1588 -91 1214 -16 
Q 841 59 441 206 
L 441 856 
Q 825 641 1194 531 
Q 1563 422 1919 422 
Q 2459 422 2753 634 
Q 3047 847 3047 1241 
Q 3047 1584 2836 1778 
Q 2625 1972 2144 2069 
L 1759 2144 
Q 1053 2284 737 2584 
Q 422 2884 422 3419 
Q 422 4038 858 4394 
Q 1294 4750 2059 4750 
Q 2388 4750 2728 4690 
Q 3069 4631 3425 4513 
z
" transform="scale(0.015625)"/>
       <path id="DejaVuSans-63" d="M 3122 3366 
L 3122 2828 
Q 2878 2963 2633 3030 
Q 2388 3097 2138 3097 
Q 1578 3097 1268 2742 
Q 959 2388 959 1747 
Q 959 1106 1268 751 
Q 1578 397 2138 397 
Q 2388 397 2633 464 
Q 2878 531 3122 666 
L 3122 134 
Q 2881 22 2623 -34 
Q 2366 -91 2075 -91 
Q 1284 -91 818 406 
Q 353 903 353 1747 
Q 353 2603 823 3093 
Q 1294 3584 2113 3584 
Q 2378 3584 2631 3529 
Q 2884 3475 3122 3366 
z
" transform="scale(0.015625)"/>
       <path id="DejaVuSans-6f" d="M 1959 3097 
Q 1497 3097 1228 2736 
Q 959 2375 959 1747 
Q 959 1119 1226 758 
Q 1494 397 1959 397 
Q 2419 397 2687 759 
Q 2956 1122 2956 1747 
Q 2956 2369 2687 2733 
Q 2419 3097 1959 3097 
z
M 1959 3584 
Q 2709 3584 3137 3096 
Q 3566 2609 3566 1747 
Q 3566 888 3137 398 
Q 2709 -91 1959 -91 
Q 1206 -91 779 398 
Q 353 888 353 1747 
Q 353 2609 779 3096 
Q 1206 3584 1959 3584 
z
" transform="scale(0.015625)"/>
       <path id="DejaVuSans-72" d="M 2631 2963 
Q 2534 3019 2420 3045 
Q 2306 3072 2169 3072 
Q 1681 3072 1420 2755 
Q 1159 2438 1159 1844 
L 1159 0 
L 581 0 
L 581 3500 
L 1159 3500 
L 1159 2956 
Q 1341 3275 1631 3429 
Q 1922 3584 2338 3584 
Q 2397 3584 2469 3576 
Q 2541 3569 2628 3553 
L 2631 2963 
z
" transform="scale(0.015625)"/>
       <path id="DejaVuSans-65" d="M 3597 1894 
L 3597 1613 
L 953 1613 
Q 991 1019 1311 708 
Q 1631 397 2203 397 
Q 2534 397 2845 478 
Q 3156 559 3463 722 
L 3463 178 
Q 3153 47 2828 -22 
Q 2503 -91 2169 -91 
Q 1331 -91 842 396 
Q 353 884 353 1716 
Q 353 2575 817 3079 
Q 1281 3584 2069 3584 
Q 2775 3584 3186 3129 
Q 3597 2675 3597 1894 
z
M 3022 2063 
Q 3016 2534 2758 2815 
Q 2500 3097 2075 3097 
Q 1594 3097 1305 2825 
Q 1016 2553 972 2059 
L 3022 2063 
z
" transform="scale(0.015625)"/>
      </defs>
      <use xlink:href="#DejaVuSans-51"/>
      <use xlink:href="#DejaVuSans-75" x="78.710938"/>
      <use xlink:href="#DejaVuSans-61" x="142.089844"/>
      <use xlink:href="#DejaVuSans-6c" x="203.369141"/>
      <use xlink:href="#DejaVuSans-69" x="231.152344"/>
      <use xlink:href="#DejaVuSans-74" x="258.935547"/>
      <use xlink:href="#DejaVuSans-79" x="298.144531"/>
      <use xlink:href="#DejaVuSans-20" x="357.324219"/>
      <use xlink:href="#DejaVuSans-53" x="389.111328"/>
      <use xlink:href="#DejaVuSans-63" x="452.587891"/>
      <use xlink:href="#DejaVuSans-6f" x="507.568359"/>
      <use xlink:href="#DejaVuSans-72" x="568.75"/>
      <use xlink:href="#DejaVuSans-65" x="607.613281"/>
     </g>
    </g>
   </g>
   <g id="matplotlib.axis_2">
    <g id="ytick_1">
     <g id="line2d_13">
      <path d="M 62.343125 278.630906 
L 419.463125 278.630906 
" clip-path="url(#pd904fcc7ec)" style="fill: none; stroke: #b0b0b0; stroke-width: 0.8; stroke-linecap: square"/>
     </g>
     <g id="line2d_14">
      <defs>
       <path id="m562862ff77" d="M 0 0 
L -3.5 0 
" style="stroke: #000000; stroke-width: 0.8"/>
      </defs>
      <g>
       <use xlink:href="#m562862ff77" x="62.343125" y="278.630906" style="stroke: #000000; stroke-width: 0.8"/>
      </g>
     </g>
     <g id="text_8">
      <!-- 0 -->
      <g transform="translate(46.435625 283.949812)scale(0.14 -0.14)">
       <use xlink:href="#DejaVuSans-30"/>
      </g>
     </g>
    </g>
    <g id="ytick_2">
     <g id="line2d_15">
      <path d="M 62.343125 225.408506 
L 419.463125 225.408506 
" clip-path="url(#pd904fcc7ec)" style="fill: none; stroke: #b0b0b0; stroke-width: 0.8; stroke-linecap: square"/>
     </g>
     <g id="line2d_16">
      <g>
       <use xlink:href="#m562862ff77" x="62.343125" y="225.408506" style="stroke: #000000; stroke-width: 0.8"/>
      </g>
     </g>
     <g id="text_9">
      <!-- 20 -->
      <g transform="translate(37.528125 230.727412)scale(0.14 -0.14)">
       <use xlink:href="#DejaVuSans-32"/>
       <use xlink:href="#DejaVuSans-30" x="63.623047"/>
      </g>
     </g>
    </g>
    <g id="ytick_3">
     <g id="line2d_17">
      <path d="M 62.343125 172.186106 
L 419.463125 172.186106 
" clip-path="url(#pd904fcc7ec)" style="fill: none; stroke: #b0b0b0; stroke-width: 0.8; stroke-linecap: square"/>
     </g>
     <g id="line2d_18">
      <g>
       <use xlink:href="#m562862ff77" x="62.343125" y="172.186106" style="stroke: #000000; stroke-width: 0.8"/>
      </g>
     </g>
     <g id="text_10">
      <!-- 40 -->
      <g transform="translate(37.528125 177.505012)scale(0.14 -0.14)">
       <use xlink:href="#DejaVuSans-34"/>
       <use xlink:href="#DejaVuSans-30" x="63.623047"/>
      </g>
     </g>
    </g>
    <g id="ytick_4">
     <g id="line2d_19">
      <path d="M 62.343125 118.963706 
L 419.463125 118.963706 
" clip-path="url(#pd904fcc7ec)" style="fill: none; stroke: #b0b0b0; stroke-width: 0.8; stroke-linecap: square"/>
     </g>
     <g id="line2d_20">
      <g>
       <use xlink:href="#m562862ff77" x="62.343125" y="118.963706" style="stroke: #000000; stroke-width: 0.8"/>
      </g>
     </g>
     <g id="text_11">
      <!-- 60 -->
      <g transform="translate(37.528125 124.282612)scale(0.14 -0.14)">
       <use xlink:href="#DejaVuSans-36"/>
       <use xlink:href="#DejaVuSans-30" x="63.623047"/>
      </g>
     </g>
    </g>
    <g id="ytick_5">
     <g id="line2d_21">
      <path d="M 62.343125 65.741306 
L 419.463125 65.741306 
" clip-path="url(#pd904fcc7ec)" style="fill: none; stroke: #b0b0b0; stroke-width: 0.8; stroke-linecap: square"/>
     </g>
     <g id="line2d_22">
      <g>
       <use xlink:href="#m562862ff77" x="62.343125" y="65.741306" style="stroke: #000000; stroke-width: 0.8"/>
      </g>
     </g>
     <g id="text_12">
      <!-- 80 -->
      <g transform="translate(37.528125 71.060212)scale(0.14 -0.14)">
       <use xlink:href="#DejaVuSans-38"/>
       <use xlink:href="#DejaVuSans-30" x="63.623047"/>
      </g>
     </g>
    </g>
    <g id="ytick_6">
     <g id="line2d_23">
      <path d="M 62.343125 12.518906 
L 419.463125 12.518906 
" clip-path="url(#pd904fcc7ec)" style="fill: none; stroke: #b0b0b0; stroke-width: 0.8; stroke-linecap: square"/>
     </g>
     <g id="line2d_24">
      <g>
       <use xlink:href="#m562862ff77" x="62.343125" y="12.518906" style="stroke: #000000; stroke-width: 0.8"/>
      </g>
     </g>
     <g id="text_13">
      <!-- 100 -->
      <g transform="translate(28.620625 17.837812)scale(0.14 -0.14)">
       <use xlink:href="#DejaVuSans-31"/>
       <use xlink:href="#DejaVuSans-30" x="63.623047"/>
       <use xlink:href="#DejaVuSans-30" x="127.246094"/>
      </g>
     </g>
    </g>
    <g id="text_14">
     <!-- Price -->
     <g transform="translate(20.877187 167.530687)rotate(-90)scale(0.18 -0.18)">
      <defs>
       <path id="DejaVuSans-50" d="M 1259 4147 
L 1259 2394 
L 2053 2394 
Q 2494 2394 2734 2622 
Q 2975 2850 2975 3272 
Q 2975 3691 2734 3919 
Q 2494 4147 2053 4147 
L 1259 4147 
z
M 628 4666 
L 2053 4666 
Q 2838 4666 3239 4311 
Q 3641 3956 3641 3272 
Q 3641 2581 3239 2228 
Q 2838 1875 2053 1875 
L 1259 1875 
L 1259 0 
L 628 0 
L 628 4666 
z
" transform="scale(0.015625)"/>
      </defs>
      <use xlink:href="#DejaVuSans-50"/>
      <use xlink:href="#DejaVuSans-72" x="58.552734"/>
      <use xlink:href="#DejaVuSans-69" x="99.666016"/>
      <use xlink:href="#DejaVuSans-63" x="127.449219"/>
      <use xlink:href="#DejaVuSans-65" x="182.429688"/>
     </g>
    </g>
   </g>
   <g id="line2d_25">
    <path d="M 62.343125 278.630906 
L 98.055125 251.22137 
L 133.767125 245.89913 
L 169.479125 230.092077 
L 205.191125 197.147412 
L 240.903125 151.482593 
L 276.615125 92.086394 
L 312.327125 59.088506 
L 348.039125 31.732193 
L 383.751125 23.642388 
L 419.463125 12.518906 
" style="fill: none; stroke: #ff0000; stroke-width: 2; stroke-linecap: square"/>
    <defs>
     <path id="mafa4308a52" d="M 0 4 
C 1.060812 4 2.078319 3.578535 2.828427 2.828427 
C 3.578535 2.078319 4 1.060812 4 0 
C 4 -1.060812 3.578535 -2.078319 2.828427 -2.828427 
C 2.078319 -3.578535 1.060812 -4 0 -4 
C -1.060812 -4 -2.078319 -3.578535 -2.828427 -2.828427 
C -3.578535 -2.078319 -4 -1.060812 -4 0 
C -4 1.060812 -3.578535 2.078319 -2.828427 2.828427 
C -2.078319 3.578535 -1.060812 4 0 4 
z
" style="stroke: #ff0000; stroke-width: 2"/>
    </defs>
    <g>
     <use xlink:href="#mafa4308a52" x="62.343125" y="278.630906" style="fill-opacity: 0; stroke: #ff0000; stroke-width: 2"/>
     <use xlink:href="#mafa4308a52" x="98.055125" y="251.22137" style="fill-opacity: 0; stroke: #ff0000; stroke-width: 2"/>
     <use xlink:href="#mafa4308a52" x="133.767125" y="245.89913" style="fill-opacity: 0; stroke: #ff0000; stroke-width: 2"/>
     <use xlink:href="#mafa4308a52" x="169.479125" y="230.092077" style="fill-opacity: 0; stroke: #ff0000; stroke-width: 2"/>
     <use xlink:href="#mafa4308a52" x="205.191125" y="197.147412" style="fill-opacity: 0; stroke: #ff0000; stroke-width: 2"/>
     <use xlink:href="#mafa4308a52" x="240.903125" y="151.482593" style="fill-opacity: 0; stroke: #ff0000; stroke-width: 2"/>
     <use xlink:href="#mafa4308a52" x="276.615125" y="92.086394" style="fill-opacity: 0; stroke: #ff0000; stroke-width: 2"/>
     <use xlink:href="#mafa4308a52" x="312.327125" y="59.088506" style="fill-opacity: 0; stroke: #ff0000; stroke-width: 2"/>
     <use xlink:href="#mafa4308a52" x="348.039125" y="31.732193" style="fill-opacity: 0; stroke: #ff0000; stroke-width: 2"/>
     <use xlink:href="#mafa4308a52" x="383.751125" y="23.642388" style="fill-opacity: 0; stroke: #ff0000; stroke-width: 2"/>
     <use xlink:href="#mafa4308a52" x="419.463125" y="12.518906" style="fill-opacity: 0; stroke: #ff0000; stroke-width: 2"/>
    </g>
   </g>
   <g id="line2d_26">
    <path d="M 62.343125 278.630906 
L 98.055125 252.019706 
L 133.767125 225.408506 
L 169.479125 198.797306 
L 205.191125 172.186106 
L 240.903125 145.574906 
L 276.615125 118.963706 
L 312.327125 92.352506 
L 348.039125 65.741306 
L 383.751125 39.130106 
L 419.463125 12.518906 
" style="fill: none; stroke: #0000ff; stroke-width: 2; stroke-linecap: square"/>
    <defs>
     <path id="md82d477986" d="M -4 4 
L 4 4 
L 4 -4 
L -4 -4 
z
" style="stroke: #0000ff; stroke-width: 2; stroke-linejoin: miter"/>
    </defs>
    <g>
     <use xlink:href="#md82d477986" x="62.343125" y="278.630906" style="fill-opacity: 0; stroke: #0000ff; stroke-width: 2; stroke-linejoin: miter"/>
     <use xlink:href="#md82d477986" x="98.055125" y="252.019706" style="fill-opacity: 0; stroke: #0000ff; stroke-width: 2; stroke-linejoin: miter"/>
     <use xlink:href="#md82d477986" x="133.767125" y="225.408506" style="fill-opacity: 0; stroke: #0000ff; stroke-width: 2; stroke-linejoin: miter"/>
     <use xlink:href="#md82d477986" x="169.479125" y="198.797306" style="fill-opacity: 0; stroke: #0000ff; stroke-width: 2; stroke-linejoin: miter"/>
     <use xlink:href="#md82d477986" x="205.191125" y="172.186106" style="fill-opacity: 0; stroke: #0000ff; stroke-width: 2; stroke-linejoin: miter"/>
     <use xlink:href="#md82d477986" x="240.903125" y="145.574906" style="fill-opacity: 0; stroke: #0000ff; stroke-width: 2; stroke-linejoin: miter"/>
     <use xlink:href="#md82d477986" x="276.615125" y="118.963706" style="fill-opacity: 0; stroke: #0000ff; stroke-width: 2; stroke-linejoin: miter"/>
     <use xlink:href="#md82d477986" x="312.327125" y="92.352506" style="fill-opacity: 0; stroke: #0000ff; stroke-width: 2; stroke-linejoin: miter"/>
     <use xlink:href="#md82d477986" x="348.039125" y="65.741306" style="fill-opacity: 0; stroke: #0000ff; stroke-width: 2; stroke-linejoin: miter"/>
     <use xlink:href="#md82d477986" x="383.751125" y="39.130106" style="fill-opacity: 0; stroke: #0000ff; stroke-width: 2; stroke-linejoin: miter"/>
     <use xlink:href="#md82d477986" x="419.463125" y="12.518906" style="fill-opacity: 0; stroke: #0000ff; stroke-width: 2; stroke-linejoin: miter"/>
    </g>
   </g>
   <g id="line2d_27">
    <path d="M 62.343125 145.574906 
L 98.055125 145.574906 
L 133.767125 145.574906 
L 169.479125 145.574906 
L 205.191125 145.574906 
L 240.903125 145.574906 
L 276.615125 145.574906 
L 312.327125 145.574906 
L 348.039125 145.574906 
L 383.751125 145.574906 
L 419.463125 145.574906 
" style="fill: none; stroke: #ffa500; stroke-width: 2; stroke-linecap: square"/>
    <defs>
     <path id="m0a5b90b672" d="M -0 5.656854 
L 3.394113 0 
L 0 -5.656854 
L -3.394113 -0 
z
" style="stroke: #ffa500; stroke-width: 2; stroke-linejoin: miter"/>
    </defs>
    <g>
     <use xlink:href="#m0a5b90b672" x="62.343125" y="145.574906" style="fill-opacity: 0; stroke: #ffa500; stroke-width: 2; stroke-linejoin: miter"/>
     <use xlink:href="#m0a5b90b672" x="98.055125" y="145.574906" style="fill-opacity: 0; stroke: #ffa500; stroke-width: 2; stroke-linejoin: miter"/>
     <use xlink:href="#m0a5b90b672" x="133.767125" y="145.574906" style="fill-opacity: 0; stroke: #ffa500; stroke-width: 2; stroke-linejoin: miter"/>
     <use xlink:href="#m0a5b90b672" x="169.479125" y="145.574906" style="fill-opacity: 0; stroke: #ffa500; stroke-width: 2; stroke-linejoin: miter"/>
     <use xlink:href="#m0a5b90b672" x="205.191125" y="145.574906" style="fill-opacity: 0; stroke: #ffa500; stroke-width: 2; stroke-linejoin: miter"/>
     <use xlink:href="#m0a5b90b672" x="240.903125" y="145.574906" style="fill-opacity: 0; stroke: #ffa500; stroke-width: 2; stroke-linejoin: miter"/>
     <use xlink:href="#m0a5b90b672" x="276.615125" y="145.574906" style="fill-opacity: 0; stroke: #ffa500; stroke-width: 2; stroke-linejoin: miter"/>
     <use xlink:href="#m0a5b90b672" x="312.327125" y="145.574906" style="fill-opacity: 0; stroke: #ffa500; stroke-width: 2; stroke-linejoin: miter"/>
     <use xlink:href="#m0a5b90b672" x="348.039125" y="145.574906" style="fill-opacity: 0; stroke: #ffa500; stroke-width: 2; stroke-linejoin: miter"/>
     <use xlink:href="#m0a5b90b672" x="383.751125" y="145.574906" style="fill-opacity: 0; stroke: #ffa500; stroke-width: 2; stroke-linejoin: miter"/>
     <use xlink:href="#m0a5b90b672" x="419.463125" y="145.574906" style="fill-opacity: 0; stroke: #ffa500; stroke-width: 2; stroke-linejoin: miter"/>
    </g>
   </g>
   <g id="line2d_28">
    <path d="M 62.343125 12.518906 
L 98.055125 12.518906 
L 133.767125 12.518906 
L 169.479125 12.518906 
L 205.191125 12.518906 
L 240.903125 12.518906 
L 276.615125 12.518906 
L 312.327125 12.518906 
L 348.039125 12.518906 
L 383.751125 12.518906 
L 419.463125 12.518906 
" style="fill: none; stroke: #008000; stroke-width: 2; stroke-linecap: square"/>
    <defs>
     <path id="mcb48050bc0" d="M 0 -4 
L -4 4 
L 4 4 
z
" style="stroke: #008000; stroke-width: 2; stroke-linejoin: miter"/>
    </defs>
    <g>
     <use xlink:href="#mcb48050bc0" x="62.343125" y="12.518906" style="fill-opacity: 0; stroke: #008000; stroke-width: 2; stroke-linejoin: miter"/>
     <use xlink:href="#mcb48050bc0" x="98.055125" y="12.518906" style="fill-opacity: 0; stroke: #008000; stroke-width: 2; stroke-linejoin: miter"/>
     <use xlink:href="#mcb48050bc0" x="133.767125" y="12.518906" style="fill-opacity: 0; stroke: #008000; stroke-width: 2; stroke-linejoin: miter"/>
     <use xlink:href="#mcb48050bc0" x="169.479125" y="12.518906" style="fill-opacity: 0; stroke: #008000; stroke-width: 2; stroke-linejoin: miter"/>
     <use xlink:href="#mcb48050bc0" x="205.191125" y="12.518906" style="fill-opacity: 0; stroke: #008000; stroke-width: 2; stroke-linejoin: miter"/>
     <use xlink:href="#mcb48050bc0" x="240.903125" y="12.518906" style="fill-opacity: 0; stroke: #008000; stroke-width: 2; stroke-linejoin: miter"/>
     <use xlink:href="#mcb48050bc0" x="276.615125" y="12.518906" style="fill-opacity: 0; stroke: #008000; stroke-width: 2; stroke-linejoin: miter"/>
     <use xlink:href="#mcb48050bc0" x="312.327125" y="12.518906" style="fill-opacity: 0; stroke: #008000; stroke-width: 2; stroke-linejoin: miter"/>
     <use xlink:href="#mcb48050bc0" x="348.039125" y="12.518906" style="fill-opacity: 0; stroke: #008000; stroke-width: 2; stroke-linejoin: miter"/>
     <use xlink:href="#mcb48050bc0" x="383.751125" y="12.518906" style="fill-opacity: 0; stroke: #008000; stroke-width: 2; stroke-linejoin: miter"/>
     <use xlink:href="#mcb48050bc0" x="419.463125" y="12.518906" style="fill-opacity: 0; stroke: #008000; stroke-width: 2; stroke-linejoin: miter"/>
    </g>
   </g>
   <g id="line2d_29">
    <path d="M 62.343125 278.630906 
L 98.055125 264.229702 
L 133.767125 223.003244 
L 169.479125 206.77978 
L 205.191125 170.319635 
L 240.903125 142.110028 
L 276.615125 120.256501 
L 312.327125 99.641889 
L 348.039125 55.258385 
L 383.751125 30.247184 
L 419.463125 12.518906 
" style="fill: none; stroke: #008dda; stroke-width: 2; stroke-linecap: square"/>
    <defs>
     <path id="m90c1fcbbac" d="M 0 -4 
L -3.804226 -1.236068 
L -2.351141 3.236068 
L 2.351141 3.236068 
L 3.804226 -1.236068 
z
" style="stroke: #008dda; stroke-width: 2; stroke-linejoin: miter"/>
    </defs>
    <g>
     <use xlink:href="#m90c1fcbbac" x="62.343125" y="278.630906" style="fill-opacity: 0; stroke: #008dda; stroke-width: 2; stroke-linejoin: miter"/>
     <use xlink:href="#m90c1fcbbac" x="98.055125" y="264.229702" style="fill-opacity: 0; stroke: #008dda; stroke-width: 2; stroke-linejoin: miter"/>
     <use xlink:href="#m90c1fcbbac" x="133.767125" y="223.003244" style="fill-opacity: 0; stroke: #008dda; stroke-width: 2; stroke-linejoin: miter"/>
     <use xlink:href="#m90c1fcbbac" x="169.479125" y="206.77978" style="fill-opacity: 0; stroke: #008dda; stroke-width: 2; stroke-linejoin: miter"/>
     <use xlink:href="#m90c1fcbbac" x="205.191125" y="170.319635" style="fill-opacity: 0; stroke: #008dda; stroke-width: 2; stroke-linejoin: miter"/>
     <use xlink:href="#m90c1fcbbac" x="240.903125" y="142.110028" style="fill-opacity: 0; stroke: #008dda; stroke-width: 2; stroke-linejoin: miter"/>
     <use xlink:href="#m90c1fcbbac" x="276.615125" y="120.256501" style="fill-opacity: 0; stroke: #008dda; stroke-width: 2; stroke-linejoin: miter"/>
     <use xlink:href="#m90c1fcbbac" x="312.327125" y="99.641889" style="fill-opacity: 0; stroke: #008dda; stroke-width: 2; stroke-linejoin: miter"/>
     <use xlink:href="#m90c1fcbbac" x="348.039125" y="55.258385" style="fill-opacity: 0; stroke: #008dda; stroke-width: 2; stroke-linejoin: miter"/>
     <use xlink:href="#m90c1fcbbac" x="383.751125" y="30.247184" style="fill-opacity: 0; stroke: #008dda; stroke-width: 2; stroke-linejoin: miter"/>
     <use xlink:href="#m90c1fcbbac" x="419.463125" y="12.518906" style="fill-opacity: 0; stroke: #008dda; stroke-width: 2; stroke-linejoin: miter"/>
    </g>
   </g>
   <g id="patch_3">
    <path d="M 62.343125 278.630906 
L 62.343125 12.518906 
" style="fill: none; stroke: #000000; stroke-width: 0.8; stroke-linejoin: miter; stroke-linecap: square"/>
   </g>
   <g id="patch_4">
    <path d="M 419.463125 278.630906 
L 419.463125 12.518906 
" style="fill: none; stroke: #000000; stroke-width: 0.8; stroke-linejoin: miter; stroke-linecap: square"/>
   </g>
   <g id="patch_5">
    <path d="M 62.343125 278.630906 
L 419.463125 278.630906 
" style="fill: none; stroke: #000000; stroke-width: 0.8; stroke-linejoin: miter; stroke-linecap: square"/>
   </g>
   <g id="patch_6">
    <path d="M 62.343125 12.518906 
L 419.463125 12.518906 
" style="fill: none; stroke: #000000; stroke-width: 0.8; stroke-linejoin: miter; stroke-linecap: square"/>
   </g>
   <g id="legend_1">
    <g id="patch_7">
     <path d="M 72.143125 126.465781 
L 170.889062 126.465781 
Q 173.689063 126.465781 173.689063 123.665781 
L 173.689063 22.318906 
Q 173.689063 19.518906 170.889062 19.518906 
L 72.143125 19.518906 
Q 69.343125 19.518906 69.343125 22.318906 
L 69.343125 123.665781 
Q 69.343125 126.465781 72.143125 126.465781 
z
" style="fill: #ffffff; opacity: 0.8; stroke: #cccccc; stroke-linejoin: miter"/>
    </g>
    <g id="line2d_30">
     <path d="M 74.943125 30.856719 
L 88.943125 30.856719 
L 102.943125 30.856719 
" style="fill: none; stroke: #ff0000; stroke-width: 2; stroke-linecap: square"/>
     <g>
      <use xlink:href="#mafa4308a52" x="88.943125" y="30.856719" style="fill-opacity: 0; stroke: #ff0000; stroke-width: 2"/>
     </g>
    </g>
    <g id="text_15">
     <!-- FQora -->
     <g transform="translate(114.143125 35.756719)scale(0.14 -0.14)">
      <defs>
       <path id="DejaVuSans-46" d="M 628 4666 
L 3309 4666 
L 3309 4134 
L 1259 4134 
L 1259 2759 
L 3109 2759 
L 3109 2228 
L 1259 2228 
L 1259 0 
L 628 0 
L 628 4666 
z
" transform="scale(0.015625)"/>
      </defs>
      <use xlink:href="#DejaVuSans-46"/>
      <use xlink:href="#DejaVuSans-51" x="57.519531"/>
      <use xlink:href="#DejaVuSans-6f" x="136.230469"/>
      <use xlink:href="#DejaVuSans-72" x="197.412109"/>
      <use xlink:href="#DejaVuSans-61" x="238.525391"/>
     </g>
    </g>
    <g id="line2d_31">
     <path d="M 74.943125 51.406094 
L 88.943125 51.406094 
L 102.943125 51.406094 
" style="fill: none; stroke: #0000ff; stroke-width: 2; stroke-linecap: square"/>
     <g>
      <use xlink:href="#md82d477986" x="88.943125" y="51.406094" style="fill-opacity: 0; stroke: #0000ff; stroke-width: 2; stroke-linejoin: miter"/>
     </g>
    </g>
    <g id="text_16">
     <!-- Linear -->
     <g transform="translate(114.143125 56.306094)scale(0.14 -0.14)">
      <defs>
       <path id="DejaVuSans-4c" d="M 628 4666 
L 1259 4666 
L 1259 531 
L 3531 531 
L 3531 0 
L 628 0 
L 628 4666 
z
" transform="scale(0.015625)"/>
       <path id="DejaVuSans-6e" d="M 3513 2113 
L 3513 0 
L 2938 0 
L 2938 2094 
Q 2938 2591 2744 2837 
Q 2550 3084 2163 3084 
Q 1697 3084 1428 2787 
Q 1159 2491 1159 1978 
L 1159 0 
L 581 0 
L 581 3500 
L 1159 3500 
L 1159 2956 
Q 1366 3272 1645 3428 
Q 1925 3584 2291 3584 
Q 2894 3584 3203 3211 
Q 3513 2838 3513 2113 
z
" transform="scale(0.015625)"/>
      </defs>
      <use xlink:href="#DejaVuSans-4c"/>
      <use xlink:href="#DejaVuSans-69" x="55.712891"/>
      <use xlink:href="#DejaVuSans-6e" x="83.496094"/>
      <use xlink:href="#DejaVuSans-65" x="146.875"/>
      <use xlink:href="#DejaVuSans-61" x="208.398438"/>
      <use xlink:href="#DejaVuSans-72" x="269.677734"/>
     </g>
    </g>
    <g id="line2d_32">
     <path d="M 74.943125 71.955469 
L 88.943125 71.955469 
L 102.943125 71.955469 
" style="fill: none; stroke: #ffa500; stroke-width: 2; stroke-linecap: square"/>
     <g>
      <use xlink:href="#m0a5b90b672" x="88.943125" y="71.955469" style="fill-opacity: 0; stroke: #ffa500; stroke-width: 2; stroke-linejoin: miter"/>
     </g>
    </g>
    <g id="text_17">
     <!-- Mid -->
     <g transform="translate(114.143125 76.855469)scale(0.14 -0.14)">
      <defs>
       <path id="DejaVuSans-4d" d="M 628 4666 
L 1569 4666 
L 2759 1491 
L 3956 4666 
L 4897 4666 
L 4897 0 
L 4281 0 
L 4281 4097 
L 3078 897 
L 2444 897 
L 1241 4097 
L 1241 0 
L 628 0 
L 628 4666 
z
" transform="scale(0.015625)"/>
       <path id="DejaVuSans-64" d="M 2906 2969 
L 2906 4863 
L 3481 4863 
L 3481 0 
L 2906 0 
L 2906 525 
Q 2725 213 2448 61 
Q 2172 -91 1784 -91 
Q 1150 -91 751 415 
Q 353 922 353 1747 
Q 353 2572 751 3078 
Q 1150 3584 1784 3584 
Q 2172 3584 2448 3432 
Q 2725 3281 2906 2969 
z
M 947 1747 
Q 947 1113 1208 752 
Q 1469 391 1925 391 
Q 2381 391 2643 752 
Q 2906 1113 2906 1747 
Q 2906 2381 2643 2742 
Q 2381 3103 1925 3103 
Q 1469 3103 1208 2742 
Q 947 2381 947 1747 
z
" transform="scale(0.015625)"/>
      </defs>
      <use xlink:href="#DejaVuSans-4d"/>
      <use xlink:href="#DejaVuSans-69" x="86.279297"/>
      <use xlink:href="#DejaVuSans-64" x="114.0625"/>
     </g>
    </g>
    <g id="line2d_33">
     <path d="M 74.943125 92.504844 
L 88.943125 92.504844 
L 102.943125 92.504844 
" style="fill: none; stroke: #008000; stroke-width: 2; stroke-linecap: square"/>
     <g>
      <use xlink:href="#mcb48050bc0" x="88.943125" y="92.504844" style="fill-opacity: 0; stroke: #008000; stroke-width: 2; stroke-linejoin: miter"/>
     </g>
    </g>
    <g id="text_18">
     <!-- Max -->
     <g transform="translate(114.143125 97.404844)scale(0.14 -0.14)">
      <defs>
       <path id="DejaVuSans-78" d="M 3513 3500 
L 2247 1797 
L 3578 0 
L 2900 0 
L 1881 1375 
L 863 0 
L 184 0 
L 1544 1831 
L 300 3500 
L 978 3500 
L 1906 2253 
L 2834 3500 
L 3513 3500 
z
" transform="scale(0.015625)"/>
      </defs>
      <use xlink:href="#DejaVuSans-4d"/>
      <use xlink:href="#DejaVuSans-61" x="86.279297"/>
      <use xlink:href="#DejaVuSans-78" x="147.558594"/>
     </g>
    </g>
    <g id="line2d_34">
     <path d="M 74.943125 113.054219 
L 88.943125 113.054219 
L 102.943125 113.054219 
" style="fill: none; stroke: #008dda; stroke-width: 2; stroke-linecap: square"/>
     <g>
      <use xlink:href="#m90c1fcbbac" x="88.943125" y="113.054219" style="fill-opacity: 0; stroke: #008dda; stroke-width: 2; stroke-linejoin: miter"/>
     </g>
    </g>
    <g id="text_19">
     <!-- QIRANA -->
     <g transform="translate(114.143125 117.954219)scale(0.14 -0.14)">
      <defs>
       <path id="DejaVuSans-49" d="M 628 4666 
L 1259 4666 
L 1259 0 
L 628 0 
L 628 4666 
z
" transform="scale(0.015625)"/>
       <path id="DejaVuSans-52" d="M 2841 2188 
Q 3044 2119 3236 1894 
Q 3428 1669 3622 1275 
L 4263 0 
L 3584 0 
L 2988 1197 
Q 2756 1666 2539 1819 
Q 2322 1972 1947 1972 
L 1259 1972 
L 1259 0 
L 628 0 
L 628 4666 
L 2053 4666 
Q 2853 4666 3247 4331 
Q 3641 3997 3641 3322 
Q 3641 2881 3436 2590 
Q 3231 2300 2841 2188 
z
M 1259 4147 
L 1259 2491 
L 2053 2491 
Q 2509 2491 2742 2702 
Q 2975 2913 2975 3322 
Q 2975 3731 2742 3939 
Q 2509 4147 2053 4147 
L 1259 4147 
z
" transform="scale(0.015625)"/>
       <path id="DejaVuSans-41" d="M 2188 4044 
L 1331 1722 
L 3047 1722 
L 2188 4044 
z
M 1831 4666 
L 2547 4666 
L 4325 0 
L 3669 0 
L 3244 1197 
L 1141 1197 
L 716 0 
L 50 0 
L 1831 4666 
z
" transform="scale(0.015625)"/>
       <path id="DejaVuSans-4e" d="M 628 4666 
L 1478 4666 
L 3547 763 
L 3547 4666 
L 4159 4666 
L 4159 0 
L 3309 0 
L 1241 3903 
L 1241 0 
L 628 0 
L 628 4666 
z
" transform="scale(0.015625)"/>
      </defs>
      <use xlink:href="#DejaVuSans-51"/>
      <use xlink:href="#DejaVuSans-49" x="78.710938"/>
      <use xlink:href="#DejaVuSans-52" x="108.203125"/>
      <use xlink:href="#DejaVuSans-41" x="173.685547"/>
      <use xlink:href="#DejaVuSans-4e" x="242.09375"/>
      <use xlink:href="#DejaVuSans-41" x="316.898438"/>
     </g>
    </g>
   </g>
  </g>
 </g>
 <defs>
  <clipPath id="pd904fcc7ec">
   <rect x="62.343125" y="12.518906" width="357.12" height="266.112"/>
  </clipPath>
 </defs>
</svg>
