<?xml version="1.0" encoding="utf-8" standalone="no"?>
<!DOCTYPE svg PUBLIC "-//W3C//DTD SVG 1.1//EN"
  "http://www.w3.org/Graphics/SVG/1.1/DTD/svg11.dtd">
<svg xmlns:xlink="http://www.w3.org/1999/xlink" width="508.804375pt" height="457.92pt" viewBox="0 0 508.804375 457.92" xmlns="http://www.w3.org/2000/svg" version="1.1">
 <metadata>
  <rdf:RDF xmlns:dc="http://purl.org/dc/elements/1.1/" xmlns:cc="http://creativecommons.org/ns#" xmlns:rdf="http://www.w3.org/1999/02/22-rdf-syntax-ns#">
   <cc:Work>
    <dc:type rdf:resource="http://purl.org/dc/dcmitype/StillImage"/>
    <dc:date>2024-03-19T14:40:09.220051</dc:date>
    <dc:format>image/svg+xml</dc:format>
    <dc:creator>
     <cc:Agent>
      <dc:title>Matplotlib v3.5.3, https://matplotlib.org/</dc:title>
     </cc:Agent>
    </dc:creator>
   </cc:Work>
  </rdf:RDF>
 </metadata>
 <defs>
  <style type="text/css">*{stroke-linejoin: round; stroke-linecap: butt}</style>
 </defs>
 <g id="figure_1">
  <g id="patch_1">
   <path d="M 0 457.92 
L 508.804375 457.92 
L 508.804375 0 
L 0 0 
z
" style="fill: #ffffff"/>
  </g>
  <g id="axes_1">
   <g id="patch_2">
    <path d="M 450.72 228.96 
C 450.72 199.838744 444.983747 171.000655 433.839525 144.096122 
C 422.695303 117.191589 406.359838 92.743838 385.768 72.152 
C 365.176162 51.560162 340.728411 35.224697 313.823878 24.080475 
C 286.919345 12.936253 258.081256 7.2 228.96 7.2 
C 199.838744 7.2 171.000655 12.936253 144.096122 24.080475 
C 117.191589 35.224697 92.743838 51.560162 72.152 72.152 
C 51.560162 92.743838 35.224697 117.191589 24.080475 144.096122 
C 12.936253 171.000655 7.2 199.838744 7.2 228.96 
C 7.2 258.081256 12.936253 286.919345 24.080475 313.823878 
C 35.224697 340.728411 51.560162 365.176162 72.152 385.768 
C 92.743838 406.359838 117.191589 422.695303 144.096122 433.839525 
C 171.000655 444.983747 199.838744 450.72 228.96 450.72 
C 258.081256 450.72 286.919345 444.983747 313.823878 433.839525 
C 340.728411 422.695303 365.176162 406.359838 385.768 385.768 
C 406.359838 365.176162 422.695303 340.728411 433.839525 313.823878 
C 444.983747 286.919345 450.72 258.081256 450.72 228.96 
M 228.96 228.96 
C 228.96 228.96 228.96 228.96 228.96 228.96 
C 228.96 228.96 228.96 228.96 228.96 228.96 
C 228.96 228.96 228.96 228.96 228.96 228.96 
C 228.96 228.96 228.96 228.96 228.96 228.96 
C 228.96 228.96 228.96 228.96 228.96 228.96 
C 228.96 228.96 228.96 228.96 228.96 228.96 
C 228.96 228.96 228.96 228.96 228.96 228.96 
C 228.96 228.96 228.96 228.96 228.96 228.96 
C 228.96 228.96 228.96 228.96 228.96 228.96 
C 228.96 228.96 228.96 228.96 228.96 228.96 
C 228.96 228.96 228.96 228.96 228.96 228.96 
C 228.96 228.96 228.96 228.96 228.96 228.96 
C 228.96 228.96 228.96 228.96 228.96 228.96 
C 228.96 228.96 228.96 228.96 228.96 228.96 
C 228.96 228.96 228.96 228.96 228.96 228.96 
C 228.96 228.96 228.96 228.96 228.96 228.96 
M 450.72 228.96 
z
" style="fill: #ffffff"/>
   </g>
   <g id="patch_3">
    <path d="M 373.382593 228.96 
L 131.920498 60.882653 
L 156.748704 354.033634 
z
" clip-path="url(#p1e79e18e72)" style="fill: #0000ff; opacity: 0.25; stroke: #0000ff; stroke-linejoin: miter"/>
   </g>
   <g id="patch_4">
    <path d="M 350.872281 228.96 
L 135.679646 67.393688 
L 169.051369 332.724793 
z
" clip-path="url(#p1e79e18e72)" style="fill: #008dda; opacity: 0.25; stroke: #008dda; stroke-linejoin: miter"/>
   </g>
   <g id="patch_5">
    <path d="M 407.582665 228.96 
L 176.86683 138.731983 
L 139.111912 384.581454 
z
" clip-path="url(#p1e79e18e72)" style="fill: #008000; opacity: 0.25; stroke: #008000; stroke-linejoin: miter"/>
   </g>
   <g id="patch_6">
    <path d="M 318.109749 228.96 
L 121.237387 42.378961 
L 184.385126 306.165947 
z
" clip-path="url(#p1e79e18e72)" style="fill: #ffa500; opacity: 0.25; stroke: #ffa500; stroke-linejoin: miter"/>
   </g>
   <g id="patch_7">
    <path d="M 395.54002 228.96 
L 145.850147 85.009512 
L 152.484374 361.41967 
z
" clip-path="url(#p1e79e18e72)" style="fill: #ff0000; opacity: 0.25; stroke: #ff0000; stroke-linejoin: miter"/>
   </g>
   <g id="matplotlib.axis_1">
    <g id="xtick_1">
     <g id="line2d_1">
      <path d="M 228.96 228.96 
L 450.72 228.96 
" clip-path="url(#p1e79e18e72)" style="fill: none; stroke: #b0b0b0; stroke-width: 0.8; stroke-linecap: square"/>
     </g>
     <g id="text_1">
      <!-- Sellers -->
      <g transform="translate(427.835625 235.030625)scale(0.22 -0.22)">
       <defs>
        <path id="DejaVuSans-53" d="M 3425 4513 
L 3425 3897 
Q 3066 4069 2747 4153 
Q 2428 4238 2131 4238 
Q 1616 4238 1336 4038 
Q 1056 3838 1056 3469 
Q 1056 3159 1242 3001 
Q 1428 2844 1947 2747 
L 2328 2669 
Q 3034 2534 3370 2195 
Q 3706 1856 3706 1288 
Q 3706 609 3251 259 
Q 2797 -91 1919 -91 
Q 1588 -91 1214 -16 
Q 841 59 441 206 
L 441 856 
Q 825 641 1194 531 
Q 1563 422 1919 422 
Q 2459 422 2753 634 
Q 3047 847 3047 1241 
Q 3047 1584 2836 1778 
Q 2625 1972 2144 2069 
L 1759 2144 
Q 1053 2284 737 2584 
Q 422 2884 422 3419 
Q 422 4038 858 4394 
Q 1294 4750 2059 4750 
Q 2388 4750 2728 4690 
Q 3069 4631 3425 4513 
z
" transform="scale(0.015625)"/>
        <path id="DejaVuSans-65" d="M 3597 1894 
L 3597 1613 
L 953 1613 
Q 991 1019 1311 708 
Q 1631 397 2203 397 
Q 2534 397 2845 478 
Q 3156 559 3463 722 
L 3463 178 
Q 3153 47 2828 -22 
Q 2503 -91 2169 -91 
Q 1331 -91 842 396 
Q 353 884 353 1716 
Q 353 2575 817 3079 
Q 1281 3584 2069 3584 
Q 2775 3584 3186 3129 
Q 3597 2675 3597 1894 
z
M 3022 2063 
Q 3016 2534 2758 2815 
Q 2500 3097 2075 3097 
Q 1594 3097 1305 2825 
Q 1016 2553 972 2059 
L 3022 2063 
z
" transform="scale(0.015625)"/>
        <path id="DejaVuSans-6c" d="M 603 4863 
L 1178 4863 
L 1178 0 
L 603 0 
L 603 4863 
z
" transform="scale(0.015625)"/>
        <path id="DejaVuSans-72" d="M 2631 2963 
Q 2534 3019 2420 3045 
Q 2306 3072 2169 3072 
Q 1681 3072 1420 2755 
Q 1159 2438 1159 1844 
L 1159 0 
L 581 0 
L 581 3500 
L 1159 3500 
L 1159 2956 
Q 1341 3275 1631 3429 
Q 1922 3584 2338 3584 
Q 2397 3584 2469 3576 
Q 2541 3569 2628 3553 
L 2631 2963 
z
" transform="scale(0.015625)"/>
        <path id="DejaVuSans-73" d="M 2834 3397 
L 2834 2853 
Q 2591 2978 2328 3040 
Q 2066 3103 1784 3103 
Q 1356 3103 1142 2972 
Q 928 2841 928 2578 
Q 928 2378 1081 2264 
Q 1234 2150 1697 2047 
L 1894 2003 
Q 2506 1872 2764 1633 
Q 3022 1394 3022 966 
Q 3022 478 2636 193 
Q 2250 -91 1575 -91 
Q 1294 -91 989 -36 
Q 684 19 347 128 
L 347 722 
Q 666 556 975 473 
Q 1284 391 1588 391 
Q 1994 391 2212 530 
Q 2431 669 2431 922 
Q 2431 1156 2273 1281 
Q 2116 1406 1581 1522 
L 1381 1569 
Q 847 1681 609 1914 
Q 372 2147 372 2553 
Q 372 3047 722 3315 
Q 1072 3584 1716 3584 
Q 2034 3584 2315 3537 
Q 2597 3491 2834 3397 
z
" transform="scale(0.015625)"/>
       </defs>
       <use xlink:href="#DejaVuSans-53"/>
       <use xlink:href="#DejaVuSans-65" x="63.476562"/>
       <use xlink:href="#DejaVuSans-6c" x="125"/>
       <use xlink:href="#DejaVuSans-6c" x="152.783203"/>
       <use xlink:href="#DejaVuSans-65" x="180.566406"/>
       <use xlink:href="#DejaVuSans-72" x="242.089844"/>
       <use xlink:href="#DejaVuSans-73" x="283.203125"/>
      </g>
     </g>
    </g>
    <g id="xtick_2">
     <g id="line2d_2">
      <path d="M 228.96 228.96 
L 118.08 36.910206 
" clip-path="url(#p1e79e18e72)" style="fill: none; stroke: #b0b0b0; stroke-width: 0.8; stroke-linecap: square"/>
     </g>
     <g id="text_2">
      <!-- Buyers -->
      <g transform="translate(73.030313 30.856476)scale(0.22 -0.22)">
       <defs>
        <path id="DejaVuSans-42" d="M 1259 2228 
L 1259 519 
L 2272 519 
Q 2781 519 3026 730 
Q 3272 941 3272 1375 
Q 3272 1813 3026 2020 
Q 2781 2228 2272 2228 
L 1259 2228 
z
M 1259 4147 
L 1259 2741 
L 2194 2741 
Q 2656 2741 2882 2914 
Q 3109 3088 3109 3444 
Q 3109 3797 2882 3972 
Q 2656 4147 2194 4147 
L 1259 4147 
z
M 628 4666 
L 2241 4666 
Q 2963 4666 3353 4366 
Q 3744 4066 3744 3513 
Q 3744 3084 3544 2831 
Q 3344 2578 2956 2516 
Q 3422 2416 3680 2098 
Q 3938 1781 3938 1306 
Q 3938 681 3513 340 
Q 3088 0 2303 0 
L 628 0 
L 628 4666 
z
" transform="scale(0.015625)"/>
        <path id="DejaVuSans-75" d="M 544 1381 
L 544 3500 
L 1119 3500 
L 1119 1403 
Q 1119 906 1312 657 
Q 1506 409 1894 409 
Q 2359 409 2629 706 
Q 2900 1003 2900 1516 
L 2900 3500 
L 3475 3500 
L 3475 0 
L 2900 0 
L 2900 538 
Q 2691 219 2414 64 
Q 2138 -91 1772 -91 
Q 1169 -91 856 284 
Q 544 659 544 1381 
z
M 1991 3584 
L 1991 3584 
z
" transform="scale(0.015625)"/>
        <path id="DejaVuSans-79" d="M 2059 -325 
Q 1816 -950 1584 -1140 
Q 1353 -1331 966 -1331 
L 506 -1331 
L 506 -850 
L 844 -850 
Q 1081 -850 1212 -737 
Q 1344 -625 1503 -206 
L 1606 56 
L 191 3500 
L 800 3500 
L 1894 763 
L 2988 3500 
L 3597 3500 
L 2059 -325 
z
" transform="scale(0.015625)"/>
       </defs>
       <use xlink:href="#DejaVuSans-42"/>
       <use xlink:href="#DejaVuSans-75" x="68.603516"/>
       <use xlink:href="#DejaVuSans-79" x="131.982422"/>
       <use xlink:href="#DejaVuSans-65" x="191.162109"/>
       <use xlink:href="#DejaVuSans-72" x="252.685547"/>
       <use xlink:href="#DejaVuSans-73" x="293.798828"/>
      </g>
     </g>
    </g>
    <g id="xtick_3">
     <g id="line2d_3">
      <path d="M 228.96 228.96 
L 118.08 421.009794 
" clip-path="url(#p1e79e18e72)" style="fill: none; stroke: #b0b0b0; stroke-width: 0.8; stroke-linecap: square"/>
     </g>
     <g id="text_3">
      <!-- Arbiter/$\rho$ -->
      <g transform="translate(62.68 439.184149)scale(0.22 -0.22)">
       <defs>
        <path id="DejaVuSans-41" d="M 2188 4044 
L 1331 1722 
L 3047 1722 
L 2188 4044 
z
M 1831 4666 
L 2547 4666 
L 4325 0 
L 3669 0 
L 3244 1197 
L 1141 1197 
L 716 0 
L 50 0 
L 1831 4666 
z
" transform="scale(0.015625)"/>
        <path id="DejaVuSans-62" d="M 3116 1747 
Q 3116 2381 2855 2742 
Q 2594 3103 2138 3103 
Q 1681 3103 1420 2742 
Q 1159 2381 1159 1747 
Q 1159 1113 1420 752 
Q 1681 391 2138 391 
Q 2594 391 2855 752 
Q 3116 1113 3116 1747 
z
M 1159 2969 
Q 1341 3281 1617 3432 
Q 1894 3584 2278 3584 
Q 2916 3584 3314 3078 
Q 3713 2572 3713 1747 
Q 3713 922 3314 415 
Q 2916 -91 2278 -91 
Q 1894 -91 1617 61 
Q 1341 213 1159 525 
L 1159 0 
L 581 0 
L 581 4863 
L 1159 4863 
L 1159 2969 
z
" transform="scale(0.015625)"/>
        <path id="DejaVuSans-69" d="M 603 3500 
L 1178 3500 
L 1178 0 
L 603 0 
L 603 3500 
z
M 603 4863 
L 1178 4863 
L 1178 4134 
L 603 4134 
L 603 4863 
z
" transform="scale(0.015625)"/>
        <path id="DejaVuSans-74" d="M 1172 4494 
L 1172 3500 
L 2356 3500 
L 2356 3053 
L 1172 3053 
L 1172 1153 
Q 1172 725 1289 603 
Q 1406 481 1766 481 
L 2356 481 
L 2356 0 
L 1766 0 
Q 1100 0 847 248 
Q 594 497 594 1153 
L 594 3053 
L 172 3053 
L 172 3500 
L 594 3500 
L 594 4494 
L 1172 4494 
z
" transform="scale(0.015625)"/>
        <path id="DejaVuSans-2f" d="M 1625 4666 
L 2156 4666 
L 531 -594 
L 0 -594 
L 1625 4666 
z
" transform="scale(0.015625)"/>
        <path id="DejaVuSans-Oblique-3c1" d="M 1203 2875 
Q 1453 3194 1981 3475 
Q 2188 3584 2756 3584 
Q 3394 3584 3694 3078 
Q 3994 2572 3834 1747 
Q 3672 922 3175 415 
Q 2678 -91 2041 -91 
Q 1656 -91 1409 63 
Q 1163 213 1044 525 
L 681 -1331 
L 103 -1331 
L 697 1716 
Q 838 2438 1203 2875 
z
M 3238 1747 
Q 3359 2381 3169 2744 
Q 2978 3103 2522 3103 
Q 2066 3103 1734 2744 
Q 1403 2381 1281 1747 
Q 1156 1113 1347 750 
Q 1538 391 1994 391 
Q 2450 391 2781 750 
Q 3113 1113 3238 1747 
z
" transform="scale(0.015625)"/>
       </defs>
       <use xlink:href="#DejaVuSans-41" transform="translate(0 0.015625)"/>
       <use xlink:href="#DejaVuSans-72" transform="translate(68.408203 0.015625)"/>
       <use xlink:href="#DejaVuSans-62" transform="translate(109.521484 0.015625)"/>
       <use xlink:href="#DejaVuSans-69" transform="translate(172.998047 0.015625)"/>
       <use xlink:href="#DejaVuSans-74" transform="translate(200.78125 0.015625)"/>
       <use xlink:href="#DejaVuSans-65" transform="translate(239.990234 0.015625)"/>
       <use xlink:href="#DejaVuSans-72" transform="translate(301.513672 0.015625)"/>
       <use xlink:href="#DejaVuSans-2f" transform="translate(342.626953 0.015625)"/>
       <use xlink:href="#DejaVuSans-Oblique-3c1" transform="translate(376.318359 0.015625)"/>
      </g>
     </g>
    </g>
   </g>
   <g id="matplotlib.axis_2">
    <g id="ytick_1">
     <g id="line2d_4">
      <path d="M 266.105729 228.96 
C 266.105729 224.082068 265.144882 219.251567 263.278178 214.744945 
C 261.411475 210.238323 258.675216 206.143222 255.225997 202.694003 
C 251.776778 199.244784 247.681677 196.508525 243.175055 194.641822 
C 238.668433 192.775118 233.837932 191.814271 228.96 191.814271 
C 224.082068 191.814271 219.251567 192.775118 214.744945 194.641822 
C 210.238323 196.508525 206.143222 199.244784 202.694003 202.694003 
C 199.244784 206.143222 196.508525 210.238323 194.641822 214.744945 
C 192.775118 219.251567 191.814271 224.082068 191.814271 228.96 
C 191.814271 233.837932 192.775118 238.668433 194.641822 243.175055 
C 196.508525 247.681677 199.244784 251.776778 202.694003 255.225997 
C 206.143222 258.675216 210.238323 261.411475 214.744945 263.278178 
C 219.251567 265.144882 224.082068 266.105729 228.96 266.105729 
C 233.837932 266.105729 238.668433 265.144882 243.175055 263.278178 
C 247.681677 261.411475 251.776778 258.675216 255.225997 255.225997 
C 258.675216 251.776778 261.411475 247.681677 263.278178 243.175055 
C 265.144882 238.668433 266.105729 233.837932 266.105729 228.96 
" clip-path="url(#p1e79e18e72)" style="fill: none; stroke: #b0b0b0; stroke-width: 0.8; stroke-linecap: square"/>
     </g>
     <g id="text_4">
      <!-- 100 -->
      <g transform="translate(263.278178 212.665258)scale(0.1 -0.1)">
       <defs>
        <path id="DejaVuSans-31" d="M 794 531 
L 1825 531 
L 1825 4091 
L 703 3866 
L 703 4441 
L 1819 4666 
L 2450 4666 
L 2450 531 
L 3481 531 
L 3481 0 
L 794 0 
L 794 531 
z
" transform="scale(0.015625)"/>
        <path id="DejaVuSans-30" d="M 2034 4250 
Q 1547 4250 1301 3770 
Q 1056 3291 1056 2328 
Q 1056 1369 1301 889 
Q 1547 409 2034 409 
Q 2525 409 2770 889 
Q 3016 1369 3016 2328 
Q 3016 3291 2770 3770 
Q 2525 4250 2034 4250 
z
M 2034 4750 
Q 2819 4750 3233 4129 
Q 3647 3509 3647 2328 
Q 3647 1150 3233 529 
Q 2819 -91 2034 -91 
Q 1250 -91 836 529 
Q 422 1150 422 2328 
Q 422 3509 836 4129 
Q 1250 4750 2034 4750 
z
" transform="scale(0.015625)"/>
       </defs>
       <use xlink:href="#DejaVuSans-31"/>
       <use xlink:href="#DejaVuSans-30" x="63.623047"/>
       <use xlink:href="#DejaVuSans-30" x="127.246094"/>
      </g>
     </g>
    </g>
    <g id="ytick_2">
     <g id="line2d_5">
      <path d="M 303.251457 228.96 
C 303.251457 219.204135 301.329765 209.543134 297.596357 200.52989 
C 293.862949 191.516646 288.390431 183.326445 281.491993 176.428007 
C 274.593555 169.529569 266.403354 164.057051 257.39011 160.323643 
C 248.376866 156.590235 238.715865 154.668543 228.96 154.668543 
C 219.204135 154.668543 209.543134 156.590235 200.52989 160.323643 
C 191.516646 164.057051 183.326445 169.529569 176.428007 176.428007 
C 169.529569 183.326445 164.057051 191.516646 160.323643 200.52989 
C 156.590235 209.543134 154.668543 219.204135 154.668543 228.96 
C 154.668543 238.715865 156.590235 248.376866 160.323643 257.39011 
C 164.057051 266.403354 169.529569 274.593555 176.428007 281.491993 
C 183.326445 288.390431 191.516646 293.862949 200.52989 297.596357 
C 209.543134 301.329765 219.204135 303.251457 228.96 303.251457 
C 238.715865 303.251457 248.376866 301.329765 257.39011 297.596357 
C 266.403354 293.862949 274.593555 288.390431 281.491993 281.491993 
C 288.390431 274.593555 293.862949 266.403354 297.596357 257.39011 
C 301.329765 248.376866 303.251457 238.715865 303.251457 228.96 
" clip-path="url(#p1e79e18e72)" style="fill: none; stroke: #b0b0b0; stroke-width: 0.8; stroke-linecap: square"/>
     </g>
     <g id="text_5">
      <!-- 200 -->
      <g transform="translate(297.596357 198.450203)scale(0.1 -0.1)">
       <defs>
        <path id="DejaVuSans-32" d="M 1228 531 
L 3431 531 
L 3431 0 
L 469 0 
L 469 531 
Q 828 903 1448 1529 
Q 2069 2156 2228 2338 
Q 2531 2678 2651 2914 
Q 2772 3150 2772 3378 
Q 2772 3750 2511 3984 
Q 2250 4219 1831 4219 
Q 1534 4219 1204 4116 
Q 875 4013 500 3803 
L 500 4441 
Q 881 4594 1212 4672 
Q 1544 4750 1819 4750 
Q 2544 4750 2975 4387 
Q 3406 4025 3406 3419 
Q 3406 3131 3298 2873 
Q 3191 2616 2906 2266 
Q 2828 2175 2409 1742 
Q 1991 1309 1228 531 
z
" transform="scale(0.015625)"/>
       </defs>
       <use xlink:href="#DejaVuSans-32"/>
       <use xlink:href="#DejaVuSans-30" x="63.623047"/>
       <use xlink:href="#DejaVuSans-30" x="127.246094"/>
      </g>
     </g>
    </g>
    <g id="ytick_3">
     <g id="line2d_6">
      <path d="M 340.397186 228.96 
C 340.397186 214.326203 337.514647 199.834701 331.914535 186.314835 
C 326.314424 172.79497 318.105647 160.509667 307.75799 150.16201 
C 297.410333 139.814353 285.12503 131.605576 271.605165 126.005465 
C 258.085299 120.405353 243.593797 117.522814 228.96 117.522814 
C 214.326203 117.522814 199.834701 120.405353 186.314835 126.005465 
C 172.79497 131.605576 160.509667 139.814353 150.16201 150.16201 
C 139.814353 160.509667 131.605576 172.79497 126.005465 186.314835 
C 120.405353 199.834701 117.522814 214.326203 117.522814 228.96 
C 117.522814 243.593797 120.405353 258.085299 126.005465 271.605165 
C 131.605576 285.12503 139.814353 297.410333 150.16201 307.75799 
C 160.509667 318.105647 172.79497 326.314424 186.314835 331.914535 
C 199.834701 337.514647 214.326203 340.397186 228.96 340.397186 
C 243.593797 340.397186 258.085299 337.514647 271.605165 331.914535 
C 285.12503 326.314424 297.410333 318.105647 307.75799 307.75799 
C 318.105647 297.410333 326.314424 285.12503 331.914535 271.605165 
C 337.514647 258.085299 340.397186 243.593797 340.397186 228.96 
" clip-path="url(#p1e79e18e72)" style="fill: none; stroke: #b0b0b0; stroke-width: 0.8; stroke-linecap: square"/>
     </g>
     <g id="text_6">
      <!-- 300 -->
      <g transform="translate(331.914535 184.235148)scale(0.1 -0.1)">
       <defs>
        <path id="DejaVuSans-33" d="M 2597 2516 
Q 3050 2419 3304 2112 
Q 3559 1806 3559 1356 
Q 3559 666 3084 287 
Q 2609 -91 1734 -91 
Q 1441 -91 1130 -33 
Q 819 25 488 141 
L 488 750 
Q 750 597 1062 519 
Q 1375 441 1716 441 
Q 2309 441 2620 675 
Q 2931 909 2931 1356 
Q 2931 1769 2642 2001 
Q 2353 2234 1838 2234 
L 1294 2234 
L 1294 2753 
L 1863 2753 
Q 2328 2753 2575 2939 
Q 2822 3125 2822 3475 
Q 2822 3834 2567 4026 
Q 2313 4219 1838 4219 
Q 1578 4219 1281 4162 
Q 984 4106 628 3988 
L 628 4550 
Q 988 4650 1302 4700 
Q 1616 4750 1894 4750 
Q 2613 4750 3031 4423 
Q 3450 4097 3450 3541 
Q 3450 3153 3228 2886 
Q 3006 2619 2597 2516 
z
" transform="scale(0.015625)"/>
       </defs>
       <use xlink:href="#DejaVuSans-33"/>
       <use xlink:href="#DejaVuSans-30" x="63.623047"/>
       <use xlink:href="#DejaVuSans-30" x="127.246094"/>
      </g>
     </g>
    </g>
    <g id="ytick_4">
     <g id="line2d_7">
      <path d="M 377.542915 228.96 
C 377.542915 209.44827 373.699529 190.126268 366.232714 172.09978 
C 358.765898 154.073293 347.820863 137.69289 334.023986 123.896014 
C 320.22711 110.099137 303.846707 99.154102 285.82022 91.687286 
C 267.793732 84.220471 248.47173 80.377085 228.96 80.377085 
C 209.44827 80.377085 190.126268 84.220471 172.09978 91.687286 
C 154.073293 99.154102 137.69289 110.099137 123.896014 123.896014 
C 110.099137 137.69289 99.154102 154.073293 91.687286 172.09978 
C 84.220471 190.126268 80.377085 209.44827 80.377085 228.96 
C 80.377085 248.47173 84.220471 267.793732 91.687286 285.82022 
C 99.154102 303.846707 110.099137 320.22711 123.896014 334.023986 
C 137.69289 347.820863 154.073293 358.765898 172.09978 366.232714 
C 190.126268 373.699529 209.44827 377.542915 228.96 377.542915 
C 248.47173 377.542915 267.793732 373.699529 285.82022 366.232714 
C 303.846707 358.765898 320.22711 347.820863 334.023986 334.023986 
C 347.820863 320.22711 358.765898 303.846707 366.232714 285.82022 
C 373.699529 267.793732 377.542915 248.47173 377.542915 228.96 
" clip-path="url(#p1e79e18e72)" style="fill: none; stroke: #b0b0b0; stroke-width: 0.8; stroke-linecap: square"/>
     </g>
     <g id="text_7">
      <!-- 400 -->
      <g transform="translate(366.232714 170.020093)scale(0.1 -0.1)">
       <defs>
        <path id="DejaVuSans-34" d="M 2419 4116 
L 825 1625 
L 2419 1625 
L 2419 4116 
z
M 2253 4666 
L 3047 4666 
L 3047 1625 
L 3713 1625 
L 3713 1100 
L 3047 1100 
L 3047 0 
L 2419 0 
L 2419 1100 
L 313 1100 
L 313 1709 
L 2253 4666 
z
" transform="scale(0.015625)"/>
       </defs>
       <use xlink:href="#DejaVuSans-34"/>
       <use xlink:href="#DejaVuSans-30" x="63.623047"/>
       <use xlink:href="#DejaVuSans-30" x="127.246094"/>
      </g>
     </g>
    </g>
    <g id="ytick_5">
     <g id="line2d_8">
      <path d="M 414.688643 228.96 
C 414.688643 204.570338 409.884412 180.417835 400.550892 157.884725 
C 391.217373 135.351616 377.536078 114.876112 360.289983 97.630017 
C 343.043888 80.383922 322.568384 66.702627 300.035275 57.369108 
C 277.502165 48.035588 253.349662 43.231357 228.96 43.231357 
C 204.570338 43.231357 180.417835 48.035588 157.884725 57.369108 
C 135.351616 66.702627 114.876112 80.383922 97.630017 97.630017 
C 80.383922 114.876112 66.702627 135.351616 57.369108 157.884725 
C 48.035588 180.417835 43.231357 204.570338 43.231357 228.96 
C 43.231357 253.349662 48.035588 277.502165 57.369108 300.035275 
C 66.702627 322.568384 80.383922 343.043888 97.630017 360.289983 
C 114.876112 377.536078 135.351616 391.217373 157.884725 400.550892 
C 180.417835 409.884412 204.570338 414.688643 228.96 414.688643 
C 253.349662 414.688643 277.502165 409.884412 300.035275 400.550892 
C 322.568384 391.217373 343.043888 377.536078 360.289983 360.289983 
C 377.536078 343.043888 391.217373 322.568384 400.550892 300.035275 
C 409.884412 277.502165 414.688643 253.349662 414.688643 228.96 
" clip-path="url(#p1e79e18e72)" style="fill: none; stroke: #b0b0b0; stroke-width: 0.8; stroke-linecap: square"/>
     </g>
     <g id="text_8">
      <!-- 500 -->
      <g transform="translate(400.550892 155.805038)scale(0.1 -0.1)">
       <defs>
        <path id="DejaVuSans-35" d="M 691 4666 
L 3169 4666 
L 3169 4134 
L 1269 4134 
L 1269 2991 
Q 1406 3038 1543 3061 
Q 1681 3084 1819 3084 
Q 2600 3084 3056 2656 
Q 3513 2228 3513 1497 
Q 3513 744 3044 326 
Q 2575 -91 1722 -91 
Q 1428 -91 1123 -41 
Q 819 9 494 109 
L 494 744 
Q 775 591 1075 516 
Q 1375 441 1709 441 
Q 2250 441 2565 725 
Q 2881 1009 2881 1497 
Q 2881 1984 2565 2268 
Q 2250 2553 1709 2553 
Q 1456 2553 1204 2497 
Q 953 2441 691 2322 
L 691 4666 
z
" transform="scale(0.015625)"/>
       </defs>
       <use xlink:href="#DejaVuSans-35"/>
       <use xlink:href="#DejaVuSans-30" x="63.623047"/>
       <use xlink:href="#DejaVuSans-30" x="127.246094"/>
      </g>
     </g>
    </g>
   </g>
   <g id="line2d_9">
    <path d="M 373.382593 228.96 
L 131.920498 60.882653 
L 156.748704 354.033634 
L 373.382593 228.96 
" clip-path="url(#p1e79e18e72)" style="fill: none; stroke: #0000ff; stroke-width: 2; stroke-linecap: square"/>
   </g>
   <g id="line2d_10">
    <path d="M 350.872281 228.96 
L 135.679646 67.393688 
L 169.051369 332.724793 
L 350.872281 228.96 
" clip-path="url(#p1e79e18e72)" style="fill: none; stroke: #008dda; stroke-width: 2; stroke-linecap: square"/>
   </g>
   <g id="line2d_11">
    <path d="M 407.582665 228.96 
L 176.86683 138.731983 
L 139.111912 384.581454 
L 407.582665 228.96 
" clip-path="url(#p1e79e18e72)" style="fill: none; stroke: #008000; stroke-width: 2; stroke-linecap: square"/>
   </g>
   <g id="line2d_12">
    <path d="M 318.109749 228.96 
L 121.237387 42.378961 
L 184.385126 306.165947 
L 318.109749 228.96 
" clip-path="url(#p1e79e18e72)" style="fill: none; stroke: #ffa500; stroke-width: 2; stroke-linecap: square"/>
   </g>
   <g id="line2d_13">
    <path d="M 395.54002 228.96 
L 145.850147 85.009512 
L 152.484374 361.41967 
L 395.54002 228.96 
" clip-path="url(#p1e79e18e72)" style="fill: none; stroke: #ff0000; stroke-width: 2; stroke-linecap: square"/>
   </g>
   <g id="patch_8">
    <path d="M 450.72 228.96 
C 450.72 199.838744 444.983747 171.000655 433.839525 144.096122 
C 422.695303 117.191589 406.359838 92.743838 385.768 72.152 
C 365.176162 51.560162 340.728411 35.224697 313.823878 24.080475 
C 286.919345 12.936253 258.081256 7.2 228.96 7.2 
C 199.838744 7.2 171.000655 12.936253 144.096122 24.080475 
C 117.191589 35.224697 92.743838 51.560162 72.152 72.152 
C 51.560162 92.743838 35.224697 117.191589 24.080475 144.096122 
C 12.936253 171.000655 7.2 199.838744 7.2 228.96 
C 7.2 258.081256 12.936253 286.919345 24.080475 313.823878 
C 35.224697 340.728411 51.560162 365.176162 72.152 385.768 
C 92.743838 406.359838 117.191589 422.695303 144.096122 433.839525 
C 171.000655 444.983747 199.838744 450.72 228.96 450.72 
C 258.081256 450.72 286.919345 444.983747 313.823878 433.839525 
C 340.728411 422.695303 365.176162 406.359838 385.768 385.768 
C 406.359838 365.176162 422.695303 340.728411 433.839525 313.823878 
C 444.983747 286.919345 450.72 258.081256 450.72 228.96 
" style="fill: none; stroke: #000000; stroke-width: 0.8; stroke-linejoin: miter; stroke-linecap: square"/>
   </g>
  </g>
 </g>
 <defs>
  <clipPath id="p1e79e18e72">
   <path d="M 450.72 228.96 
C 450.72 199.838744 444.983747 171.000655 433.839525 144.096122 
C 422.695303 117.191589 406.359838 92.743838 385.768 72.152 
C 365.176162 51.560162 340.728411 35.224697 313.823878 24.080475 
C 286.919345 12.936253 258.081256 7.2 228.96 7.2 
C 199.838744 7.2 171.000655 12.936253 144.096122 24.080475 
C 117.191589 35.224697 92.743838 51.560162 72.152 72.152 
C 51.560162 92.743838 35.224697 117.191589 24.080475 144.096122 
C 12.936253 171.000655 7.2 199.838744 7.2 228.96 
C 7.2 258.081256 12.936253 286.919345 24.080475 313.823878 
C 35.224697 340.728411 51.560162 365.176162 72.152 385.768 
C 92.743838 406.359838 117.191589 422.695303 144.096122 433.839525 
C 171.000655 444.983747 199.838744 450.72 228.96 450.72 
C 258.081256 450.72 286.919345 444.983747 313.823878 433.839525 
C 340.728411 422.695303 365.176162 406.359838 385.768 385.768 
C 406.359838 365.176162 422.695303 340.728411 433.839525 313.823878 
C 444.983747 286.919345 450.72 258.081256 450.72 228.96 
M 228.96 228.96 
C 228.96 228.96 228.96 228.96 228.96 228.96 
C 228.96 228.96 228.96 228.96 228.96 228.96 
C 228.96 228.96 228.96 228.96 228.96 228.96 
C 228.96 228.96 228.96 228.96 228.96 228.96 
C 228.96 228.96 228.96 228.96 228.96 228.96 
C 228.96 228.96 228.96 228.96 228.96 228.96 
C 228.96 228.96 228.96 228.96 228.96 228.96 
C 228.96 228.96 228.96 228.96 228.96 228.96 
C 228.96 228.96 228.96 228.96 228.96 228.96 
C 228.96 228.96 228.96 228.96 228.96 228.96 
C 228.96 228.96 228.96 228.96 228.96 228.96 
C 228.96 228.96 228.96 228.96 228.96 228.96 
C 228.96 228.96 228.96 228.96 228.96 228.96 
C 228.96 228.96 228.96 228.96 228.96 228.96 
C 228.96 228.96 228.96 228.96 228.96 228.96 
C 228.96 228.96 228.96 228.96 228.96 228.96 
M 450.72 228.96 
z
"/>
  </clipPath>
 </defs>
</svg>
