<?xml version="1.0" encoding="utf-8" standalone="no"?>
<!DOCTYPE svg PUBLIC "-//W3C//DTD SVG 1.1//EN"
  "http://www.w3.org/Graphics/SVG/1.1/DTD/svg11.dtd">
<svg xmlns:xlink="http://www.w3.org/1999/xlink" width="508.804375pt" height="457.92pt" viewBox="0 0 508.804375 457.92" xmlns="http://www.w3.org/2000/svg" version="1.1">
 <metadata>
  <rdf:RDF xmlns:dc="http://purl.org/dc/elements/1.1/" xmlns:cc="http://creativecommons.org/ns#" xmlns:rdf="http://www.w3.org/1999/02/22-rdf-syntax-ns#">
   <cc:Work>
    <dc:type rdf:resource="http://purl.org/dc/dcmitype/StillImage"/>
    <dc:date>2024-03-19T14:40:09.355318</dc:date>
    <dc:format>image/svg+xml</dc:format>
    <dc:creator>
     <cc:Agent>
      <dc:title>Matplotlib v3.5.3, https://matplotlib.org/</dc:title>
     </cc:Agent>
    </dc:creator>
   </cc:Work>
  </rdf:RDF>
 </metadata>
 <defs>
  <style type="text/css">*{stroke-linejoin: round; stroke-linecap: butt}</style>
 </defs>
 <g id="figure_1">
  <g id="patch_1">
   <path d="M 0 457.92 
L 508.804375 457.92 
L 508.804375 0 
L 0 0 
z
" style="fill: #ffffff"/>
  </g>
  <g id="axes_1">
   <g id="patch_2">
    <path d="M 450.72 228.96 
C 450.72 199.838744 444.983747 171.000655 433.839525 144.096122 
C 422.695303 117.191589 406.359838 92.743838 385.768 72.152 
C 365.176162 51.560162 340.728411 35.224697 313.823878 24.080475 
C 286.919345 12.936253 258.081256 7.2 228.96 7.2 
C 199.838744 7.2 171.000655 12.936253 144.096122 24.080475 
C 117.191589 35.224697 92.743838 51.560162 72.152 72.152 
C 51.560162 92.743838 35.224697 117.191589 24.080475 144.096122 
C 12.936253 171.000655 7.2 199.838744 7.2 228.96 
C 7.2 258.081256 12.936253 286.919345 24.080475 313.823878 
C 35.224697 340.728411 51.560162 365.176162 72.152 385.768 
C 92.743838 406.359838 117.191589 422.695303 144.096122 433.839525 
C 171.000655 444.983747 199.838744 450.72 228.96 450.72 
C 258.081256 450.72 286.919345 444.983747 313.823878 433.839525 
C 340.728411 422.695303 365.176162 406.359838 385.768 385.768 
C 406.359838 365.176162 422.695303 340.728411 433.839525 313.823878 
C 444.983747 286.919345 450.72 258.081256 450.72 228.96 
M 228.96 228.96 
C 228.96 228.96 228.96 228.96 228.96 228.96 
C 228.96 228.96 228.96 228.96 228.96 228.96 
C 228.96 228.96 228.96 228.96 228.96 228.96 
C 228.96 228.96 228.96 228.96 228.96 228.96 
C 228.96 228.96 228.96 228.96 228.96 228.96 
C 228.96 228.96 228.96 228.96 228.96 228.96 
C 228.96 228.96 228.96 228.96 228.96 228.96 
C 228.96 228.96 228.96 228.96 228.96 228.96 
C 228.96 228.96 228.96 228.96 228.96 228.96 
C 228.96 228.96 228.96 228.96 228.96 228.96 
C 228.96 228.96 228.96 228.96 228.96 228.96 
C 228.96 228.96 228.96 228.96 228.96 228.96 
C 228.96 228.96 228.96 228.96 228.96 228.96 
C 228.96 228.96 228.96 228.96 228.96 228.96 
C 228.96 228.96 228.96 228.96 228.96 228.96 
C 228.96 228.96 228.96 228.96 228.96 228.96 
M 450.72 228.96 
z
" style="fill: #ffffff"/>
   </g>
   <g id="patch_3">
    <path d="M 424.897433 228.96 
L 159.268698 108.251125 
L 130.795725 398.985511 
z
" clip-path="url(#p9f9bf8e348)" style="fill: #0000ff; opacity: 0.25; stroke: #0000ff; stroke-linejoin: miter"/>
   </g>
   <g id="patch_4">
    <path d="M 389.341402 228.96 
L 174.018525 133.798574 
L 151.003403 363.984787 
z
" clip-path="url(#p9f9bf8e348)" style="fill: #008dda; opacity: 0.25; stroke: #008dda; stroke-linejoin: miter"/>
   </g>
   <g id="patch_5">
    <path d="M 355.88614 228.96 
L 128.151246 54.354116 
L 165.208037 339.381639 
z
" clip-path="url(#p9f9bf8e348)" style="fill: #008000; opacity: 0.25; stroke: #008000; stroke-linejoin: miter"/>
   </g>
   <g id="patch_6">
    <path d="M 343.924499 228.96 
L 120.743739 41.523938 
L 171.134042 329.117497 
z
" clip-path="url(#p9f9bf8e348)" style="fill: #ffa500; opacity: 0.25; stroke: #ffa500; stroke-linejoin: miter"/>
   </g>
   <g id="patch_7">
    <path d="M 395.356297 228.96 
L 141.425497 77.345794 
L 145.788518 373.017232 
z
" clip-path="url(#p9f9bf8e348)" style="fill: #ff0000; opacity: 0.25; stroke: #ff0000; stroke-linejoin: miter"/>
   </g>
   <g id="matplotlib.axis_1">
    <g id="xtick_1">
     <g id="line2d_1">
      <path d="M 228.96 228.96 
L 450.72 228.96 
" clip-path="url(#p9f9bf8e348)" style="fill: none; stroke: #b0b0b0; stroke-width: 0.8; stroke-linecap: square"/>
     </g>
     <g id="text_1">
      <!-- Sellers -->
      <g transform="translate(427.835625 235.030625)scale(0.22 -0.22)">
       <defs>
        <path id="DejaVuSans-53" d="M 3425 4513 
L 3425 3897 
Q 3066 4069 2747 4153 
Q 2428 4238 2131 4238 
Q 1616 4238 1336 4038 
Q 1056 3838 1056 3469 
Q 1056 3159 1242 3001 
Q 1428 2844 1947 2747 
L 2328 2669 
Q 3034 2534 3370 2195 
Q 3706 1856 3706 1288 
Q 3706 609 3251 259 
Q 2797 -91 1919 -91 
Q 1588 -91 1214 -16 
Q 841 59 441 206 
L 441 856 
Q 825 641 1194 531 
Q 1563 422 1919 422 
Q 2459 422 2753 634 
Q 3047 847 3047 1241 
Q 3047 1584 2836 1778 
Q 2625 1972 2144 2069 
L 1759 2144 
Q 1053 2284 737 2584 
Q 422 2884 422 3419 
Q 422 4038 858 4394 
Q 1294 4750 2059 4750 
Q 2388 4750 2728 4690 
Q 3069 4631 3425 4513 
z
" transform="scale(0.015625)"/>
        <path id="DejaVuSans-65" d="M 3597 1894 
L 3597 1613 
L 953 1613 
Q 991 1019 1311 708 
Q 1631 397 2203 397 
Q 2534 397 2845 478 
Q 3156 559 3463 722 
L 3463 178 
Q 3153 47 2828 -22 
Q 2503 -91 2169 -91 
Q 1331 -91 842 396 
Q 353 884 353 1716 
Q 353 2575 817 3079 
Q 1281 3584 2069 3584 
Q 2775 3584 3186 3129 
Q 3597 2675 3597 1894 
z
M 3022 2063 
Q 3016 2534 2758 2815 
Q 2500 3097 2075 3097 
Q 1594 3097 1305 2825 
Q 1016 2553 972 2059 
L 3022 2063 
z
" transform="scale(0.015625)"/>
        <path id="DejaVuSans-6c" d="M 603 4863 
L 1178 4863 
L 1178 0 
L 603 0 
L 603 4863 
z
" transform="scale(0.015625)"/>
        <path id="DejaVuSans-72" d="M 2631 2963 
Q 2534 3019 2420 3045 
Q 2306 3072 2169 3072 
Q 1681 3072 1420 2755 
Q 1159 2438 1159 1844 
L 1159 0 
L 581 0 
L 581 3500 
L 1159 3500 
L 1159 2956 
Q 1341 3275 1631 3429 
Q 1922 3584 2338 3584 
Q 2397 3584 2469 3576 
Q 2541 3569 2628 3553 
L 2631 2963 
z
" transform="scale(0.015625)"/>
        <path id="DejaVuSans-73" d="M 2834 3397 
L 2834 2853 
Q 2591 2978 2328 3040 
Q 2066 3103 1784 3103 
Q 1356 3103 1142 2972 
Q 928 2841 928 2578 
Q 928 2378 1081 2264 
Q 1234 2150 1697 2047 
L 1894 2003 
Q 2506 1872 2764 1633 
Q 3022 1394 3022 966 
Q 3022 478 2636 193 
Q 2250 -91 1575 -91 
Q 1294 -91 989 -36 
Q 684 19 347 128 
L 347 722 
Q 666 556 975 473 
Q 1284 391 1588 391 
Q 1994 391 2212 530 
Q 2431 669 2431 922 
Q 2431 1156 2273 1281 
Q 2116 1406 1581 1522 
L 1381 1569 
Q 847 1681 609 1914 
Q 372 2147 372 2553 
Q 372 3047 722 3315 
Q 1072 3584 1716 3584 
Q 2034 3584 2315 3537 
Q 2597 3491 2834 3397 
z
" transform="scale(0.015625)"/>
       </defs>
       <use xlink:href="#DejaVuSans-53"/>
       <use xlink:href="#DejaVuSans-65" x="63.476562"/>
       <use xlink:href="#DejaVuSans-6c" x="125"/>
       <use xlink:href="#DejaVuSans-6c" x="152.783203"/>
       <use xlink:href="#DejaVuSans-65" x="180.566406"/>
       <use xlink:href="#DejaVuSans-72" x="242.089844"/>
       <use xlink:href="#DejaVuSans-73" x="283.203125"/>
      </g>
     </g>
    </g>
    <g id="xtick_2">
     <g id="line2d_2">
      <path d="M 228.96 228.96 
L 118.08 36.910206 
" clip-path="url(#p9f9bf8e348)" style="fill: none; stroke: #b0b0b0; stroke-width: 0.8; stroke-linecap: square"/>
     </g>
     <g id="text_2">
      <!-- Buyers -->
      <g transform="translate(73.030313 30.856476)scale(0.22 -0.22)">
       <defs>
        <path id="DejaVuSans-42" d="M 1259 2228 
L 1259 519 
L 2272 519 
Q 2781 519 3026 730 
Q 3272 941 3272 1375 
Q 3272 1813 3026 2020 
Q 2781 2228 2272 2228 
L 1259 2228 
z
M 1259 4147 
L 1259 2741 
L 2194 2741 
Q 2656 2741 2882 2914 
Q 3109 3088 3109 3444 
Q 3109 3797 2882 3972 
Q 2656 4147 2194 4147 
L 1259 4147 
z
M 628 4666 
L 2241 4666 
Q 2963 4666 3353 4366 
Q 3744 4066 3744 3513 
Q 3744 3084 3544 2831 
Q 3344 2578 2956 2516 
Q 3422 2416 3680 2098 
Q 3938 1781 3938 1306 
Q 3938 681 3513 340 
Q 3088 0 2303 0 
L 628 0 
L 628 4666 
z
" transform="scale(0.015625)"/>
        <path id="DejaVuSans-75" d="M 544 1381 
L 544 3500 
L 1119 3500 
L 1119 1403 
Q 1119 906 1312 657 
Q 1506 409 1894 409 
Q 2359 409 2629 706 
Q 2900 1003 2900 1516 
L 2900 3500 
L 3475 3500 
L 3475 0 
L 2900 0 
L 2900 538 
Q 2691 219 2414 64 
Q 2138 -91 1772 -91 
Q 1169 -91 856 284 
Q 544 659 544 1381 
z
M 1991 3584 
L 1991 3584 
z
" transform="scale(0.015625)"/>
        <path id="DejaVuSans-79" d="M 2059 -325 
Q 1816 -950 1584 -1140 
Q 1353 -1331 966 -1331 
L 506 -1331 
L 506 -850 
L 844 -850 
Q 1081 -850 1212 -737 
Q 1344 -625 1503 -206 
L 1606 56 
L 191 3500 
L 800 3500 
L 1894 763 
L 2988 3500 
L 3597 3500 
L 2059 -325 
z
" transform="scale(0.015625)"/>
       </defs>
       <use xlink:href="#DejaVuSans-42"/>
       <use xlink:href="#DejaVuSans-75" x="68.603516"/>
       <use xlink:href="#DejaVuSans-79" x="131.982422"/>
       <use xlink:href="#DejaVuSans-65" x="191.162109"/>
       <use xlink:href="#DejaVuSans-72" x="252.685547"/>
       <use xlink:href="#DejaVuSans-73" x="293.798828"/>
      </g>
     </g>
    </g>
    <g id="xtick_3">
     <g id="line2d_3">
      <path d="M 228.96 228.96 
L 118.08 421.009794 
" clip-path="url(#p9f9bf8e348)" style="fill: none; stroke: #b0b0b0; stroke-width: 0.8; stroke-linecap: square"/>
     </g>
     <g id="text_3">
      <!-- Arbiter/$\rho$ -->
      <g transform="translate(62.68 439.184149)scale(0.22 -0.22)">
       <defs>
        <path id="DejaVuSans-41" d="M 2188 4044 
L 1331 1722 
L 3047 1722 
L 2188 4044 
z
M 1831 4666 
L 2547 4666 
L 4325 0 
L 3669 0 
L 3244 1197 
L 1141 1197 
L 716 0 
L 50 0 
L 1831 4666 
z
" transform="scale(0.015625)"/>
        <path id="DejaVuSans-62" d="M 3116 1747 
Q 3116 2381 2855 2742 
Q 2594 3103 2138 3103 
Q 1681 3103 1420 2742 
Q 1159 2381 1159 1747 
Q 1159 1113 1420 752 
Q 1681 391 2138 391 
Q 2594 391 2855 752 
Q 3116 1113 3116 1747 
z
M 1159 2969 
Q 1341 3281 1617 3432 
Q 1894 3584 2278 3584 
Q 2916 3584 3314 3078 
Q 3713 2572 3713 1747 
Q 3713 922 3314 415 
Q 2916 -91 2278 -91 
Q 1894 -91 1617 61 
Q 1341 213 1159 525 
L 1159 0 
L 581 0 
L 581 4863 
L 1159 4863 
L 1159 2969 
z
" transform="scale(0.015625)"/>
        <path id="DejaVuSans-69" d="M 603 3500 
L 1178 3500 
L 1178 0 
L 603 0 
L 603 3500 
z
M 603 4863 
L 1178 4863 
L 1178 4134 
L 603 4134 
L 603 4863 
z
" transform="scale(0.015625)"/>
        <path id="DejaVuSans-74" d="M 1172 4494 
L 1172 3500 
L 2356 3500 
L 2356 3053 
L 1172 3053 
L 1172 1153 
Q 1172 725 1289 603 
Q 1406 481 1766 481 
L 2356 481 
L 2356 0 
L 1766 0 
Q 1100 0 847 248 
Q 594 497 594 1153 
L 594 3053 
L 172 3053 
L 172 3500 
L 594 3500 
L 594 4494 
L 1172 4494 
z
" transform="scale(0.015625)"/>
        <path id="DejaVuSans-2f" d="M 1625 4666 
L 2156 4666 
L 531 -594 
L 0 -594 
L 1625 4666 
z
" transform="scale(0.015625)"/>
        <path id="DejaVuSans-Oblique-3c1" d="M 1203 2875 
Q 1453 3194 1981 3475 
Q 2188 3584 2756 3584 
Q 3394 3584 3694 3078 
Q 3994 2572 3834 1747 
Q 3672 922 3175 415 
Q 2678 -91 2041 -91 
Q 1656 -91 1409 63 
Q 1163 213 1044 525 
L 681 -1331 
L 103 -1331 
L 697 1716 
Q 838 2438 1203 2875 
z
M 3238 1747 
Q 3359 2381 3169 2744 
Q 2978 3103 2522 3103 
Q 2066 3103 1734 2744 
Q 1403 2381 1281 1747 
Q 1156 1113 1347 750 
Q 1538 391 1994 391 
Q 2450 391 2781 750 
Q 3113 1113 3238 1747 
z
" transform="scale(0.015625)"/>
       </defs>
       <use xlink:href="#DejaVuSans-41" transform="translate(0 0.015625)"/>
       <use xlink:href="#DejaVuSans-72" transform="translate(68.408203 0.015625)"/>
       <use xlink:href="#DejaVuSans-62" transform="translate(109.521484 0.015625)"/>
       <use xlink:href="#DejaVuSans-69" transform="translate(172.998047 0.015625)"/>
       <use xlink:href="#DejaVuSans-74" transform="translate(200.78125 0.015625)"/>
       <use xlink:href="#DejaVuSans-65" transform="translate(239.990234 0.015625)"/>
       <use xlink:href="#DejaVuSans-72" transform="translate(301.513672 0.015625)"/>
       <use xlink:href="#DejaVuSans-2f" transform="translate(342.626953 0.015625)"/>
       <use xlink:href="#DejaVuSans-Oblique-3c1" transform="translate(376.318359 0.015625)"/>
      </g>
     </g>
    </g>
   </g>
   <g id="matplotlib.axis_2">
    <g id="ytick_1">
     <g id="line2d_4">
      <path d="M 258.590026 228.96 
C 258.590026 225.069021 257.823587 221.215876 256.334574 217.62108 
C 254.845561 214.026284 252.66293 210.759746 249.911592 208.008408 
C 247.160254 205.25707 243.893716 203.074439 240.29892 201.585426 
C 236.704124 200.096413 232.850979 199.329974 228.96 199.329974 
C 225.069021 199.329974 221.215876 200.096413 217.62108 201.585426 
C 214.026284 203.074439 210.759746 205.25707 208.008408 208.008408 
C 205.25707 210.759746 203.074439 214.026284 201.585426 217.62108 
C 200.096413 221.215876 199.329974 225.069021 199.329974 228.96 
C 199.329974 232.850979 200.096413 236.704124 201.585426 240.29892 
C 203.074439 243.893716 205.25707 247.160254 208.008408 249.911592 
C 210.759746 252.66293 214.026284 254.845561 217.62108 256.334574 
C 221.215876 257.823587 225.069021 258.590026 228.96 258.590026 
C 232.850979 258.590026 236.704124 257.823587 240.29892 256.334574 
C 243.893716 254.845561 247.160254 252.66293 249.911592 249.911592 
C 252.66293 247.160254 254.845561 243.893716 256.334574 240.29892 
C 257.823587 236.704124 258.590026 232.850979 258.590026 228.96 
" clip-path="url(#p9f9bf8e348)" style="fill: none; stroke: #b0b0b0; stroke-width: 0.8; stroke-linecap: square"/>
     </g>
     <g id="text_4">
      <!-- 100 -->
      <g transform="translate(256.334574 215.541393)scale(0.1 -0.1)">
       <defs>
        <path id="DejaVuSans-31" d="M 794 531 
L 1825 531 
L 1825 4091 
L 703 3866 
L 703 4441 
L 1819 4666 
L 2450 4666 
L 2450 531 
L 3481 531 
L 3481 0 
L 794 0 
L 794 531 
z
" transform="scale(0.015625)"/>
        <path id="DejaVuSans-30" d="M 2034 4250 
Q 1547 4250 1301 3770 
Q 1056 3291 1056 2328 
Q 1056 1369 1301 889 
Q 1547 409 2034 409 
Q 2525 409 2770 889 
Q 3016 1369 3016 2328 
Q 3016 3291 2770 3770 
Q 2525 4250 2034 4250 
z
M 2034 4750 
Q 2819 4750 3233 4129 
Q 3647 3509 3647 2328 
Q 3647 1150 3233 529 
Q 2819 -91 2034 -91 
Q 1250 -91 836 529 
Q 422 1150 422 2328 
Q 422 3509 836 4129 
Q 1250 4750 2034 4750 
z
" transform="scale(0.015625)"/>
       </defs>
       <use xlink:href="#DejaVuSans-31"/>
       <use xlink:href="#DejaVuSans-30" x="63.623047"/>
       <use xlink:href="#DejaVuSans-30" x="127.246094"/>
      </g>
     </g>
    </g>
    <g id="ytick_2">
     <g id="line2d_5">
      <path d="M 288.220051 228.96 
C 288.220051 221.178041 286.687175 213.471753 283.709148 206.28216 
C 280.731122 199.092568 276.36586 192.559492 270.863184 187.056816 
C 265.360508 181.55414 258.827432 177.188878 251.63784 174.210852 
C 244.448247 171.232825 236.741959 169.699949 228.96 169.699949 
C 221.178041 169.699949 213.471753 171.232825 206.28216 174.210852 
C 199.092568 177.188878 192.559492 181.55414 187.056816 187.056816 
C 181.55414 192.559492 177.188878 199.092568 174.210852 206.28216 
C 171.232825 213.471753 169.699949 221.178041 169.699949 228.96 
C 169.699949 236.741959 171.232825 244.448247 174.210852 251.63784 
C 177.188878 258.827432 181.55414 265.360508 187.056816 270.863184 
C 192.559492 276.36586 199.092568 280.731122 206.28216 283.709148 
C 213.471753 286.687175 221.178041 288.220051 228.96 288.220051 
C 236.741959 288.220051 244.448247 286.687175 251.63784 283.709148 
C 258.827432 280.731122 265.360508 276.36586 270.863184 270.863184 
C 276.36586 265.360508 280.731122 258.827432 283.709148 251.63784 
C 286.687175 244.448247 288.220051 236.741959 288.220051 228.96 
" clip-path="url(#p9f9bf8e348)" style="fill: none; stroke: #b0b0b0; stroke-width: 0.8; stroke-linecap: square"/>
     </g>
     <g id="text_5">
      <!-- 200 -->
      <g transform="translate(283.709148 204.202473)scale(0.1 -0.1)">
       <defs>
        <path id="DejaVuSans-32" d="M 1228 531 
L 3431 531 
L 3431 0 
L 469 0 
L 469 531 
Q 828 903 1448 1529 
Q 2069 2156 2228 2338 
Q 2531 2678 2651 2914 
Q 2772 3150 2772 3378 
Q 2772 3750 2511 3984 
Q 2250 4219 1831 4219 
Q 1534 4219 1204 4116 
Q 875 4013 500 3803 
L 500 4441 
Q 881 4594 1212 4672 
Q 1544 4750 1819 4750 
Q 2544 4750 2975 4387 
Q 3406 4025 3406 3419 
Q 3406 3131 3298 2873 
Q 3191 2616 2906 2266 
Q 2828 2175 2409 1742 
Q 1991 1309 1228 531 
z
" transform="scale(0.015625)"/>
       </defs>
       <use xlink:href="#DejaVuSans-32"/>
       <use xlink:href="#DejaVuSans-30" x="63.623047"/>
       <use xlink:href="#DejaVuSans-30" x="127.246094"/>
      </g>
     </g>
    </g>
    <g id="ytick_3">
     <g id="line2d_6">
      <path d="M 317.850077 228.96 
C 317.850077 217.287062 315.550762 205.727629 311.083722 194.94324 
C 306.616682 184.158852 300.068789 174.359238 291.814776 166.105224 
C 283.560762 157.851211 273.761148 151.303318 262.97676 146.836278 
C 252.192371 142.369238 240.632938 140.069923 228.96 140.069923 
C 217.287062 140.069923 205.727629 142.369238 194.94324 146.836278 
C 184.158852 151.303318 174.359238 157.851211 166.105224 166.105224 
C 157.851211 174.359238 151.303318 184.158852 146.836278 194.94324 
C 142.369238 205.727629 140.069923 217.287062 140.069923 228.96 
C 140.069923 240.632938 142.369238 252.192371 146.836278 262.97676 
C 151.303318 273.761148 157.851211 283.560762 166.105224 291.814776 
C 174.359238 300.068789 184.158852 306.616682 194.94324 311.083722 
C 205.727629 315.550762 217.287062 317.850077 228.96 317.850077 
C 240.632938 317.850077 252.192371 315.550762 262.97676 311.083722 
C 273.761148 306.616682 283.560762 300.068789 291.814776 291.814776 
C 300.068789 283.560762 306.616682 273.761148 311.083722 262.97676 
C 315.550762 252.192371 317.850077 240.632938 317.850077 228.96 
" clip-path="url(#p9f9bf8e348)" style="fill: none; stroke: #b0b0b0; stroke-width: 0.8; stroke-linecap: square"/>
     </g>
     <g id="text_6">
      <!-- 300 -->
      <g transform="translate(311.083722 192.863553)scale(0.1 -0.1)">
       <defs>
        <path id="DejaVuSans-33" d="M 2597 2516 
Q 3050 2419 3304 2112 
Q 3559 1806 3559 1356 
Q 3559 666 3084 287 
Q 2609 -91 1734 -91 
Q 1441 -91 1130 -33 
Q 819 25 488 141 
L 488 750 
Q 750 597 1062 519 
Q 1375 441 1716 441 
Q 2309 441 2620 675 
Q 2931 909 2931 1356 
Q 2931 1769 2642 2001 
Q 2353 2234 1838 2234 
L 1294 2234 
L 1294 2753 
L 1863 2753 
Q 2328 2753 2575 2939 
Q 2822 3125 2822 3475 
Q 2822 3834 2567 4026 
Q 2313 4219 1838 4219 
Q 1578 4219 1281 4162 
Q 984 4106 628 3988 
L 628 4550 
Q 988 4650 1302 4700 
Q 1616 4750 1894 4750 
Q 2613 4750 3031 4423 
Q 3450 4097 3450 3541 
Q 3450 3153 3228 2886 
Q 3006 2619 2597 2516 
z
" transform="scale(0.015625)"/>
       </defs>
       <use xlink:href="#DejaVuSans-33"/>
       <use xlink:href="#DejaVuSans-30" x="63.623047"/>
       <use xlink:href="#DejaVuSans-30" x="127.246094"/>
      </g>
     </g>
    </g>
    <g id="ytick_4">
     <g id="line2d_7">
      <path d="M 347.480102 228.96 
C 347.480102 213.396083 344.41435 197.983505 338.458297 183.604321 
C 332.502243 169.225136 323.771719 156.158984 312.766368 145.153632 
C 301.761016 134.148281 288.694864 125.417757 274.315679 119.461703 
C 259.936495 113.50565 244.523917 110.439898 228.96 110.439898 
C 213.396083 110.439898 197.983505 113.50565 183.604321 119.461703 
C 169.225136 125.417757 156.158984 134.148281 145.153632 145.153632 
C 134.148281 156.158984 125.417757 169.225136 119.461703 183.604321 
C 113.50565 197.983505 110.439898 213.396083 110.439898 228.96 
C 110.439898 244.523917 113.50565 259.936495 119.461703 274.315679 
C 125.417757 288.694864 134.148281 301.761016 145.153632 312.766368 
C 156.158984 323.771719 169.225136 332.502243 183.604321 338.458297 
C 197.983505 344.41435 213.396083 347.480102 228.96 347.480102 
C 244.523917 347.480102 259.936495 344.41435 274.315679 338.458297 
C 288.694864 332.502243 301.761016 323.771719 312.766368 312.766368 
C 323.771719 301.761016 332.502243 288.694864 338.458297 274.315679 
C 344.41435 259.936495 347.480102 244.523917 347.480102 228.96 
" clip-path="url(#p9f9bf8e348)" style="fill: none; stroke: #b0b0b0; stroke-width: 0.8; stroke-linecap: square"/>
     </g>
     <g id="text_7">
      <!-- 400 -->
      <g transform="translate(338.458297 181.524633)scale(0.1 -0.1)">
       <defs>
        <path id="DejaVuSans-34" d="M 2419 4116 
L 825 1625 
L 2419 1625 
L 2419 4116 
z
M 2253 4666 
L 3047 4666 
L 3047 1625 
L 3713 1625 
L 3713 1100 
L 3047 1100 
L 3047 0 
L 2419 0 
L 2419 1100 
L 313 1100 
L 313 1709 
L 2253 4666 
z
" transform="scale(0.015625)"/>
       </defs>
       <use xlink:href="#DejaVuSans-34"/>
       <use xlink:href="#DejaVuSans-30" x="63.623047"/>
       <use xlink:href="#DejaVuSans-30" x="127.246094"/>
      </g>
     </g>
    </g>
    <g id="ytick_5">
     <g id="line2d_8">
      <path d="M 377.110128 228.96 
C 377.110128 209.505103 373.277937 190.239381 365.832871 172.265401 
C 358.387804 154.29142 347.474649 137.958729 333.71796 124.20204 
C 319.961271 110.445351 303.62858 99.532196 285.654599 92.087129 
C 267.680619 84.642063 248.414897 80.809872 228.96 80.809872 
C 209.505103 80.809872 190.239381 84.642063 172.265401 92.087129 
C 154.29142 99.532196 137.958729 110.445351 124.20204 124.20204 
C 110.445351 137.958729 99.532196 154.29142 92.087129 172.265401 
C 84.642063 190.239381 80.809872 209.505103 80.809872 228.96 
C 80.809872 248.414897 84.642063 267.680619 92.087129 285.654599 
C 99.532196 303.62858 110.445351 319.961271 124.20204 333.71796 
C 137.958729 347.474649 154.29142 358.387804 172.265401 365.832871 
C 190.239381 373.277937 209.505103 377.110128 228.96 377.110128 
C 248.414897 377.110128 267.680619 373.277937 285.654599 365.832871 
C 303.62858 358.387804 319.961271 347.474649 333.71796 333.71796 
C 347.474649 319.961271 358.387804 303.62858 365.832871 285.654599 
C 373.277937 267.680619 377.110128 248.414897 377.110128 228.96 
" clip-path="url(#p9f9bf8e348)" style="fill: none; stroke: #b0b0b0; stroke-width: 0.8; stroke-linecap: square"/>
     </g>
     <g id="text_8">
      <!-- 500 -->
      <g transform="translate(365.832871 170.185713)scale(0.1 -0.1)">
       <defs>
        <path id="DejaVuSans-35" d="M 691 4666 
L 3169 4666 
L 3169 4134 
L 1269 4134 
L 1269 2991 
Q 1406 3038 1543 3061 
Q 1681 3084 1819 3084 
Q 2600 3084 3056 2656 
Q 3513 2228 3513 1497 
Q 3513 744 3044 326 
Q 2575 -91 1722 -91 
Q 1428 -91 1123 -41 
Q 819 9 494 109 
L 494 744 
Q 775 591 1075 516 
Q 1375 441 1709 441 
Q 2250 441 2565 725 
Q 2881 1009 2881 1497 
Q 2881 1984 2565 2268 
Q 2250 2553 1709 2553 
Q 1456 2553 1204 2497 
Q 953 2441 691 2322 
L 691 4666 
z
" transform="scale(0.015625)"/>
       </defs>
       <use xlink:href="#DejaVuSans-35"/>
       <use xlink:href="#DejaVuSans-30" x="63.623047"/>
       <use xlink:href="#DejaVuSans-30" x="127.246094"/>
      </g>
     </g>
    </g>
    <g id="ytick_6">
     <g id="line2d_9">
      <path d="M 406.740153 228.96 
C 406.740153 205.614124 402.141525 182.495258 393.207445 160.926481 
C 384.273365 139.357704 371.177579 119.758475 354.669552 103.250448 
C 338.161525 86.742421 318.562296 73.646635 296.993519 64.712555 
C 275.424742 55.778475 252.305876 51.179847 228.96 51.179847 
C 205.614124 51.179847 182.495258 55.778475 160.926481 64.712555 
C 139.357704 73.646635 119.758475 86.742421 103.250448 103.250448 
C 86.742421 119.758475 73.646635 139.357704 64.712555 160.926481 
C 55.778475 182.495258 51.179847 205.614124 51.179847 228.96 
C 51.179847 252.305876 55.778475 275.424742 64.712555 296.993519 
C 73.646635 318.562296 86.742421 338.161525 103.250448 354.669552 
C 119.758475 371.177579 139.357704 384.273365 160.926481 393.207445 
C 182.495258 402.141525 205.614124 406.740153 228.96 406.740153 
C 252.305876 406.740153 275.424742 402.141525 296.993519 393.207445 
C 318.562296 384.273365 338.161525 371.177579 354.669552 354.669552 
C 371.177579 338.161525 384.273365 318.562296 393.207445 296.993519 
C 402.141525 275.424742 406.740153 252.305876 406.740153 228.96 
" clip-path="url(#p9f9bf8e348)" style="fill: none; stroke: #b0b0b0; stroke-width: 0.8; stroke-linecap: square"/>
     </g>
     <g id="text_9">
      <!-- 600 -->
      <g transform="translate(393.207445 158.846793)scale(0.1 -0.1)">
       <defs>
        <path id="DejaVuSans-36" d="M 2113 2584 
Q 1688 2584 1439 2293 
Q 1191 2003 1191 1497 
Q 1191 994 1439 701 
Q 1688 409 2113 409 
Q 2538 409 2786 701 
Q 3034 994 3034 1497 
Q 3034 2003 2786 2293 
Q 2538 2584 2113 2584 
z
M 3366 4563 
L 3366 3988 
Q 3128 4100 2886 4159 
Q 2644 4219 2406 4219 
Q 1781 4219 1451 3797 
Q 1122 3375 1075 2522 
Q 1259 2794 1537 2939 
Q 1816 3084 2150 3084 
Q 2853 3084 3261 2657 
Q 3669 2231 3669 1497 
Q 3669 778 3244 343 
Q 2819 -91 2113 -91 
Q 1303 -91 875 529 
Q 447 1150 447 2328 
Q 447 3434 972 4092 
Q 1497 4750 2381 4750 
Q 2619 4750 2861 4703 
Q 3103 4656 3366 4563 
z
" transform="scale(0.015625)"/>
       </defs>
       <use xlink:href="#DejaVuSans-36"/>
       <use xlink:href="#DejaVuSans-30" x="63.623047"/>
       <use xlink:href="#DejaVuSans-30" x="127.246094"/>
      </g>
     </g>
    </g>
    <g id="ytick_7">
     <g id="line2d_10">
      <path d="M 436.370179 228.96 
C 436.370179 201.723145 431.005112 174.751134 420.582019 149.587561 
C 410.158926 124.423988 394.880509 101.558221 375.621144 82.298856 
C 356.361779 63.039491 333.496012 47.761074 308.332439 37.337981 
C 283.168866 26.914888 256.196855 21.549821 228.96 21.549821 
C 201.723145 21.549821 174.751134 26.914888 149.587561 37.337981 
C 124.423988 47.761074 101.558221 63.039491 82.298856 82.298856 
C 63.039491 101.558221 47.761074 124.423988 37.337981 149.587561 
C 26.914888 174.751134 21.549821 201.723145 21.549821 228.96 
C 21.549821 256.196855 26.914888 283.168866 37.337981 308.332439 
C 47.761074 333.496012 63.039491 356.361779 82.298856 375.621144 
C 101.558221 394.880509 124.423988 410.158926 149.587561 420.582019 
C 174.751134 431.005112 201.723145 436.370179 228.96 436.370179 
C 256.196855 436.370179 283.168866 431.005112 308.332439 420.582019 
C 333.496012 410.158926 356.361779 394.880509 375.621144 375.621144 
C 394.880509 356.361779 410.158926 333.496012 420.582019 308.332439 
C 431.005112 283.168866 436.370179 256.196855 436.370179 228.96 
" clip-path="url(#p9f9bf8e348)" style="fill: none; stroke: #b0b0b0; stroke-width: 0.8; stroke-linecap: square"/>
     </g>
     <g id="text_10">
      <!-- 700 -->
      <g transform="translate(420.582019 147.507873)scale(0.1 -0.1)">
       <defs>
        <path id="DejaVuSans-37" d="M 525 4666 
L 3525 4666 
L 3525 4397 
L 1831 0 
L 1172 0 
L 2766 4134 
L 525 4134 
L 525 4666 
z
" transform="scale(0.015625)"/>
       </defs>
       <use xlink:href="#DejaVuSans-37"/>
       <use xlink:href="#DejaVuSans-30" x="63.623047"/>
       <use xlink:href="#DejaVuSans-30" x="127.246094"/>
      </g>
     </g>
    </g>
   </g>
   <g id="line2d_11">
    <path d="M 424.897433 228.96 
L 159.268698 108.251125 
L 130.795725 398.985511 
L 424.897433 228.96 
" clip-path="url(#p9f9bf8e348)" style="fill: none; stroke: #0000ff; stroke-width: 2; stroke-linecap: square"/>
   </g>
   <g id="line2d_12">
    <path d="M 389.341402 228.96 
L 174.018525 133.798574 
L 151.003403 363.984787 
L 389.341402 228.96 
" clip-path="url(#p9f9bf8e348)" style="fill: none; stroke: #008dda; stroke-width: 2; stroke-linecap: square"/>
   </g>
   <g id="line2d_13">
    <path d="M 355.88614 228.96 
L 128.151246 54.354116 
L 165.208037 339.381639 
L 355.88614 228.96 
" clip-path="url(#p9f9bf8e348)" style="fill: none; stroke: #008000; stroke-width: 2; stroke-linecap: square"/>
   </g>
   <g id="line2d_14">
    <path d="M 343.924499 228.96 
L 120.743739 41.523938 
L 171.134042 329.117497 
L 343.924499 228.96 
" clip-path="url(#p9f9bf8e348)" style="fill: none; stroke: #ffa500; stroke-width: 2; stroke-linecap: square"/>
   </g>
   <g id="line2d_15">
    <path d="M 395.356297 228.96 
L 141.425497 77.345794 
L 145.788518 373.017232 
L 395.356297 228.96 
" clip-path="url(#p9f9bf8e348)" style="fill: none; stroke: #ff0000; stroke-width: 2; stroke-linecap: square"/>
   </g>
   <g id="patch_8">
    <path d="M 450.72 228.96 
C 450.72 199.838744 444.983747 171.000655 433.839525 144.096122 
C 422.695303 117.191589 406.359838 92.743838 385.768 72.152 
C 365.176162 51.560162 340.728411 35.224697 313.823878 24.080475 
C 286.919345 12.936253 258.081256 7.2 228.96 7.2 
C 199.838744 7.2 171.000655 12.936253 144.096122 24.080475 
C 117.191589 35.224697 92.743838 51.560162 72.152 72.152 
C 51.560162 92.743838 35.224697 117.191589 24.080475 144.096122 
C 12.936253 171.000655 7.2 199.838744 7.2 228.96 
C 7.2 258.081256 12.936253 286.919345 24.080475 313.823878 
C 35.224697 340.728411 51.560162 365.176162 72.152 385.768 
C 92.743838 406.359838 117.191589 422.695303 144.096122 433.839525 
C 171.000655 444.983747 199.838744 450.72 228.96 450.72 
C 258.081256 450.72 286.919345 444.983747 313.823878 433.839525 
C 340.728411 422.695303 365.176162 406.359838 385.768 385.768 
C 406.359838 365.176162 422.695303 340.728411 433.839525 313.823878 
C 444.983747 286.919345 450.72 258.081256 450.72 228.96 
" style="fill: none; stroke: #000000; stroke-width: 0.8; stroke-linejoin: miter; stroke-linecap: square"/>
   </g>
  </g>
 </g>
 <defs>
  <clipPath id="p9f9bf8e348">
   <path d="M 450.72 228.96 
C 450.72 199.838744 444.983747 171.000655 433.839525 144.096122 
C 422.695303 117.191589 406.359838 92.743838 385.768 72.152 
C 365.176162 51.560162 340.728411 35.224697 313.823878 24.080475 
C 286.919345 12.936253 258.081256 7.2 228.96 7.2 
C 199.838744 7.2 171.000655 12.936253 144.096122 24.080475 
C 117.191589 35.224697 92.743838 51.560162 72.152 72.152 
C 51.560162 92.743838 35.224697 117.191589 24.080475 144.096122 
C 12.936253 171.000655 7.2 199.838744 7.2 228.96 
C 7.2 258.081256 12.936253 286.919345 24.080475 313.823878 
C 35.224697 340.728411 51.560162 365.176162 72.152 385.768 
C 92.743838 406.359838 117.191589 422.695303 144.096122 433.839525 
C 171.000655 444.983747 199.838744 450.72 228.96 450.72 
C 258.081256 450.72 286.919345 444.983747 313.823878 433.839525 
C 340.728411 422.695303 365.176162 406.359838 385.768 385.768 
C 406.359838 365.176162 422.695303 340.728411 433.839525 313.823878 
C 444.983747 286.919345 450.72 258.081256 450.72 228.96 
M 228.96 228.96 
C 228.96 228.96 228.96 228.96 228.96 228.96 
C 228.96 228.96 228.96 228.96 228.96 228.96 
C 228.96 228.96 228.96 228.96 228.96 228.96 
C 228.96 228.96 228.96 228.96 228.96 228.96 
C 228.96 228.96 228.96 228.96 228.96 228.96 
C 228.96 228.96 228.96 228.96 228.96 228.96 
C 228.96 228.96 228.96 228.96 228.96 228.96 
C 228.96 228.96 228.96 228.96 228.96 228.96 
C 228.96 228.96 228.96 228.96 228.96 228.96 
C 228.96 228.96 228.96 228.96 228.96 228.96 
C 228.96 228.96 228.96 228.96 228.96 228.96 
C 228.96 228.96 228.96 228.96 228.96 228.96 
C 228.96 228.96 228.96 228.96 228.96 228.96 
C 228.96 228.96 228.96 228.96 228.96 228.96 
C 228.96 228.96 228.96 228.96 228.96 228.96 
C 228.96 228.96 228.96 228.96 228.96 228.96 
M 450.72 228.96 
z
"/>
  </clipPath>
 </defs>
</svg>
