<?xml version="1.0" encoding="utf-8" standalone="no"?>
<!DOCTYPE svg PUBLIC "-//W3C//DTD SVG 1.1//EN"
  "http://www.w3.org/Graphics/SVG/1.1/DTD/svg11.dtd">
<svg xmlns:xlink="http://www.w3.org/1999/xlink" width="508.804375pt" height="457.92pt" viewBox="0 0 508.804375 457.92" xmlns="http://www.w3.org/2000/svg" version="1.1">
 <metadata>
  <rdf:RDF xmlns:dc="http://purl.org/dc/elements/1.1/" xmlns:cc="http://creativecommons.org/ns#" xmlns:rdf="http://www.w3.org/1999/02/22-rdf-syntax-ns#">
   <cc:Work>
    <dc:type rdf:resource="http://purl.org/dc/dcmitype/StillImage"/>
    <dc:date>2024-03-19T14:40:09.494263</dc:date>
    <dc:format>image/svg+xml</dc:format>
    <dc:creator>
     <cc:Agent>
      <dc:title>Matplotlib v3.5.3, https://matplotlib.org/</dc:title>
     </cc:Agent>
    </dc:creator>
   </cc:Work>
  </rdf:RDF>
 </metadata>
 <defs>
  <style type="text/css">*{stroke-linejoin: round; stroke-linecap: butt}</style>
 </defs>
 <g id="figure_1">
  <g id="patch_1">
   <path d="M 0 457.92 
L 508.804375 457.92 
L 508.804375 0 
L 0 0 
z
" style="fill: #ffffff"/>
  </g>
  <g id="axes_1">
   <g id="patch_2">
    <path d="M 450.72 228.96 
C 450.72 199.838744 444.983747 171.000655 433.839525 144.096122 
C 422.695303 117.191589 406.359838 92.743838 385.768 72.152 
C 365.176162 51.560162 340.728411 35.224697 313.823878 24.080475 
C 286.919345 12.936253 258.081256 7.2 228.96 7.2 
C 199.838744 7.2 171.000655 12.936253 144.096122 24.080475 
C 117.191589 35.224697 92.743838 51.560162 72.152 72.152 
C 51.560162 92.743838 35.224697 117.191589 24.080475 144.096122 
C 12.936253 171.000655 7.2 199.838744 7.2 228.96 
C 7.2 258.081256 12.936253 286.919345 24.080475 313.823878 
C 35.224697 340.728411 51.560162 365.176162 72.152 385.768 
C 92.743838 406.359838 117.191589 422.695303 144.096122 433.839525 
C 171.000655 444.983747 199.838744 450.72 228.96 450.72 
C 258.081256 450.72 286.919345 444.983747 313.823878 433.839525 
C 340.728411 422.695303 365.176162 406.359838 385.768 385.768 
C 406.359838 365.176162 422.695303 340.728411 433.839525 313.823878 
C 444.983747 286.919345 450.72 258.081256 450.72 228.96 
M 228.96 228.96 
C 228.96 228.96 228.96 228.96 228.96 228.96 
C 228.96 228.96 228.96 228.96 228.96 228.96 
C 228.96 228.96 228.96 228.96 228.96 228.96 
C 228.96 228.96 228.96 228.96 228.96 228.96 
C 228.96 228.96 228.96 228.96 228.96 228.96 
C 228.96 228.96 228.96 228.96 228.96 228.96 
C 228.96 228.96 228.96 228.96 228.96 228.96 
C 228.96 228.96 228.96 228.96 228.96 228.96 
C 228.96 228.96 228.96 228.96 228.96 228.96 
C 228.96 228.96 228.96 228.96 228.96 228.96 
C 228.96 228.96 228.96 228.96 228.96 228.96 
C 228.96 228.96 228.96 228.96 228.96 228.96 
C 228.96 228.96 228.96 228.96 228.96 228.96 
C 228.96 228.96 228.96 228.96 228.96 228.96 
C 228.96 228.96 228.96 228.96 228.96 228.96 
C 228.96 228.96 228.96 228.96 228.96 228.96 
M 450.72 228.96 
z
" style="fill: #ffffff"/>
   </g>
   <g id="patch_3">
    <path d="M 434.287842 228.96 
L 156.681712 103.770332 
L 125.557953 408.057598 
z
" clip-path="url(#p4fdb820d5f)" style="fill: #0000ff; opacity: 0.25; stroke: #0000ff; stroke-linejoin: miter"/>
   </g>
   <g id="patch_4">
    <path d="M 356.929702 228.96 
L 152.842814 97.121166 
L 163.682623 342.023733 
z
" clip-path="url(#p4fdb820d5f)" style="fill: #008dda; opacity: 0.25; stroke: #008dda; stroke-linejoin: miter"/>
   </g>
   <g id="patch_5">
    <path d="M 435.248372 228.96 
L 178.999535 142.425936 
L 125.815814 407.610971 
z
" clip-path="url(#p4fdb820d5f)" style="fill: #008000; opacity: 0.25; stroke: #008000; stroke-linejoin: miter"/>
   </g>
   <g id="patch_6">
    <path d="M 332.104186 228.96 
L 120.98093 41.934765 
L 177.387907 318.285485 
z
" clip-path="url(#p4fdb820d5f)" style="fill: #ffa500; opacity: 0.25; stroke: #ffa500; stroke-linejoin: miter"/>
   </g>
   <g id="patch_7">
    <path d="M 392.385516 228.96 
L 138.309153 71.948128 
L 148.546214 368.240763 
z
" clip-path="url(#p4fdb820d5f)" style="fill: #ff0000; opacity: 0.25; stroke: #ff0000; stroke-linejoin: miter"/>
   </g>
   <g id="matplotlib.axis_1">
    <g id="xtick_1">
     <g id="line2d_1">
      <path d="M 228.96 228.96 
L 450.72 228.96 
" clip-path="url(#p4fdb820d5f)" style="fill: none; stroke: #b0b0b0; stroke-width: 0.8; stroke-linecap: square"/>
     </g>
     <g id="text_1">
      <!-- Sellers -->
      <g transform="translate(427.835625 235.030625)scale(0.22 -0.22)">
       <defs>
        <path id="DejaVuSans-53" d="M 3425 4513 
L 3425 3897 
Q 3066 4069 2747 4153 
Q 2428 4238 2131 4238 
Q 1616 4238 1336 4038 
Q 1056 3838 1056 3469 
Q 1056 3159 1242 3001 
Q 1428 2844 1947 2747 
L 2328 2669 
Q 3034 2534 3370 2195 
Q 3706 1856 3706 1288 
Q 3706 609 3251 259 
Q 2797 -91 1919 -91 
Q 1588 -91 1214 -16 
Q 841 59 441 206 
L 441 856 
Q 825 641 1194 531 
Q 1563 422 1919 422 
Q 2459 422 2753 634 
Q 3047 847 3047 1241 
Q 3047 1584 2836 1778 
Q 2625 1972 2144 2069 
L 1759 2144 
Q 1053 2284 737 2584 
Q 422 2884 422 3419 
Q 422 4038 858 4394 
Q 1294 4750 2059 4750 
Q 2388 4750 2728 4690 
Q 3069 4631 3425 4513 
z
" transform="scale(0.015625)"/>
        <path id="DejaVuSans-65" d="M 3597 1894 
L 3597 1613 
L 953 1613 
Q 991 1019 1311 708 
Q 1631 397 2203 397 
Q 2534 397 2845 478 
Q 3156 559 3463 722 
L 3463 178 
Q 3153 47 2828 -22 
Q 2503 -91 2169 -91 
Q 1331 -91 842 396 
Q 353 884 353 1716 
Q 353 2575 817 3079 
Q 1281 3584 2069 3584 
Q 2775 3584 3186 3129 
Q 3597 2675 3597 1894 
z
M 3022 2063 
Q 3016 2534 2758 2815 
Q 2500 3097 2075 3097 
Q 1594 3097 1305 2825 
Q 1016 2553 972 2059 
L 3022 2063 
z
" transform="scale(0.015625)"/>
        <path id="DejaVuSans-6c" d="M 603 4863 
L 1178 4863 
L 1178 0 
L 603 0 
L 603 4863 
z
" transform="scale(0.015625)"/>
        <path id="DejaVuSans-72" d="M 2631 2963 
Q 2534 3019 2420 3045 
Q 2306 3072 2169 3072 
Q 1681 3072 1420 2755 
Q 1159 2438 1159 1844 
L 1159 0 
L 581 0 
L 581 3500 
L 1159 3500 
L 1159 2956 
Q 1341 3275 1631 3429 
Q 1922 3584 2338 3584 
Q 2397 3584 2469 3576 
Q 2541 3569 2628 3553 
L 2631 2963 
z
" transform="scale(0.015625)"/>
        <path id="DejaVuSans-73" d="M 2834 3397 
L 2834 2853 
Q 2591 2978 2328 3040 
Q 2066 3103 1784 3103 
Q 1356 3103 1142 2972 
Q 928 2841 928 2578 
Q 928 2378 1081 2264 
Q 1234 2150 1697 2047 
L 1894 2003 
Q 2506 1872 2764 1633 
Q 3022 1394 3022 966 
Q 3022 478 2636 193 
Q 2250 -91 1575 -91 
Q 1294 -91 989 -36 
Q 684 19 347 128 
L 347 722 
Q 666 556 975 473 
Q 1284 391 1588 391 
Q 1994 391 2212 530 
Q 2431 669 2431 922 
Q 2431 1156 2273 1281 
Q 2116 1406 1581 1522 
L 1381 1569 
Q 847 1681 609 1914 
Q 372 2147 372 2553 
Q 372 3047 722 3315 
Q 1072 3584 1716 3584 
Q 2034 3584 2315 3537 
Q 2597 3491 2834 3397 
z
" transform="scale(0.015625)"/>
       </defs>
       <use xlink:href="#DejaVuSans-53"/>
       <use xlink:href="#DejaVuSans-65" x="63.476562"/>
       <use xlink:href="#DejaVuSans-6c" x="125"/>
       <use xlink:href="#DejaVuSans-6c" x="152.783203"/>
       <use xlink:href="#DejaVuSans-65" x="180.566406"/>
       <use xlink:href="#DejaVuSans-72" x="242.089844"/>
       <use xlink:href="#DejaVuSans-73" x="283.203125"/>
      </g>
     </g>
    </g>
    <g id="xtick_2">
     <g id="line2d_2">
      <path d="M 228.96 228.96 
L 118.08 36.910206 
" clip-path="url(#p4fdb820d5f)" style="fill: none; stroke: #b0b0b0; stroke-width: 0.8; stroke-linecap: square"/>
     </g>
     <g id="text_2">
      <!-- Buyers -->
      <g transform="translate(73.030313 30.856476)scale(0.22 -0.22)">
       <defs>
        <path id="DejaVuSans-42" d="M 1259 2228 
L 1259 519 
L 2272 519 
Q 2781 519 3026 730 
Q 3272 941 3272 1375 
Q 3272 1813 3026 2020 
Q 2781 2228 2272 2228 
L 1259 2228 
z
M 1259 4147 
L 1259 2741 
L 2194 2741 
Q 2656 2741 2882 2914 
Q 3109 3088 3109 3444 
Q 3109 3797 2882 3972 
Q 2656 4147 2194 4147 
L 1259 4147 
z
M 628 4666 
L 2241 4666 
Q 2963 4666 3353 4366 
Q 3744 4066 3744 3513 
Q 3744 3084 3544 2831 
Q 3344 2578 2956 2516 
Q 3422 2416 3680 2098 
Q 3938 1781 3938 1306 
Q 3938 681 3513 340 
Q 3088 0 2303 0 
L 628 0 
L 628 4666 
z
" transform="scale(0.015625)"/>
        <path id="DejaVuSans-75" d="M 544 1381 
L 544 3500 
L 1119 3500 
L 1119 1403 
Q 1119 906 1312 657 
Q 1506 409 1894 409 
Q 2359 409 2629 706 
Q 2900 1003 2900 1516 
L 2900 3500 
L 3475 3500 
L 3475 0 
L 2900 0 
L 2900 538 
Q 2691 219 2414 64 
Q 2138 -91 1772 -91 
Q 1169 -91 856 284 
Q 544 659 544 1381 
z
M 1991 3584 
L 1991 3584 
z
" transform="scale(0.015625)"/>
        <path id="DejaVuSans-79" d="M 2059 -325 
Q 1816 -950 1584 -1140 
Q 1353 -1331 966 -1331 
L 506 -1331 
L 506 -850 
L 844 -850 
Q 1081 -850 1212 -737 
Q 1344 -625 1503 -206 
L 1606 56 
L 191 3500 
L 800 3500 
L 1894 763 
L 2988 3500 
L 3597 3500 
L 2059 -325 
z
" transform="scale(0.015625)"/>
       </defs>
       <use xlink:href="#DejaVuSans-42"/>
       <use xlink:href="#DejaVuSans-75" x="68.603516"/>
       <use xlink:href="#DejaVuSans-79" x="131.982422"/>
       <use xlink:href="#DejaVuSans-65" x="191.162109"/>
       <use xlink:href="#DejaVuSans-72" x="252.685547"/>
       <use xlink:href="#DejaVuSans-73" x="293.798828"/>
      </g>
     </g>
    </g>
    <g id="xtick_3">
     <g id="line2d_3">
      <path d="M 228.96 228.96 
L 118.08 421.009794 
" clip-path="url(#p4fdb820d5f)" style="fill: none; stroke: #b0b0b0; stroke-width: 0.8; stroke-linecap: square"/>
     </g>
     <g id="text_3">
      <!-- Arbiter/$\rho$ -->
      <g transform="translate(62.68 439.184149)scale(0.22 -0.22)">
       <defs>
        <path id="DejaVuSans-41" d="M 2188 4044 
L 1331 1722 
L 3047 1722 
L 2188 4044 
z
M 1831 4666 
L 2547 4666 
L 4325 0 
L 3669 0 
L 3244 1197 
L 1141 1197 
L 716 0 
L 50 0 
L 1831 4666 
z
" transform="scale(0.015625)"/>
        <path id="DejaVuSans-62" d="M 3116 1747 
Q 3116 2381 2855 2742 
Q 2594 3103 2138 3103 
Q 1681 3103 1420 2742 
Q 1159 2381 1159 1747 
Q 1159 1113 1420 752 
Q 1681 391 2138 391 
Q 2594 391 2855 752 
Q 3116 1113 3116 1747 
z
M 1159 2969 
Q 1341 3281 1617 3432 
Q 1894 3584 2278 3584 
Q 2916 3584 3314 3078 
Q 3713 2572 3713 1747 
Q 3713 922 3314 415 
Q 2916 -91 2278 -91 
Q 1894 -91 1617 61 
Q 1341 213 1159 525 
L 1159 0 
L 581 0 
L 581 4863 
L 1159 4863 
L 1159 2969 
z
" transform="scale(0.015625)"/>
        <path id="DejaVuSans-69" d="M 603 3500 
L 1178 3500 
L 1178 0 
L 603 0 
L 603 3500 
z
M 603 4863 
L 1178 4863 
L 1178 4134 
L 603 4134 
L 603 4863 
z
" transform="scale(0.015625)"/>
        <path id="DejaVuSans-74" d="M 1172 4494 
L 1172 3500 
L 2356 3500 
L 2356 3053 
L 1172 3053 
L 1172 1153 
Q 1172 725 1289 603 
Q 1406 481 1766 481 
L 2356 481 
L 2356 0 
L 1766 0 
Q 1100 0 847 248 
Q 594 497 594 1153 
L 594 3053 
L 172 3053 
L 172 3500 
L 594 3500 
L 594 4494 
L 1172 4494 
z
" transform="scale(0.015625)"/>
        <path id="DejaVuSans-2f" d="M 1625 4666 
L 2156 4666 
L 531 -594 
L 0 -594 
L 1625 4666 
z
" transform="scale(0.015625)"/>
        <path id="DejaVuSans-Oblique-3c1" d="M 1203 2875 
Q 1453 3194 1981 3475 
Q 2188 3584 2756 3584 
Q 3394 3584 3694 3078 
Q 3994 2572 3834 1747 
Q 3672 922 3175 415 
Q 2678 -91 2041 -91 
Q 1656 -91 1409 63 
Q 1163 213 1044 525 
L 681 -1331 
L 103 -1331 
L 697 1716 
Q 838 2438 1203 2875 
z
M 3238 1747 
Q 3359 2381 3169 2744 
Q 2978 3103 2522 3103 
Q 2066 3103 1734 2744 
Q 1403 2381 1281 1747 
Q 1156 1113 1347 750 
Q 1538 391 1994 391 
Q 2450 391 2781 750 
Q 3113 1113 3238 1747 
z
" transform="scale(0.015625)"/>
       </defs>
       <use xlink:href="#DejaVuSans-41" transform="translate(0 0.015625)"/>
       <use xlink:href="#DejaVuSans-72" transform="translate(68.408203 0.015625)"/>
       <use xlink:href="#DejaVuSans-62" transform="translate(109.521484 0.015625)"/>
       <use xlink:href="#DejaVuSans-69" transform="translate(172.998047 0.015625)"/>
       <use xlink:href="#DejaVuSans-74" transform="translate(200.78125 0.015625)"/>
       <use xlink:href="#DejaVuSans-65" transform="translate(239.990234 0.015625)"/>
       <use xlink:href="#DejaVuSans-72" transform="translate(301.513672 0.015625)"/>
       <use xlink:href="#DejaVuSans-2f" transform="translate(342.626953 0.015625)"/>
       <use xlink:href="#DejaVuSans-Oblique-3c1" transform="translate(376.318359 0.015625)"/>
      </g>
     </g>
    </g>
   </g>
   <g id="matplotlib.axis_2">
    <g id="ytick_1">
     <g id="line2d_4">
      <path d="M 261.192558 228.96 
C 261.192558 224.727259 260.358801 220.535677 258.739001 216.625134 
C 257.119201 212.714591 254.74486 209.161139 251.75186 206.16814 
C 248.758861 203.17514 245.205409 200.800799 241.294866 199.180999 
C 237.384323 197.561199 233.192741 196.727442 228.96 196.727442 
C 224.727259 196.727442 220.535677 197.561199 216.625134 199.180999 
C 212.714591 200.800799 209.161139 203.17514 206.16814 206.16814 
C 203.17514 209.161139 200.800799 212.714591 199.180999 216.625134 
C 197.561199 220.535677 196.727442 224.727259 196.727442 228.96 
C 196.727442 233.192741 197.561199 237.384323 199.180999 241.294866 
C 200.800799 245.205409 203.17514 248.758861 206.16814 251.75186 
C 209.161139 254.74486 212.714591 257.119201 216.625134 258.739001 
C 220.535677 260.358801 224.727259 261.192558 228.96 261.192558 
C 233.192741 261.192558 237.384323 260.358801 241.294866 258.739001 
C 245.205409 257.119201 248.758861 254.74486 251.75186 251.75186 
C 254.74486 248.758861 257.119201 245.205409 258.739001 241.294866 
C 260.358801 237.384323 261.192558 233.192741 261.192558 228.96 
" clip-path="url(#p4fdb820d5f)" style="fill: none; stroke: #b0b0b0; stroke-width: 0.8; stroke-linecap: square"/>
     </g>
     <g id="text_4">
      <!-- 50 -->
      <g transform="translate(258.739001 214.545447)scale(0.1 -0.1)">
       <defs>
        <path id="DejaVuSans-35" d="M 691 4666 
L 3169 4666 
L 3169 4134 
L 1269 4134 
L 1269 2991 
Q 1406 3038 1543 3061 
Q 1681 3084 1819 3084 
Q 2600 3084 3056 2656 
Q 3513 2228 3513 1497 
Q 3513 744 3044 326 
Q 2575 -91 1722 -91 
Q 1428 -91 1123 -41 
Q 819 9 494 109 
L 494 744 
Q 775 591 1075 516 
Q 1375 441 1709 441 
Q 2250 441 2565 725 
Q 2881 1009 2881 1497 
Q 2881 1984 2565 2268 
Q 2250 2553 1709 2553 
Q 1456 2553 1204 2497 
Q 953 2441 691 2322 
L 691 4666 
z
" transform="scale(0.015625)"/>
        <path id="DejaVuSans-30" d="M 2034 4250 
Q 1547 4250 1301 3770 
Q 1056 3291 1056 2328 
Q 1056 1369 1301 889 
Q 1547 409 2034 409 
Q 2525 409 2770 889 
Q 3016 1369 3016 2328 
Q 3016 3291 2770 3770 
Q 2525 4250 2034 4250 
z
M 2034 4750 
Q 2819 4750 3233 4129 
Q 3647 3509 3647 2328 
Q 3647 1150 3233 529 
Q 2819 -91 2034 -91 
Q 1250 -91 836 529 
Q 422 1150 422 2328 
Q 422 3509 836 4129 
Q 1250 4750 2034 4750 
z
" transform="scale(0.015625)"/>
       </defs>
       <use xlink:href="#DejaVuSans-35"/>
       <use xlink:href="#DejaVuSans-30" x="63.623047"/>
      </g>
     </g>
    </g>
    <g id="ytick_2">
     <g id="line2d_5">
      <path d="M 293.425116 228.96 
C 293.425116 220.494518 291.757601 212.111353 288.518001 204.290268 
C 285.278402 196.469183 280.52972 189.362279 274.543721 183.376279 
C 268.557721 177.39028 261.450817 172.641598 253.629732 169.401999 
C 245.808647 166.162399 237.425482 164.494884 228.96 164.494884 
C 220.494518 164.494884 212.111353 166.162399 204.290268 169.401999 
C 196.469183 172.641598 189.362279 177.39028 183.376279 183.376279 
C 177.39028 189.362279 172.641598 196.469183 169.401999 204.290268 
C 166.162399 212.111353 164.494884 220.494518 164.494884 228.96 
C 164.494884 237.425482 166.162399 245.808647 169.401999 253.629732 
C 172.641598 261.450817 177.39028 268.557721 183.376279 274.543721 
C 189.362279 280.52972 196.469183 285.278402 204.290268 288.518001 
C 212.111353 291.757601 220.494518 293.425116 228.96 293.425116 
C 237.425482 293.425116 245.808647 291.757601 253.629732 288.518001 
C 261.450817 285.278402 268.557721 280.52972 274.543721 274.543721 
C 280.52972 268.557721 285.278402 261.450817 288.518001 253.629732 
C 291.757601 245.808647 293.425116 237.425482 293.425116 228.96 
" clip-path="url(#p4fdb820d5f)" style="fill: none; stroke: #b0b0b0; stroke-width: 0.8; stroke-linecap: square"/>
     </g>
     <g id="text_5">
      <!-- 100 -->
      <g transform="translate(288.518001 202.210581)scale(0.1 -0.1)">
       <defs>
        <path id="DejaVuSans-31" d="M 794 531 
L 1825 531 
L 1825 4091 
L 703 3866 
L 703 4441 
L 1819 4666 
L 2450 4666 
L 2450 531 
L 3481 531 
L 3481 0 
L 794 0 
L 794 531 
z
" transform="scale(0.015625)"/>
       </defs>
       <use xlink:href="#DejaVuSans-31"/>
       <use xlink:href="#DejaVuSans-30" x="63.623047"/>
       <use xlink:href="#DejaVuSans-30" x="127.246094"/>
      </g>
     </g>
    </g>
    <g id="ytick_3">
     <g id="line2d_6">
      <path d="M 325.657674 228.96 
C 325.657674 216.261778 323.156402 203.68703 318.297002 191.955402 
C 313.437603 180.223774 306.31458 169.563418 297.335581 160.584419 
C 288.356582 151.60542 277.696226 144.482397 265.964598 139.622998 
C 254.23297 134.763598 241.658222 132.262326 228.96 132.262326 
C 216.261778 132.262326 203.68703 134.763598 191.955402 139.622998 
C 180.223774 144.482397 169.563418 151.60542 160.584419 160.584419 
C 151.60542 169.563418 144.482397 180.223774 139.622998 191.955402 
C 134.763598 203.68703 132.262326 216.261778 132.262326 228.96 
C 132.262326 241.658222 134.763598 254.23297 139.622998 265.964598 
C 144.482397 277.696226 151.60542 288.356582 160.584419 297.335581 
C 169.563418 306.31458 180.223774 313.437603 191.955402 318.297002 
C 203.68703 323.156402 216.261778 325.657674 228.96 325.657674 
C 241.658222 325.657674 254.23297 323.156402 265.964598 318.297002 
C 277.696226 313.437603 288.356582 306.31458 297.335581 297.335581 
C 306.31458 288.356582 313.437603 277.696226 318.297002 265.964598 
C 323.156402 254.23297 325.657674 241.658222 325.657674 228.96 
" clip-path="url(#p4fdb820d5f)" style="fill: none; stroke: #b0b0b0; stroke-width: 0.8; stroke-linecap: square"/>
     </g>
     <g id="text_6">
      <!-- 150 -->
      <g transform="translate(318.297002 189.875715)scale(0.1 -0.1)">
       <use xlink:href="#DejaVuSans-31"/>
       <use xlink:href="#DejaVuSans-35" x="63.623047"/>
       <use xlink:href="#DejaVuSans-30" x="127.246094"/>
      </g>
     </g>
    </g>
    <g id="ytick_4">
     <g id="line2d_7">
      <path d="M 357.890233 228.96 
C 357.890233 212.029037 354.555202 195.262706 348.076003 179.620536 
C 341.596804 163.978366 332.09944 149.764557 320.127442 137.792558 
C 308.155443 125.82056 293.941634 116.323196 278.299464 109.843997 
C 262.657294 103.364798 245.890963 100.029767 228.96 100.029767 
C 212.029037 100.029767 195.262706 103.364798 179.620536 109.843997 
C 163.978366 116.323196 149.764557 125.82056 137.792558 137.792558 
C 125.82056 149.764557 116.323196 163.978366 109.843997 179.620536 
C 103.364798 195.262706 100.029767 212.029037 100.029767 228.96 
C 100.029767 245.890963 103.364798 262.657294 109.843997 278.299464 
C 116.323196 293.941634 125.82056 308.155443 137.792558 320.127442 
C 149.764557 332.09944 163.978366 341.596804 179.620536 348.076003 
C 195.262706 354.555202 212.029037 357.890233 228.96 357.890233 
C 245.890963 357.890233 262.657294 354.555202 278.299464 348.076003 
C 293.941634 341.596804 308.155443 332.09944 320.127442 320.127442 
C 332.09944 308.155443 341.596804 293.941634 348.076003 278.299464 
C 354.555202 262.657294 357.890233 245.890963 357.890233 228.96 
" clip-path="url(#p4fdb820d5f)" style="fill: none; stroke: #b0b0b0; stroke-width: 0.8; stroke-linecap: square"/>
     </g>
     <g id="text_7">
      <!-- 200 -->
      <g transform="translate(348.076003 177.540849)scale(0.1 -0.1)">
       <defs>
        <path id="DejaVuSans-32" d="M 1228 531 
L 3431 531 
L 3431 0 
L 469 0 
L 469 531 
Q 828 903 1448 1529 
Q 2069 2156 2228 2338 
Q 2531 2678 2651 2914 
Q 2772 3150 2772 3378 
Q 2772 3750 2511 3984 
Q 2250 4219 1831 4219 
Q 1534 4219 1204 4116 
Q 875 4013 500 3803 
L 500 4441 
Q 881 4594 1212 4672 
Q 1544 4750 1819 4750 
Q 2544 4750 2975 4387 
Q 3406 4025 3406 3419 
Q 3406 3131 3298 2873 
Q 3191 2616 2906 2266 
Q 2828 2175 2409 1742 
Q 1991 1309 1228 531 
z
" transform="scale(0.015625)"/>
       </defs>
       <use xlink:href="#DejaVuSans-32"/>
       <use xlink:href="#DejaVuSans-30" x="63.623047"/>
       <use xlink:href="#DejaVuSans-30" x="127.246094"/>
      </g>
     </g>
    </g>
    <g id="ytick_5">
     <g id="line2d_8">
      <path d="M 390.122791 228.96 
C 390.122791 207.796296 385.954003 186.838383 377.855004 167.28567 
C 369.756005 147.732957 357.884301 129.965696 342.919302 115.000698 
C 327.954304 100.035699 310.187043 88.163995 290.63433 80.064996 
C 271.081617 71.965997 250.123704 67.797209 228.96 67.797209 
C 207.796296 67.797209 186.838383 71.965997 167.28567 80.064996 
C 147.732957 88.163995 129.965696 100.035699 115.000698 115.000698 
C 100.035699 129.965696 88.163995 147.732957 80.064996 167.28567 
C 71.965997 186.838383 67.797209 207.796296 67.797209 228.96 
C 67.797209 250.123704 71.965997 271.081617 80.064996 290.63433 
C 88.163995 310.187043 100.035699 327.954304 115.000698 342.919302 
C 129.965696 357.884301 147.732957 369.756005 167.28567 377.855004 
C 186.838383 385.954003 207.796296 390.122791 228.96 390.122791 
C 250.123704 390.122791 271.081617 385.954003 290.63433 377.855004 
C 310.187043 369.756005 327.954304 357.884301 342.919302 342.919302 
C 357.884301 327.954304 369.756005 310.187043 377.855004 290.63433 
C 385.954003 271.081617 390.122791 250.123704 390.122791 228.96 
" clip-path="url(#p4fdb820d5f)" style="fill: none; stroke: #b0b0b0; stroke-width: 0.8; stroke-linecap: square"/>
     </g>
     <g id="text_8">
      <!-- 250 -->
      <g transform="translate(377.855004 165.205983)scale(0.1 -0.1)">
       <use xlink:href="#DejaVuSans-32"/>
       <use xlink:href="#DejaVuSans-35" x="63.623047"/>
       <use xlink:href="#DejaVuSans-30" x="127.246094"/>
      </g>
     </g>
    </g>
    <g id="ytick_6">
     <g id="line2d_9">
      <path d="M 422.355349 228.96 
C 422.355349 203.563555 417.352803 178.414059 407.634004 154.950804 
C 397.915206 131.487549 383.669161 110.166836 365.711163 92.208837 
C 347.753164 74.250839 326.432451 60.004794 302.969196 50.285996 
C 279.505941 40.567197 254.356445 35.564651 228.96 35.564651 
C 203.563555 35.564651 178.414059 40.567197 154.950804 50.285996 
C 131.487549 60.004794 110.166836 74.250839 92.208837 92.208837 
C 74.250839 110.166836 60.004794 131.487549 50.285996 154.950804 
C 40.567197 178.414059 35.564651 203.563555 35.564651 228.96 
C 35.564651 254.356445 40.567197 279.505941 50.285996 302.969196 
C 60.004794 326.432451 74.250839 347.753164 92.208837 365.711163 
C 110.166836 383.669161 131.487549 397.915206 154.950804 407.634004 
C 178.414059 417.352803 203.563555 422.355349 228.96 422.355349 
C 254.356445 422.355349 279.505941 417.352803 302.969196 407.634004 
C 326.432451 397.915206 347.753164 383.669161 365.711163 365.711163 
C 383.669161 347.753164 397.915206 326.432451 407.634004 302.969196 
C 417.352803 279.505941 422.355349 254.356445 422.355349 228.96 
" clip-path="url(#p4fdb820d5f)" style="fill: none; stroke: #b0b0b0; stroke-width: 0.8; stroke-linecap: square"/>
     </g>
     <g id="text_9">
      <!-- 300 -->
      <g transform="translate(407.634004 152.871117)scale(0.1 -0.1)">
       <defs>
        <path id="DejaVuSans-33" d="M 2597 2516 
Q 3050 2419 3304 2112 
Q 3559 1806 3559 1356 
Q 3559 666 3084 287 
Q 2609 -91 1734 -91 
Q 1441 -91 1130 -33 
Q 819 25 488 141 
L 488 750 
Q 750 597 1062 519 
Q 1375 441 1716 441 
Q 2309 441 2620 675 
Q 2931 909 2931 1356 
Q 2931 1769 2642 2001 
Q 2353 2234 1838 2234 
L 1294 2234 
L 1294 2753 
L 1863 2753 
Q 2328 2753 2575 2939 
Q 2822 3125 2822 3475 
Q 2822 3834 2567 4026 
Q 2313 4219 1838 4219 
Q 1578 4219 1281 4162 
Q 984 4106 628 3988 
L 628 4550 
Q 988 4650 1302 4700 
Q 1616 4750 1894 4750 
Q 2613 4750 3031 4423 
Q 3450 4097 3450 3541 
Q 3450 3153 3228 2886 
Q 3006 2619 2597 2516 
z
" transform="scale(0.015625)"/>
       </defs>
       <use xlink:href="#DejaVuSans-33"/>
       <use xlink:href="#DejaVuSans-30" x="63.623047"/>
       <use xlink:href="#DejaVuSans-30" x="127.246094"/>
      </g>
     </g>
    </g>
   </g>
   <g id="line2d_10">
    <path d="M 434.287842 228.96 
L 156.681712 103.770332 
L 125.557953 408.057598 
L 434.287842 228.96 
" clip-path="url(#p4fdb820d5f)" style="fill: none; stroke: #0000ff; stroke-width: 2; stroke-linecap: square"/>
   </g>
   <g id="line2d_11">
    <path d="M 356.929702 228.96 
L 152.842814 97.121166 
L 163.682623 342.023733 
L 356.929702 228.96 
" clip-path="url(#p4fdb820d5f)" style="fill: none; stroke: #008dda; stroke-width: 2; stroke-linecap: square"/>
   </g>
   <g id="line2d_12">
    <path d="M 435.248372 228.96 
L 178.999535 142.425936 
L 125.815814 407.610971 
L 435.248372 228.96 
" clip-path="url(#p4fdb820d5f)" style="fill: none; stroke: #008000; stroke-width: 2; stroke-linecap: square"/>
   </g>
   <g id="line2d_13">
    <path d="M 332.104186 228.96 
L 120.98093 41.934765 
L 177.387907 318.285485 
L 332.104186 228.96 
" clip-path="url(#p4fdb820d5f)" style="fill: none; stroke: #ffa500; stroke-width: 2; stroke-linecap: square"/>
   </g>
   <g id="line2d_14">
    <path d="M 392.385516 228.96 
L 138.309153 71.948128 
L 148.546214 368.240763 
L 392.385516 228.96 
" clip-path="url(#p4fdb820d5f)" style="fill: none; stroke: #ff0000; stroke-width: 2; stroke-linecap: square"/>
   </g>
   <g id="patch_8">
    <path d="M 450.72 228.96 
C 450.72 199.838744 444.983747 171.000655 433.839525 144.096122 
C 422.695303 117.191589 406.359838 92.743838 385.768 72.152 
C 365.176162 51.560162 340.728411 35.224697 313.823878 24.080475 
C 286.919345 12.936253 258.081256 7.2 228.96 7.2 
C 199.838744 7.2 171.000655 12.936253 144.096122 24.080475 
C 117.191589 35.224697 92.743838 51.560162 72.152 72.152 
C 51.560162 92.743838 35.224697 117.191589 24.080475 144.096122 
C 12.936253 171.000655 7.2 199.838744 7.2 228.96 
C 7.2 258.081256 12.936253 286.919345 24.080475 313.823878 
C 35.224697 340.728411 51.560162 365.176162 72.152 385.768 
C 92.743838 406.359838 117.191589 422.695303 144.096122 433.839525 
C 171.000655 444.983747 199.838744 450.72 228.96 450.72 
C 258.081256 450.72 286.919345 444.983747 313.823878 433.839525 
C 340.728411 422.695303 365.176162 406.359838 385.768 385.768 
C 406.359838 365.176162 422.695303 340.728411 433.839525 313.823878 
C 444.983747 286.919345 450.72 258.081256 450.72 228.96 
" style="fill: none; stroke: #000000; stroke-width: 0.8; stroke-linejoin: miter; stroke-linecap: square"/>
   </g>
  </g>
 </g>
 <defs>
  <clipPath id="p4fdb820d5f">
   <path d="M 450.72 228.96 
C 450.72 199.838744 444.983747 171.000655 433.839525 144.096122 
C 422.695303 117.191589 406.359838 92.743838 385.768 72.152 
C 365.176162 51.560162 340.728411 35.224697 313.823878 24.080475 
C 286.919345 12.936253 258.081256 7.2 228.96 7.2 
C 199.838744 7.2 171.000655 12.936253 144.096122 24.080475 
C 117.191589 35.224697 92.743838 51.560162 72.152 72.152 
C 51.560162 92.743838 35.224697 117.191589 24.080475 144.096122 
C 12.936253 171.000655 7.2 199.838744 7.2 228.96 
C 7.2 258.081256 12.936253 286.919345 24.080475 313.823878 
C 35.224697 340.728411 51.560162 365.176162 72.152 385.768 
C 92.743838 406.359838 117.191589 422.695303 144.096122 433.839525 
C 171.000655 444.983747 199.838744 450.72 228.96 450.72 
C 258.081256 450.72 286.919345 444.983747 313.823878 433.839525 
C 340.728411 422.695303 365.176162 406.359838 385.768 385.768 
C 406.359838 365.176162 422.695303 340.728411 433.839525 313.823878 
C 444.983747 286.919345 450.72 258.081256 450.72 228.96 
M 228.96 228.96 
C 228.96 228.96 228.96 228.96 228.96 228.96 
C 228.96 228.96 228.96 228.96 228.96 228.96 
C 228.96 228.96 228.96 228.96 228.96 228.96 
C 228.96 228.96 228.96 228.96 228.96 228.96 
C 228.96 228.96 228.96 228.96 228.96 228.96 
C 228.96 228.96 228.96 228.96 228.96 228.96 
C 228.96 228.96 228.96 228.96 228.96 228.96 
C 228.96 228.96 228.96 228.96 228.96 228.96 
C 228.96 228.96 228.96 228.96 228.96 228.96 
C 228.96 228.96 228.96 228.96 228.96 228.96 
C 228.96 228.96 228.96 228.96 228.96 228.96 
C 228.96 228.96 228.96 228.96 228.96 228.96 
C 228.96 228.96 228.96 228.96 228.96 228.96 
C 228.96 228.96 228.96 228.96 228.96 228.96 
C 228.96 228.96 228.96 228.96 228.96 228.96 
C 228.96 228.96 228.96 228.96 228.96 228.96 
M 450.72 228.96 
z
"/>
  </clipPath>
 </defs>
</svg>
