<?xml version="1.0" encoding="utf-8" standalone="no"?>
<!DOCTYPE svg PUBLIC "-//W3C//DTD SVG 1.1//EN"
  "http://www.w3.org/Graphics/SVG/1.1/DTD/svg11.dtd">
<svg xmlns:xlink="http://www.w3.org/1999/xlink" width="508.804375pt" height="457.92pt" viewBox="0 0 508.804375 457.92" xmlns="http://www.w3.org/2000/svg" version="1.1">
 <metadata>
  <rdf:RDF xmlns:dc="http://purl.org/dc/elements/1.1/" xmlns:cc="http://creativecommons.org/ns#" xmlns:rdf="http://www.w3.org/1999/02/22-rdf-syntax-ns#">
   <cc:Work>
    <dc:type rdf:resource="http://purl.org/dc/dcmitype/StillImage"/>
    <dc:date>2024-03-19T14:40:09.087829</dc:date>
    <dc:format>image/svg+xml</dc:format>
    <dc:creator>
     <cc:Agent>
      <dc:title>Matplotlib v3.5.3, https://matplotlib.org/</dc:title>
     </cc:Agent>
    </dc:creator>
   </cc:Work>
  </rdf:RDF>
 </metadata>
 <defs>
  <style type="text/css">*{stroke-linejoin: round; stroke-linecap: butt}</style>
 </defs>
 <g id="figure_1">
  <g id="patch_1">
   <path d="M 0 457.92 
L 508.804375 457.92 
L 508.804375 0 
L 0 0 
z
" style="fill: #ffffff"/>
  </g>
  <g id="axes_1">
   <g id="patch_2">
    <path d="M 450.72 228.96 
C 450.72 199.838744 444.983747 171.000655 433.839525 144.096122 
C 422.695303 117.191589 406.359838 92.743838 385.768 72.152 
C 365.176162 51.560162 340.728411 35.224697 313.823878 24.080475 
C 286.919345 12.936253 258.081256 7.2 228.96 7.2 
C 199.838744 7.2 171.000655 12.936253 144.096122 24.080475 
C 117.191589 35.224697 92.743838 51.560162 72.152 72.152 
C 51.560162 92.743838 35.224697 117.191589 24.080475 144.096122 
C 12.936253 171.000655 7.2 199.838744 7.2 228.96 
C 7.2 258.081256 12.936253 286.919345 24.080475 313.823878 
C 35.224697 340.728411 51.560162 365.176162 72.152 385.768 
C 92.743838 406.359838 117.191589 422.695303 144.096122 433.839525 
C 171.000655 444.983747 199.838744 450.72 228.96 450.72 
C 258.081256 450.72 286.919345 444.983747 313.823878 433.839525 
C 340.728411 422.695303 365.176162 406.359838 385.768 385.768 
C 406.359838 365.176162 422.695303 340.728411 433.839525 313.823878 
C 444.983747 286.919345 450.72 258.081256 450.72 228.96 
M 228.96 228.96 
C 228.96 228.96 228.96 228.96 228.96 228.96 
C 228.96 228.96 228.96 228.96 228.96 228.96 
C 228.96 228.96 228.96 228.96 228.96 228.96 
C 228.96 228.96 228.96 228.96 228.96 228.96 
C 228.96 228.96 228.96 228.96 228.96 228.96 
C 228.96 228.96 228.96 228.96 228.96 228.96 
C 228.96 228.96 228.96 228.96 228.96 228.96 
C 228.96 228.96 228.96 228.96 228.96 228.96 
C 228.96 228.96 228.96 228.96 228.96 228.96 
C 228.96 228.96 228.96 228.96 228.96 228.96 
C 228.96 228.96 228.96 228.96 228.96 228.96 
C 228.96 228.96 228.96 228.96 228.96 228.96 
C 228.96 228.96 228.96 228.96 228.96 228.96 
C 228.96 228.96 228.96 228.96 228.96 228.96 
C 228.96 228.96 228.96 228.96 228.96 228.96 
C 228.96 228.96 228.96 228.96 228.96 228.96 
M 450.72 228.96 
z
" style="fill: #ffffff"/>
   </g>
   <g id="patch_3">
    <path d="M 363.951905 228.96 
L 133.812973 64.160515 
L 161.473038 345.850847 
z
" clip-path="url(#pf77b682ece)" style="fill: #0000ff; opacity: 0.25; stroke: #0000ff; stroke-linejoin: miter"/>
   </g>
   <g id="patch_4">
    <path d="M 353.762932 228.96 
L 130.816216 58.96998 
L 166.267849 337.545991 
z
" clip-path="url(#pf77b682ece)" style="fill: #008dda; opacity: 0.25; stroke: #008dda; stroke-linejoin: miter"/>
   </g>
   <g id="patch_5">
    <path d="M 420.830348 228.96 
L 180.877038 145.677867 
L 132.368536 396.261323 
z
" clip-path="url(#pf77b682ece)" style="fill: #008000; opacity: 0.25; stroke: #008000; stroke-linejoin: miter"/>
   </g>
   <g id="patch_6">
    <path d="M 324.856216 228.96 
L 121.076757 42.100741 
L 181.011892 312.008559 
z
" clip-path="url(#pf77b682ece)" style="fill: #ffa500; opacity: 0.25; stroke: #ffa500; stroke-linejoin: miter"/>
   </g>
   <g id="patch_7">
    <path d="M 386.06797 228.96 
L 147.4632 87.803402 
L 150.229206 365.325734 
z
" clip-path="url(#pf77b682ece)" style="fill: #ff0000; opacity: 0.25; stroke: #ff0000; stroke-linejoin: miter"/>
   </g>
   <g id="matplotlib.axis_1">
    <g id="xtick_1">
     <g id="line2d_1">
      <path d="M 228.96 228.96 
L 450.72 228.96 
" clip-path="url(#pf77b682ece)" style="fill: none; stroke: #b0b0b0; stroke-width: 0.8; stroke-linecap: square"/>
     </g>
     <g id="text_1">
      <!-- Sellers -->
      <g transform="translate(427.835625 235.030625)scale(0.22 -0.22)">
       <defs>
        <path id="DejaVuSans-53" d="M 3425 4513 
L 3425 3897 
Q 3066 4069 2747 4153 
Q 2428 4238 2131 4238 
Q 1616 4238 1336 4038 
Q 1056 3838 1056 3469 
Q 1056 3159 1242 3001 
Q 1428 2844 1947 2747 
L 2328 2669 
Q 3034 2534 3370 2195 
Q 3706 1856 3706 1288 
Q 3706 609 3251 259 
Q 2797 -91 1919 -91 
Q 1588 -91 1214 -16 
Q 841 59 441 206 
L 441 856 
Q 825 641 1194 531 
Q 1563 422 1919 422 
Q 2459 422 2753 634 
Q 3047 847 3047 1241 
Q 3047 1584 2836 1778 
Q 2625 1972 2144 2069 
L 1759 2144 
Q 1053 2284 737 2584 
Q 422 2884 422 3419 
Q 422 4038 858 4394 
Q 1294 4750 2059 4750 
Q 2388 4750 2728 4690 
Q 3069 4631 3425 4513 
z
" transform="scale(0.015625)"/>
        <path id="DejaVuSans-65" d="M 3597 1894 
L 3597 1613 
L 953 1613 
Q 991 1019 1311 708 
Q 1631 397 2203 397 
Q 2534 397 2845 478 
Q 3156 559 3463 722 
L 3463 178 
Q 3153 47 2828 -22 
Q 2503 -91 2169 -91 
Q 1331 -91 842 396 
Q 353 884 353 1716 
Q 353 2575 817 3079 
Q 1281 3584 2069 3584 
Q 2775 3584 3186 3129 
Q 3597 2675 3597 1894 
z
M 3022 2063 
Q 3016 2534 2758 2815 
Q 2500 3097 2075 3097 
Q 1594 3097 1305 2825 
Q 1016 2553 972 2059 
L 3022 2063 
z
" transform="scale(0.015625)"/>
        <path id="DejaVuSans-6c" d="M 603 4863 
L 1178 4863 
L 1178 0 
L 603 0 
L 603 4863 
z
" transform="scale(0.015625)"/>
        <path id="DejaVuSans-72" d="M 2631 2963 
Q 2534 3019 2420 3045 
Q 2306 3072 2169 3072 
Q 1681 3072 1420 2755 
Q 1159 2438 1159 1844 
L 1159 0 
L 581 0 
L 581 3500 
L 1159 3500 
L 1159 2956 
Q 1341 3275 1631 3429 
Q 1922 3584 2338 3584 
Q 2397 3584 2469 3576 
Q 2541 3569 2628 3553 
L 2631 2963 
z
" transform="scale(0.015625)"/>
        <path id="DejaVuSans-73" d="M 2834 3397 
L 2834 2853 
Q 2591 2978 2328 3040 
Q 2066 3103 1784 3103 
Q 1356 3103 1142 2972 
Q 928 2841 928 2578 
Q 928 2378 1081 2264 
Q 1234 2150 1697 2047 
L 1894 2003 
Q 2506 1872 2764 1633 
Q 3022 1394 3022 966 
Q 3022 478 2636 193 
Q 2250 -91 1575 -91 
Q 1294 -91 989 -36 
Q 684 19 347 128 
L 347 722 
Q 666 556 975 473 
Q 1284 391 1588 391 
Q 1994 391 2212 530 
Q 2431 669 2431 922 
Q 2431 1156 2273 1281 
Q 2116 1406 1581 1522 
L 1381 1569 
Q 847 1681 609 1914 
Q 372 2147 372 2553 
Q 372 3047 722 3315 
Q 1072 3584 1716 3584 
Q 2034 3584 2315 3537 
Q 2597 3491 2834 3397 
z
" transform="scale(0.015625)"/>
       </defs>
       <use xlink:href="#DejaVuSans-53"/>
       <use xlink:href="#DejaVuSans-65" x="63.476562"/>
       <use xlink:href="#DejaVuSans-6c" x="125"/>
       <use xlink:href="#DejaVuSans-6c" x="152.783203"/>
       <use xlink:href="#DejaVuSans-65" x="180.566406"/>
       <use xlink:href="#DejaVuSans-72" x="242.089844"/>
       <use xlink:href="#DejaVuSans-73" x="283.203125"/>
      </g>
     </g>
    </g>
    <g id="xtick_2">
     <g id="line2d_2">
      <path d="M 228.96 228.96 
L 118.08 36.910206 
" clip-path="url(#pf77b682ece)" style="fill: none; stroke: #b0b0b0; stroke-width: 0.8; stroke-linecap: square"/>
     </g>
     <g id="text_2">
      <!-- Buyers -->
      <g transform="translate(73.030313 30.856476)scale(0.22 -0.22)">
       <defs>
        <path id="DejaVuSans-42" d="M 1259 2228 
L 1259 519 
L 2272 519 
Q 2781 519 3026 730 
Q 3272 941 3272 1375 
Q 3272 1813 3026 2020 
Q 2781 2228 2272 2228 
L 1259 2228 
z
M 1259 4147 
L 1259 2741 
L 2194 2741 
Q 2656 2741 2882 2914 
Q 3109 3088 3109 3444 
Q 3109 3797 2882 3972 
Q 2656 4147 2194 4147 
L 1259 4147 
z
M 628 4666 
L 2241 4666 
Q 2963 4666 3353 4366 
Q 3744 4066 3744 3513 
Q 3744 3084 3544 2831 
Q 3344 2578 2956 2516 
Q 3422 2416 3680 2098 
Q 3938 1781 3938 1306 
Q 3938 681 3513 340 
Q 3088 0 2303 0 
L 628 0 
L 628 4666 
z
" transform="scale(0.015625)"/>
        <path id="DejaVuSans-75" d="M 544 1381 
L 544 3500 
L 1119 3500 
L 1119 1403 
Q 1119 906 1312 657 
Q 1506 409 1894 409 
Q 2359 409 2629 706 
Q 2900 1003 2900 1516 
L 2900 3500 
L 3475 3500 
L 3475 0 
L 2900 0 
L 2900 538 
Q 2691 219 2414 64 
Q 2138 -91 1772 -91 
Q 1169 -91 856 284 
Q 544 659 544 1381 
z
M 1991 3584 
L 1991 3584 
z
" transform="scale(0.015625)"/>
        <path id="DejaVuSans-79" d="M 2059 -325 
Q 1816 -950 1584 -1140 
Q 1353 -1331 966 -1331 
L 506 -1331 
L 506 -850 
L 844 -850 
Q 1081 -850 1212 -737 
Q 1344 -625 1503 -206 
L 1606 56 
L 191 3500 
L 800 3500 
L 1894 763 
L 2988 3500 
L 3597 3500 
L 2059 -325 
z
" transform="scale(0.015625)"/>
       </defs>
       <use xlink:href="#DejaVuSans-42"/>
       <use xlink:href="#DejaVuSans-75" x="68.603516"/>
       <use xlink:href="#DejaVuSans-79" x="131.982422"/>
       <use xlink:href="#DejaVuSans-65" x="191.162109"/>
       <use xlink:href="#DejaVuSans-72" x="252.685547"/>
       <use xlink:href="#DejaVuSans-73" x="293.798828"/>
      </g>
     </g>
    </g>
    <g id="xtick_3">
     <g id="line2d_3">
      <path d="M 228.96 228.96 
L 118.08 421.009794 
" clip-path="url(#pf77b682ece)" style="fill: none; stroke: #b0b0b0; stroke-width: 0.8; stroke-linecap: square"/>
     </g>
     <g id="text_3">
      <!-- Arbiter/$\rho$ -->
      <g transform="translate(62.68 439.184149)scale(0.22 -0.22)">
       <defs>
        <path id="DejaVuSans-41" d="M 2188 4044 
L 1331 1722 
L 3047 1722 
L 2188 4044 
z
M 1831 4666 
L 2547 4666 
L 4325 0 
L 3669 0 
L 3244 1197 
L 1141 1197 
L 716 0 
L 50 0 
L 1831 4666 
z
" transform="scale(0.015625)"/>
        <path id="DejaVuSans-62" d="M 3116 1747 
Q 3116 2381 2855 2742 
Q 2594 3103 2138 3103 
Q 1681 3103 1420 2742 
Q 1159 2381 1159 1747 
Q 1159 1113 1420 752 
Q 1681 391 2138 391 
Q 2594 391 2855 752 
Q 3116 1113 3116 1747 
z
M 1159 2969 
Q 1341 3281 1617 3432 
Q 1894 3584 2278 3584 
Q 2916 3584 3314 3078 
Q 3713 2572 3713 1747 
Q 3713 922 3314 415 
Q 2916 -91 2278 -91 
Q 1894 -91 1617 61 
Q 1341 213 1159 525 
L 1159 0 
L 581 0 
L 581 4863 
L 1159 4863 
L 1159 2969 
z
" transform="scale(0.015625)"/>
        <path id="DejaVuSans-69" d="M 603 3500 
L 1178 3500 
L 1178 0 
L 603 0 
L 603 3500 
z
M 603 4863 
L 1178 4863 
L 1178 4134 
L 603 4134 
L 603 4863 
z
" transform="scale(0.015625)"/>
        <path id="DejaVuSans-74" d="M 1172 4494 
L 1172 3500 
L 2356 3500 
L 2356 3053 
L 1172 3053 
L 1172 1153 
Q 1172 725 1289 603 
Q 1406 481 1766 481 
L 2356 481 
L 2356 0 
L 1766 0 
Q 1100 0 847 248 
Q 594 497 594 1153 
L 594 3053 
L 172 3053 
L 172 3500 
L 594 3500 
L 594 4494 
L 1172 4494 
z
" transform="scale(0.015625)"/>
        <path id="DejaVuSans-2f" d="M 1625 4666 
L 2156 4666 
L 531 -594 
L 0 -594 
L 1625 4666 
z
" transform="scale(0.015625)"/>
        <path id="DejaVuSans-Oblique-3c1" d="M 1203 2875 
Q 1453 3194 1981 3475 
Q 2188 3584 2756 3584 
Q 3394 3584 3694 3078 
Q 3994 2572 3834 1747 
Q 3672 922 3175 415 
Q 2678 -91 2041 -91 
Q 1656 -91 1409 63 
Q 1163 213 1044 525 
L 681 -1331 
L 103 -1331 
L 697 1716 
Q 838 2438 1203 2875 
z
M 3238 1747 
Q 3359 2381 3169 2744 
Q 2978 3103 2522 3103 
Q 2066 3103 1734 2744 
Q 1403 2381 1281 1747 
Q 1156 1113 1347 750 
Q 1538 391 1994 391 
Q 2450 391 2781 750 
Q 3113 1113 3238 1747 
z
" transform="scale(0.015625)"/>
       </defs>
       <use xlink:href="#DejaVuSans-41" transform="translate(0 0.015625)"/>
       <use xlink:href="#DejaVuSans-72" transform="translate(68.408203 0.015625)"/>
       <use xlink:href="#DejaVuSans-62" transform="translate(109.521484 0.015625)"/>
       <use xlink:href="#DejaVuSans-69" transform="translate(172.998047 0.015625)"/>
       <use xlink:href="#DejaVuSans-74" transform="translate(200.78125 0.015625)"/>
       <use xlink:href="#DejaVuSans-65" transform="translate(239.990234 0.015625)"/>
       <use xlink:href="#DejaVuSans-72" transform="translate(301.513672 0.015625)"/>
       <use xlink:href="#DejaVuSans-2f" transform="translate(342.626953 0.015625)"/>
       <use xlink:href="#DejaVuSans-Oblique-3c1" transform="translate(376.318359 0.015625)"/>
      </g>
     </g>
    </g>
   </g>
   <g id="matplotlib.axis_2">
    <g id="ytick_1">
     <g id="line2d_4">
      <path d="M 258.927568 228.96 
C 258.927568 225.024695 258.152398 221.127656 256.646422 217.491908 
C 255.140446 213.856161 252.932951 210.552411 250.15027 207.76973 
C 247.367589 204.987049 244.063839 202.779554 240.428092 201.273578 
C 236.792344 199.767602 232.895305 198.992432 228.96 198.992432 
C 225.024695 198.992432 221.127656 199.767602 217.491908 201.273578 
C 213.856161 202.779554 210.552411 204.987049 207.76973 207.76973 
C 204.987049 210.552411 202.779554 213.856161 201.273578 217.491908 
C 199.767602 221.127656 198.992432 225.024695 198.992432 228.96 
C 198.992432 232.895305 199.767602 236.792344 201.273578 240.428092 
C 202.779554 244.063839 204.987049 247.367589 207.76973 250.15027 
C 210.552411 252.932951 213.856161 255.140446 217.491908 256.646422 
C 221.127656 258.152398 225.024695 258.927568 228.96 258.927568 
C 232.895305 258.927568 236.792344 258.152398 240.428092 256.646422 
C 244.063839 255.140446 247.367589 252.932951 250.15027 250.15027 
C 252.932951 247.367589 255.140446 244.063839 256.646422 240.428092 
C 258.152398 236.792344 258.927568 232.895305 258.927568 228.96 
" clip-path="url(#pf77b682ece)" style="fill: none; stroke: #b0b0b0; stroke-width: 0.8; stroke-linecap: square"/>
     </g>
     <g id="text_4">
      <!-- 50 -->
      <g transform="translate(256.646422 215.412221)scale(0.1 -0.1)">
       <defs>
        <path id="DejaVuSans-35" d="M 691 4666 
L 3169 4666 
L 3169 4134 
L 1269 4134 
L 1269 2991 
Q 1406 3038 1543 3061 
Q 1681 3084 1819 3084 
Q 2600 3084 3056 2656 
Q 3513 2228 3513 1497 
Q 3513 744 3044 326 
Q 2575 -91 1722 -91 
Q 1428 -91 1123 -41 
Q 819 9 494 109 
L 494 744 
Q 775 591 1075 516 
Q 1375 441 1709 441 
Q 2250 441 2565 725 
Q 2881 1009 2881 1497 
Q 2881 1984 2565 2268 
Q 2250 2553 1709 2553 
Q 1456 2553 1204 2497 
Q 953 2441 691 2322 
L 691 4666 
z
" transform="scale(0.015625)"/>
        <path id="DejaVuSans-30" d="M 2034 4250 
Q 1547 4250 1301 3770 
Q 1056 3291 1056 2328 
Q 1056 1369 1301 889 
Q 1547 409 2034 409 
Q 2525 409 2770 889 
Q 3016 1369 3016 2328 
Q 3016 3291 2770 3770 
Q 2525 4250 2034 4250 
z
M 2034 4750 
Q 2819 4750 3233 4129 
Q 3647 3509 3647 2328 
Q 3647 1150 3233 529 
Q 2819 -91 2034 -91 
Q 1250 -91 836 529 
Q 422 1150 422 2328 
Q 422 3509 836 4129 
Q 1250 4750 2034 4750 
z
" transform="scale(0.015625)"/>
       </defs>
       <use xlink:href="#DejaVuSans-35"/>
       <use xlink:href="#DejaVuSans-30" x="63.623047"/>
      </g>
     </g>
    </g>
    <g id="ytick_2">
     <g id="line2d_5">
      <path d="M 288.895135 228.96 
C 288.895135 221.08939 287.344797 213.295312 284.332845 206.023817 
C 281.320893 198.752321 276.905902 192.144821 271.34054 186.57946 
C 265.775179 181.014098 259.167679 176.599107 251.896183 173.587155 
C 244.624688 170.575203 236.83061 169.024865 228.96 169.024865 
C 221.08939 169.024865 213.295312 170.575203 206.023817 173.587155 
C 198.752321 176.599107 192.144821 181.014098 186.57946 186.57946 
C 181.014098 192.144821 176.599107 198.752321 173.587155 206.023817 
C 170.575203 213.295312 169.024865 221.08939 169.024865 228.96 
C 169.024865 236.83061 170.575203 244.624688 173.587155 251.896183 
C 176.599107 259.167679 181.014098 265.775179 186.57946 271.34054 
C 192.144821 276.905902 198.752321 281.320893 206.023817 284.332845 
C 213.295312 287.344797 221.08939 288.895135 228.96 288.895135 
C 236.83061 288.895135 244.624688 287.344797 251.896183 284.332845 
C 259.167679 281.320893 265.775179 276.905902 271.34054 271.34054 
C 276.905902 265.775179 281.320893 259.167679 284.332845 251.896183 
C 287.344797 244.624688 288.895135 236.83061 288.895135 228.96 
" clip-path="url(#pf77b682ece)" style="fill: none; stroke: #b0b0b0; stroke-width: 0.8; stroke-linecap: square"/>
     </g>
     <g id="text_5">
      <!-- 100 -->
      <g transform="translate(284.332845 203.944129)scale(0.1 -0.1)">
       <defs>
        <path id="DejaVuSans-31" d="M 794 531 
L 1825 531 
L 1825 4091 
L 703 3866 
L 703 4441 
L 1819 4666 
L 2450 4666 
L 2450 531 
L 3481 531 
L 3481 0 
L 794 0 
L 794 531 
z
" transform="scale(0.015625)"/>
       </defs>
       <use xlink:href="#DejaVuSans-31"/>
       <use xlink:href="#DejaVuSans-30" x="63.623047"/>
       <use xlink:href="#DejaVuSans-30" x="127.246094"/>
      </g>
     </g>
    </g>
    <g id="ytick_3">
     <g id="line2d_6">
      <path d="M 318.862703 228.96 
C 318.862703 217.154085 316.537195 205.462968 312.019267 194.555725 
C 307.501339 183.648482 300.878853 173.737232 292.530811 165.389189 
C 284.182768 157.041147 274.271518 150.418661 263.364275 145.900733 
C 252.457032 141.382805 240.765915 139.057297 228.96 139.057297 
C 217.154085 139.057297 205.462968 141.382805 194.555725 145.900733 
C 183.648482 150.418661 173.737232 157.041147 165.389189 165.389189 
C 157.041147 173.737232 150.418661 183.648482 145.900733 194.555725 
C 141.382805 205.462968 139.057297 217.154085 139.057297 228.96 
C 139.057297 240.765915 141.382805 252.457032 145.900733 263.364275 
C 150.418661 274.271518 157.041147 284.182768 165.389189 292.530811 
C 173.737232 300.878853 183.648482 307.501339 194.555725 312.019267 
C 205.462968 316.537195 217.154085 318.862703 228.96 318.862703 
C 240.765915 318.862703 252.457032 316.537195 263.364275 312.019267 
C 274.271518 307.501339 284.182768 300.878853 292.530811 292.530811 
C 300.878853 284.182768 307.501339 274.271518 312.019267 263.364275 
C 316.537195 252.457032 318.862703 240.765915 318.862703 228.96 
" clip-path="url(#pf77b682ece)" style="fill: none; stroke: #b0b0b0; stroke-width: 0.8; stroke-linecap: square"/>
     </g>
     <g id="text_6">
      <!-- 150 -->
      <g transform="translate(312.019267 192.476038)scale(0.1 -0.1)">
       <use xlink:href="#DejaVuSans-31"/>
       <use xlink:href="#DejaVuSans-35" x="63.623047"/>
       <use xlink:href="#DejaVuSans-30" x="127.246094"/>
      </g>
     </g>
    </g>
    <g id="ytick_4">
     <g id="line2d_7">
      <path d="M 348.83027 228.96 
C 348.83027 213.21878 345.729593 197.630624 339.705689 183.087634 
C 333.681785 168.544643 324.851804 155.329642 313.721081 144.198919 
C 302.590358 133.068196 289.375357 124.238215 274.832366 118.214311 
C 260.289376 112.190407 244.70122 109.08973 228.96 109.08973 
C 213.21878 109.08973 197.630624 112.190407 183.087634 118.214311 
C 168.544643 124.238215 155.329642 133.068196 144.198919 144.198919 
C 133.068196 155.329642 124.238215 168.544643 118.214311 183.087634 
C 112.190407 197.630624 109.08973 213.21878 109.08973 228.96 
C 109.08973 244.70122 112.190407 260.289376 118.214311 274.832366 
C 124.238215 289.375357 133.068196 302.590358 144.198919 313.721081 
C 155.329642 324.851804 168.544643 333.681785 183.087634 339.705689 
C 197.630624 345.729593 213.21878 348.83027 228.96 348.83027 
C 244.70122 348.83027 260.289376 345.729593 274.832366 339.705689 
C 289.375357 333.681785 302.590358 324.851804 313.721081 313.721081 
C 324.851804 302.590358 333.681785 289.375357 339.705689 274.832366 
C 345.729593 260.289376 348.83027 244.70122 348.83027 228.96 
" clip-path="url(#pf77b682ece)" style="fill: none; stroke: #b0b0b0; stroke-width: 0.8; stroke-linecap: square"/>
     </g>
     <g id="text_7">
      <!-- 200 -->
      <g transform="translate(339.705689 181.007946)scale(0.1 -0.1)">
       <defs>
        <path id="DejaVuSans-32" d="M 1228 531 
L 3431 531 
L 3431 0 
L 469 0 
L 469 531 
Q 828 903 1448 1529 
Q 2069 2156 2228 2338 
Q 2531 2678 2651 2914 
Q 2772 3150 2772 3378 
Q 2772 3750 2511 3984 
Q 2250 4219 1831 4219 
Q 1534 4219 1204 4116 
Q 875 4013 500 3803 
L 500 4441 
Q 881 4594 1212 4672 
Q 1544 4750 1819 4750 
Q 2544 4750 2975 4387 
Q 3406 4025 3406 3419 
Q 3406 3131 3298 2873 
Q 3191 2616 2906 2266 
Q 2828 2175 2409 1742 
Q 1991 1309 1228 531 
z
" transform="scale(0.015625)"/>
       </defs>
       <use xlink:href="#DejaVuSans-32"/>
       <use xlink:href="#DejaVuSans-30" x="63.623047"/>
       <use xlink:href="#DejaVuSans-30" x="127.246094"/>
      </g>
     </g>
    </g>
    <g id="ytick_5">
     <g id="line2d_8">
      <path d="M 378.797838 228.96 
C 378.797838 209.283475 374.921992 189.79828 367.392112 171.619542 
C 359.862232 153.440804 348.824755 136.922053 334.911351 123.008649 
C 320.997947 109.095245 304.479196 98.057768 286.300458 90.527888 
C 268.12172 82.998008 248.636525 79.122162 228.96 79.122162 
C 209.283475 79.122162 189.79828 82.998008 171.619542 90.527888 
C 153.440804 98.057768 136.922053 109.095245 123.008649 123.008649 
C 109.095245 136.922053 98.057768 153.440804 90.527888 171.619542 
C 82.998008 189.79828 79.122162 209.283475 79.122162 228.96 
C 79.122162 248.636525 82.998008 268.12172 90.527888 286.300458 
C 98.057768 304.479196 109.095245 320.997947 123.008649 334.911351 
C 136.922053 348.824755 153.440804 359.862232 171.619542 367.392112 
C 189.79828 374.921992 209.283475 378.797838 228.96 378.797838 
C 248.636525 378.797838 268.12172 374.921992 286.300458 367.392112 
C 304.479196 359.862232 320.997947 348.824755 334.911351 334.911351 
C 348.824755 320.997947 359.862232 304.479196 367.392112 286.300458 
C 374.921992 268.12172 378.797838 248.636525 378.797838 228.96 
" clip-path="url(#pf77b682ece)" style="fill: none; stroke: #b0b0b0; stroke-width: 0.8; stroke-linecap: square"/>
     </g>
     <g id="text_8">
      <!-- 250 -->
      <g transform="translate(367.392112 169.539854)scale(0.1 -0.1)">
       <use xlink:href="#DejaVuSans-32"/>
       <use xlink:href="#DejaVuSans-35" x="63.623047"/>
       <use xlink:href="#DejaVuSans-30" x="127.246094"/>
      </g>
     </g>
    </g>
    <g id="ytick_6">
     <g id="line2d_9">
      <path d="M 408.765405 228.96 
C 408.765405 205.348171 404.11439 181.965936 395.078534 160.15145 
C 386.042678 138.336964 372.797706 118.514463 356.101621 101.818379 
C 339.405537 85.122294 319.583036 71.877322 297.76855 62.841466 
C 275.954064 53.80561 252.571829 49.154595 228.96 49.154595 
C 205.348171 49.154595 181.965936 53.80561 160.15145 62.841466 
C 138.336964 71.877322 118.514463 85.122294 101.818379 101.818379 
C 85.122294 118.514463 71.877322 138.336964 62.841466 160.15145 
C 53.80561 181.965936 49.154595 205.348171 49.154595 228.96 
C 49.154595 252.571829 53.80561 275.954064 62.841466 297.76855 
C 71.877322 319.583036 85.122294 339.405537 101.818379 356.101621 
C 118.514463 372.797706 138.336964 386.042678 160.15145 395.078534 
C 181.965936 404.11439 205.348171 408.765405 228.96 408.765405 
C 252.571829 408.765405 275.954064 404.11439 297.76855 395.078534 
C 319.583036 386.042678 339.405537 372.797706 356.101621 356.101621 
C 372.797706 339.405537 386.042678 319.583036 395.078534 297.76855 
C 404.11439 275.954064 408.765405 252.571829 408.765405 228.96 
" clip-path="url(#pf77b682ece)" style="fill: none; stroke: #b0b0b0; stroke-width: 0.8; stroke-linecap: square"/>
     </g>
     <g id="text_9">
      <!-- 300 -->
      <g transform="translate(395.078534 158.071763)scale(0.1 -0.1)">
       <defs>
        <path id="DejaVuSans-33" d="M 2597 2516 
Q 3050 2419 3304 2112 
Q 3559 1806 3559 1356 
Q 3559 666 3084 287 
Q 2609 -91 1734 -91 
Q 1441 -91 1130 -33 
Q 819 25 488 141 
L 488 750 
Q 750 597 1062 519 
Q 1375 441 1716 441 
Q 2309 441 2620 675 
Q 2931 909 2931 1356 
Q 2931 1769 2642 2001 
Q 2353 2234 1838 2234 
L 1294 2234 
L 1294 2753 
L 1863 2753 
Q 2328 2753 2575 2939 
Q 2822 3125 2822 3475 
Q 2822 3834 2567 4026 
Q 2313 4219 1838 4219 
Q 1578 4219 1281 4162 
Q 984 4106 628 3988 
L 628 4550 
Q 988 4650 1302 4700 
Q 1616 4750 1894 4750 
Q 2613 4750 3031 4423 
Q 3450 4097 3450 3541 
Q 3450 3153 3228 2886 
Q 3006 2619 2597 2516 
z
" transform="scale(0.015625)"/>
       </defs>
       <use xlink:href="#DejaVuSans-33"/>
       <use xlink:href="#DejaVuSans-30" x="63.623047"/>
       <use xlink:href="#DejaVuSans-30" x="127.246094"/>
      </g>
     </g>
    </g>
    <g id="ytick_7">
     <g id="line2d_10">
      <path d="M 438.732973 228.96 
C 438.732973 201.412866 433.306788 174.133592 422.764956 148.683359 
C 412.223124 123.233125 396.770657 100.106874 377.291892 80.628108 
C 357.813126 61.149343 334.686875 45.696876 309.236641 35.155044 
C 283.786408 24.613212 256.507134 19.187027 228.96 19.187027 
C 201.412866 19.187027 174.133592 24.613212 148.683359 35.155044 
C 123.233125 45.696876 100.106874 61.149343 80.628108 80.628108 
C 61.149343 100.106874 45.696876 123.233125 35.155044 148.683359 
C 24.613212 174.133592 19.187027 201.412866 19.187027 228.96 
C 19.187027 256.507134 24.613212 283.786408 35.155044 309.236641 
C 45.696876 334.686875 61.149343 357.813126 80.628108 377.291892 
C 100.106874 396.770657 123.233125 412.223124 148.683359 422.764956 
C 174.133592 433.306788 201.412866 438.732973 228.96 438.732973 
C 256.507134 438.732973 283.786408 433.306788 309.236641 422.764956 
C 334.686875 412.223124 357.813126 396.770657 377.291892 377.291892 
C 396.770657 357.813126 412.223124 334.686875 422.764956 309.236641 
C 433.306788 283.786408 438.732973 256.507134 438.732973 228.96 
" clip-path="url(#pf77b682ece)" style="fill: none; stroke: #b0b0b0; stroke-width: 0.8; stroke-linecap: square"/>
     </g>
     <g id="text_10">
      <!-- 350 -->
      <g transform="translate(422.764956 146.603671)scale(0.1 -0.1)">
       <use xlink:href="#DejaVuSans-33"/>
       <use xlink:href="#DejaVuSans-35" x="63.623047"/>
       <use xlink:href="#DejaVuSans-30" x="127.246094"/>
      </g>
     </g>
    </g>
   </g>
   <g id="line2d_11">
    <path d="M 363.951905 228.96 
L 133.812973 64.160515 
L 161.473038 345.850847 
L 363.951905 228.96 
" clip-path="url(#pf77b682ece)" style="fill: none; stroke: #0000ff; stroke-width: 2; stroke-linecap: square"/>
   </g>
   <g id="line2d_12">
    <path d="M 353.762932 228.96 
L 130.816216 58.96998 
L 166.267849 337.545991 
L 353.762932 228.96 
" clip-path="url(#pf77b682ece)" style="fill: none; stroke: #008dda; stroke-width: 2; stroke-linecap: square"/>
   </g>
   <g id="line2d_13">
    <path d="M 420.830348 228.96 
L 180.877038 145.677867 
L 132.368536 396.261323 
L 420.830348 228.96 
" clip-path="url(#pf77b682ece)" style="fill: none; stroke: #008000; stroke-width: 2; stroke-linecap: square"/>
   </g>
   <g id="line2d_14">
    <path d="M 324.856216 228.96 
L 121.076757 42.100741 
L 181.011892 312.008559 
L 324.856216 228.96 
" clip-path="url(#pf77b682ece)" style="fill: none; stroke: #ffa500; stroke-width: 2; stroke-linecap: square"/>
   </g>
   <g id="line2d_15">
    <path d="M 386.06797 228.96 
L 147.4632 87.803402 
L 150.229206 365.325734 
L 386.06797 228.96 
" clip-path="url(#pf77b682ece)" style="fill: none; stroke: #ff0000; stroke-width: 2; stroke-linecap: square"/>
   </g>
   <g id="patch_8">
    <path d="M 450.72 228.96 
C 450.72 199.838744 444.983747 171.000655 433.839525 144.096122 
C 422.695303 117.191589 406.359838 92.743838 385.768 72.152 
C 365.176162 51.560162 340.728411 35.224697 313.823878 24.080475 
C 286.919345 12.936253 258.081256 7.2 228.96 7.2 
C 199.838744 7.2 171.000655 12.936253 144.096122 24.080475 
C 117.191589 35.224697 92.743838 51.560162 72.152 72.152 
C 51.560162 92.743838 35.224697 117.191589 24.080475 144.096122 
C 12.936253 171.000655 7.2 199.838744 7.2 228.96 
C 7.2 258.081256 12.936253 286.919345 24.080475 313.823878 
C 35.224697 340.728411 51.560162 365.176162 72.152 385.768 
C 92.743838 406.359838 117.191589 422.695303 144.096122 433.839525 
C 171.000655 444.983747 199.838744 450.72 228.96 450.72 
C 258.081256 450.72 286.919345 444.983747 313.823878 433.839525 
C 340.728411 422.695303 365.176162 406.359838 385.768 385.768 
C 406.359838 365.176162 422.695303 340.728411 433.839525 313.823878 
C 444.983747 286.919345 450.72 258.081256 450.72 228.96 
" style="fill: none; stroke: #000000; stroke-width: 0.8; stroke-linejoin: miter; stroke-linecap: square"/>
   </g>
  </g>
 </g>
 <defs>
  <clipPath id="pf77b682ece">
   <path d="M 450.72 228.96 
C 450.72 199.838744 444.983747 171.000655 433.839525 144.096122 
C 422.695303 117.191589 406.359838 92.743838 385.768 72.152 
C 365.176162 51.560162 340.728411 35.224697 313.823878 24.080475 
C 286.919345 12.936253 258.081256 7.2 228.96 7.2 
C 199.838744 7.2 171.000655 12.936253 144.096122 24.080475 
C 117.191589 35.224697 92.743838 51.560162 72.152 72.152 
C 51.560162 92.743838 35.224697 117.191589 24.080475 144.096122 
C 12.936253 171.000655 7.2 199.838744 7.2 228.96 
C 7.2 258.081256 12.936253 286.919345 24.080475 313.823878 
C 35.224697 340.728411 51.560162 365.176162 72.152 385.768 
C 92.743838 406.359838 117.191589 422.695303 144.096122 433.839525 
C 171.000655 444.983747 199.838744 450.72 228.96 450.72 
C 258.081256 450.72 286.919345 444.983747 313.823878 433.839525 
C 340.728411 422.695303 365.176162 406.359838 385.768 385.768 
C 406.359838 365.176162 422.695303 340.728411 433.839525 313.823878 
C 444.983747 286.919345 450.72 258.081256 450.72 228.96 
M 228.96 228.96 
C 228.96 228.96 228.96 228.96 228.96 228.96 
C 228.96 228.96 228.96 228.96 228.96 228.96 
C 228.96 228.96 228.96 228.96 228.96 228.96 
C 228.96 228.96 228.96 228.96 228.96 228.96 
C 228.96 228.96 228.96 228.96 228.96 228.96 
C 228.96 228.96 228.96 228.96 228.96 228.96 
C 228.96 228.96 228.96 228.96 228.96 228.96 
C 228.96 228.96 228.96 228.96 228.96 228.96 
C 228.96 228.96 228.96 228.96 228.96 228.96 
C 228.96 228.96 228.96 228.96 228.96 228.96 
C 228.96 228.96 228.96 228.96 228.96 228.96 
C 228.96 228.96 228.96 228.96 228.96 228.96 
C 228.96 228.96 228.96 228.96 228.96 228.96 
C 228.96 228.96 228.96 228.96 228.96 228.96 
C 228.96 228.96 228.96 228.96 228.96 228.96 
C 228.96 228.96 228.96 228.96 228.96 228.96 
M 450.72 228.96 
z
"/>
  </clipPath>
 </defs>
</svg>
