<?xml version="1.0" encoding="utf-8" standalone="no"?>
<!DOCTYPE svg PUBLIC "-//W3C//DTD SVG 1.1//EN"
  "http://www.w3.org/Graphics/SVG/1.1/DTD/svg11.dtd">
<svg xmlns:xlink="http://www.w3.org/1999/xlink" width="720pt" height="720pt" viewBox="0 0 720 720" xmlns="http://www.w3.org/2000/svg" version="1.1">
 <metadata>
  <rdf:RDF xmlns:dc="http://purl.org/dc/elements/1.1/" xmlns:cc="http://creativecommons.org/ns#" xmlns:rdf="http://www.w3.org/1999/02/22-rdf-syntax-ns#">
   <cc:Work>
    <dc:type rdf:resource="http://purl.org/dc/dcmitype/StillImage"/>
    <dc:date>2024-03-05T10:38:36.486066</dc:date>
    <dc:format>image/svg+xml</dc:format>
    <dc:creator>
     <cc:Agent>
      <dc:title>Matplotlib v3.5.3, https://matplotlib.org/</dc:title>
     </cc:Agent>
    </dc:creator>
   </cc:Work>
  </rdf:RDF>
 </metadata>
 <defs>
  <style type="text/css">*{stroke-linejoin: round; stroke-linecap: butt}</style>
 </defs>
 <g id="figure_1">
  <g id="patch_1">
   <path d="M 0 720 
L 720 720 
L 720 0 
L 0 0 
z
" style="fill: #ffffff"/>
  </g>
  <g id="axes_1">
   <g id="patch_2">
    <path d="M 312.48 197.28 
C 312.48 182.719372 309.611874 168.300327 304.039763 154.848061 
C 298.467651 141.395795 290.299919 129.171919 280.004 118.876 
C 269.708081 108.580081 257.484205 100.412349 244.031939 94.840237 
C 230.579673 89.268126 216.160628 86.4 201.6 86.4 
C 187.039372 86.4 172.620327 89.268126 159.168061 94.840237 
C 145.715795 100.412349 133.491919 108.580081 123.196 118.876 
C 112.900081 129.171919 104.732349 141.395795 99.160237 154.848061 
C 93.588126 168.300327 90.72 182.719372 90.72 197.28 
C 90.72 211.840628 93.588126 226.259673 99.160237 239.711939 
C 104.732349 253.164205 112.900081 265.388081 123.196 275.684 
C 133.491919 285.979919 145.715795 294.147651 159.168061 299.719763 
C 172.620327 305.291874 187.039372 308.16 201.6 308.16 
C 216.160628 308.16 230.579673 305.291874 244.031939 299.719763 
C 257.484205 294.147651 269.708081 285.979919 280.004 275.684 
C 290.299919 265.388081 298.467651 253.164205 304.039763 239.711939 
C 309.611874 226.259673 312.48 211.840628 312.48 197.28 
M 201.6 197.28 
C 201.6 197.28 201.6 197.28 201.6 197.28 
C 201.6 197.28 201.6 197.28 201.6 197.28 
C 201.6 197.28 201.6 197.28 201.6 197.28 
C 201.6 197.28 201.6 197.28 201.6 197.28 
C 201.6 197.28 201.6 197.28 201.6 197.28 
C 201.6 197.28 201.6 197.28 201.6 197.28 
C 201.6 197.28 201.6 197.28 201.6 197.28 
C 201.6 197.28 201.6 197.28 201.6 197.28 
C 201.6 197.28 201.6 197.28 201.6 197.28 
C 201.6 197.28 201.6 197.28 201.6 197.28 
C 201.6 197.28 201.6 197.28 201.6 197.28 
C 201.6 197.28 201.6 197.28 201.6 197.28 
C 201.6 197.28 201.6 197.28 201.6 197.28 
C 201.6 197.28 201.6 197.28 201.6 197.28 
C 201.6 197.28 201.6 197.28 201.6 197.28 
C 201.6 197.28 201.6 197.28 201.6 197.28 
M 312.48 197.28 
z
" style="fill: #ffffff"/>
   </g>
   <g id="patch_3">
    <path d="M 299.861977 197.28 
L 148.01422 104.466706 
L 185.098612 225.861243 
z
" clip-path="url(#pe9b59fb1fb)" style="fill: #ff0000; opacity: 0.25; stroke: #ff0000; stroke-linejoin: miter"/>
   </g>
   <g id="matplotlib.axis_1">
    <g id="xtick_1">
     <g id="line2d_1">
      <path d="M 201.6 197.28 
L 312.48 197.28 
" clip-path="url(#pe9b59fb1fb)" style="fill: none; stroke: #b0b0b0; stroke-width: 0.8; stroke-linecap: square"/>
     </g>
     <g id="text_1">
      <!-- Sellers -->
      <g transform="translate(306.36125 200.59125)scale(0.12 -0.12)">
       <defs>
        <path id="DejaVuSans-53" d="M 3425 4513 
L 3425 3897 
Q 3066 4069 2747 4153 
Q 2428 4238 2131 4238 
Q 1616 4238 1336 4038 
Q 1056 3838 1056 3469 
Q 1056 3159 1242 3001 
Q 1428 2844 1947 2747 
L 2328 2669 
Q 3034 2534 3370 2195 
Q 3706 1856 3706 1288 
Q 3706 609 3251 259 
Q 2797 -91 1919 -91 
Q 1588 -91 1214 -16 
Q 841 59 441 206 
L 441 856 
Q 825 641 1194 531 
Q 1563 422 1919 422 
Q 2459 422 2753 634 
Q 3047 847 3047 1241 
Q 3047 1584 2836 1778 
Q 2625 1972 2144 2069 
L 1759 2144 
Q 1053 2284 737 2584 
Q 422 2884 422 3419 
Q 422 4038 858 4394 
Q 1294 4750 2059 4750 
Q 2388 4750 2728 4690 
Q 3069 4631 3425 4513 
z
" transform="scale(0.015625)"/>
        <path id="DejaVuSans-65" d="M 3597 1894 
L 3597 1613 
L 953 1613 
Q 991 1019 1311 708 
Q 1631 397 2203 397 
Q 2534 397 2845 478 
Q 3156 559 3463 722 
L 3463 178 
Q 3153 47 2828 -22 
Q 2503 -91 2169 -91 
Q 1331 -91 842 396 
Q 353 884 353 1716 
Q 353 2575 817 3079 
Q 1281 3584 2069 3584 
Q 2775 3584 3186 3129 
Q 3597 2675 3597 1894 
z
M 3022 2063 
Q 3016 2534 2758 2815 
Q 2500 3097 2075 3097 
Q 1594 3097 1305 2825 
Q 1016 2553 972 2059 
L 3022 2063 
z
" transform="scale(0.015625)"/>
        <path id="DejaVuSans-6c" d="M 603 4863 
L 1178 4863 
L 1178 0 
L 603 0 
L 603 4863 
z
" transform="scale(0.015625)"/>
        <path id="DejaVuSans-72" d="M 2631 2963 
Q 2534 3019 2420 3045 
Q 2306 3072 2169 3072 
Q 1681 3072 1420 2755 
Q 1159 2438 1159 1844 
L 1159 0 
L 581 0 
L 581 3500 
L 1159 3500 
L 1159 2956 
Q 1341 3275 1631 3429 
Q 1922 3584 2338 3584 
Q 2397 3584 2469 3576 
Q 2541 3569 2628 3553 
L 2631 2963 
z
" transform="scale(0.015625)"/>
        <path id="DejaVuSans-73" d="M 2834 3397 
L 2834 2853 
Q 2591 2978 2328 3040 
Q 2066 3103 1784 3103 
Q 1356 3103 1142 2972 
Q 928 2841 928 2578 
Q 928 2378 1081 2264 
Q 1234 2150 1697 2047 
L 1894 2003 
Q 2506 1872 2764 1633 
Q 3022 1394 3022 966 
Q 3022 478 2636 193 
Q 2250 -91 1575 -91 
Q 1294 -91 989 -36 
Q 684 19 347 128 
L 347 722 
Q 666 556 975 473 
Q 1284 391 1588 391 
Q 1994 391 2212 530 
Q 2431 669 2431 922 
Q 2431 1156 2273 1281 
Q 2116 1406 1581 1522 
L 1381 1569 
Q 847 1681 609 1914 
Q 372 2147 372 2553 
Q 372 3047 722 3315 
Q 1072 3584 1716 3584 
Q 2034 3584 2315 3537 
Q 2597 3491 2834 3397 
z
" transform="scale(0.015625)"/>
       </defs>
       <use xlink:href="#DejaVuSans-53"/>
       <use xlink:href="#DejaVuSans-65" x="63.476562"/>
       <use xlink:href="#DejaVuSans-6c" x="125"/>
       <use xlink:href="#DejaVuSans-6c" x="152.783203"/>
       <use xlink:href="#DejaVuSans-65" x="180.566406"/>
       <use xlink:href="#DejaVuSans-72" x="242.089844"/>
       <use xlink:href="#DejaVuSans-73" x="283.203125"/>
      </g>
     </g>
    </g>
    <g id="xtick_2">
     <g id="line2d_2">
      <path d="M 201.6 197.28 
L 146.16 101.255103 
" clip-path="url(#pe9b59fb1fb)" style="fill: none; stroke: #b0b0b0; stroke-width: 0.8; stroke-linecap: square"/>
     </g>
     <g id="text_2">
      <!-- Buyers -->
      <g transform="translate(118.405625 92.441998)scale(0.12 -0.12)">
       <defs>
        <path id="DejaVuSans-42" d="M 1259 2228 
L 1259 519 
L 2272 519 
Q 2781 519 3026 730 
Q 3272 941 3272 1375 
Q 3272 1813 3026 2020 
Q 2781 2228 2272 2228 
L 1259 2228 
z
M 1259 4147 
L 1259 2741 
L 2194 2741 
Q 2656 2741 2882 2914 
Q 3109 3088 3109 3444 
Q 3109 3797 2882 3972 
Q 2656 4147 2194 4147 
L 1259 4147 
z
M 628 4666 
L 2241 4666 
Q 2963 4666 3353 4366 
Q 3744 4066 3744 3513 
Q 3744 3084 3544 2831 
Q 3344 2578 2956 2516 
Q 3422 2416 3680 2098 
Q 3938 1781 3938 1306 
Q 3938 681 3513 340 
Q 3088 0 2303 0 
L 628 0 
L 628 4666 
z
" transform="scale(0.015625)"/>
        <path id="DejaVuSans-75" d="M 544 1381 
L 544 3500 
L 1119 3500 
L 1119 1403 
Q 1119 906 1312 657 
Q 1506 409 1894 409 
Q 2359 409 2629 706 
Q 2900 1003 2900 1516 
L 2900 3500 
L 3475 3500 
L 3475 0 
L 2900 0 
L 2900 538 
Q 2691 219 2414 64 
Q 2138 -91 1772 -91 
Q 1169 -91 856 284 
Q 544 659 544 1381 
z
M 1991 3584 
L 1991 3584 
z
" transform="scale(0.015625)"/>
        <path id="DejaVuSans-79" d="M 2059 -325 
Q 1816 -950 1584 -1140 
Q 1353 -1331 966 -1331 
L 506 -1331 
L 506 -850 
L 844 -850 
Q 1081 -850 1212 -737 
Q 1344 -625 1503 -206 
L 1606 56 
L 191 3500 
L 800 3500 
L 1894 763 
L 2988 3500 
L 3597 3500 
L 2059 -325 
z
" transform="scale(0.015625)"/>
       </defs>
       <use xlink:href="#DejaVuSans-42"/>
       <use xlink:href="#DejaVuSans-75" x="68.603516"/>
       <use xlink:href="#DejaVuSans-79" x="131.982422"/>
       <use xlink:href="#DejaVuSans-65" x="191.162109"/>
       <use xlink:href="#DejaVuSans-72" x="252.685547"/>
       <use xlink:href="#DejaVuSans-73" x="293.798828"/>
      </g>
     </g>
    </g>
    <g id="xtick_3">
     <g id="line2d_3">
      <path d="M 201.6 197.28 
L 146.16 293.304897 
" clip-path="url(#pe9b59fb1fb)" style="fill: none; stroke: #b0b0b0; stroke-width: 0.8; stroke-linecap: square"/>
     </g>
     <g id="text_3">
      <!-- Arbiter -->
      <g transform="translate(118.6025 308.740502)scale(0.12 -0.12)">
       <defs>
        <path id="DejaVuSans-41" d="M 2188 4044 
L 1331 1722 
L 3047 1722 
L 2188 4044 
z
M 1831 4666 
L 2547 4666 
L 4325 0 
L 3669 0 
L 3244 1197 
L 1141 1197 
L 716 0 
L 50 0 
L 1831 4666 
z
" transform="scale(0.015625)"/>
        <path id="DejaVuSans-62" d="M 3116 1747 
Q 3116 2381 2855 2742 
Q 2594 3103 2138 3103 
Q 1681 3103 1420 2742 
Q 1159 2381 1159 1747 
Q 1159 1113 1420 752 
Q 1681 391 2138 391 
Q 2594 391 2855 752 
Q 3116 1113 3116 1747 
z
M 1159 2969 
Q 1341 3281 1617 3432 
Q 1894 3584 2278 3584 
Q 2916 3584 3314 3078 
Q 3713 2572 3713 1747 
Q 3713 922 3314 415 
Q 2916 -91 2278 -91 
Q 1894 -91 1617 61 
Q 1341 213 1159 525 
L 1159 0 
L 581 0 
L 581 4863 
L 1159 4863 
L 1159 2969 
z
" transform="scale(0.015625)"/>
        <path id="DejaVuSans-69" d="M 603 3500 
L 1178 3500 
L 1178 0 
L 603 0 
L 603 3500 
z
M 603 4863 
L 1178 4863 
L 1178 4134 
L 603 4134 
L 603 4863 
z
" transform="scale(0.015625)"/>
        <path id="DejaVuSans-74" d="M 1172 4494 
L 1172 3500 
L 2356 3500 
L 2356 3053 
L 1172 3053 
L 1172 1153 
Q 1172 725 1289 603 
Q 1406 481 1766 481 
L 2356 481 
L 2356 0 
L 1766 0 
Q 1100 0 847 248 
Q 594 497 594 1153 
L 594 3053 
L 172 3053 
L 172 3500 
L 594 3500 
L 594 4494 
L 1172 4494 
z
" transform="scale(0.015625)"/>
       </defs>
       <use xlink:href="#DejaVuSans-41"/>
       <use xlink:href="#DejaVuSans-72" x="68.408203"/>
       <use xlink:href="#DejaVuSans-62" x="109.521484"/>
       <use xlink:href="#DejaVuSans-69" x="172.998047"/>
       <use xlink:href="#DejaVuSans-74" x="200.78125"/>
       <use xlink:href="#DejaVuSans-65" x="239.990234"/>
       <use xlink:href="#DejaVuSans-72" x="301.513672"/>
      </g>
     </g>
    </g>
   </g>
   <g id="matplotlib.axis_2">
    <g id="ytick_1">
     <g id="line2d_4">
      <path d="M 224.923517 197.28 
C 224.923517 194.217184 224.320209 191.18415 223.14812 188.354476 
C 221.976031 185.524803 220.257955 182.953521 218.092217 180.787783 
C 215.926479 178.622045 213.355197 176.903969 210.525524 175.73188 
C 207.69585 174.559791 204.662816 173.956483 201.6 173.956483 
C 198.537184 173.956483 195.50415 174.559791 192.674476 175.73188 
C 189.844803 176.903969 187.273521 178.622045 185.107783 180.787783 
C 182.942045 182.953521 181.223969 185.524803 180.05188 188.354476 
C 178.879791 191.18415 178.276483 194.217184 178.276483 197.28 
C 178.276483 200.342816 178.879791 203.37585 180.05188 206.205524 
C 181.223969 209.035197 182.942045 211.606479 185.107783 213.772217 
C 187.273521 215.937955 189.844803 217.656031 192.674476 218.82812 
C 195.50415 220.000209 198.537184 220.603517 201.6 220.603517 
C 204.662816 220.603517 207.69585 220.000209 210.525524 218.82812 
C 213.355197 217.656031 215.926479 215.937955 218.092217 213.772217 
C 220.257955 211.606479 221.976031 209.035197 223.14812 206.205524 
C 224.320209 203.37585 224.923517 200.342816 224.923517 197.28 
" clip-path="url(#pe9b59fb1fb)" style="fill: none; stroke: #b0b0b0; stroke-width: 0.8; stroke-linecap: square"/>
     </g>
     <g id="text_4">
      <!-- 10 -->
      <g transform="translate(223.14812 186.274789)scale(0.1 -0.1)">
       <defs>
        <path id="DejaVuSans-31" d="M 794 531 
L 1825 531 
L 1825 4091 
L 703 3866 
L 703 4441 
L 1819 4666 
L 2450 4666 
L 2450 531 
L 3481 531 
L 3481 0 
L 794 0 
L 794 531 
z
" transform="scale(0.015625)"/>
        <path id="DejaVuSans-30" d="M 2034 4250 
Q 1547 4250 1301 3770 
Q 1056 3291 1056 2328 
Q 1056 1369 1301 889 
Q 1547 409 2034 409 
Q 2525 409 2770 889 
Q 3016 1369 3016 2328 
Q 3016 3291 2770 3770 
Q 2525 4250 2034 4250 
z
M 2034 4750 
Q 2819 4750 3233 4129 
Q 3647 3509 3647 2328 
Q 3647 1150 3233 529 
Q 2819 -91 2034 -91 
Q 1250 -91 836 529 
Q 422 1150 422 2328 
Q 422 3509 836 4129 
Q 1250 4750 2034 4750 
z
" transform="scale(0.015625)"/>
       </defs>
       <use xlink:href="#DejaVuSans-31"/>
       <use xlink:href="#DejaVuSans-30" x="63.623047"/>
      </g>
     </g>
    </g>
    <g id="ytick_2">
     <g id="line2d_5">
      <path d="M 248.247034 197.28 
C 248.247034 191.154368 247.040418 185.088299 244.69624 179.428953 
C 242.352062 173.769607 238.91591 168.627042 234.584434 164.295566 
C 230.252958 159.96409 225.110393 156.527938 219.451047 154.18376 
C 213.791701 151.839582 207.725632 150.632966 201.6 150.632966 
C 195.474368 150.632966 189.408299 151.839582 183.748953 154.18376 
C 178.089607 156.527938 172.947042 159.96409 168.615566 164.295566 
C 164.28409 168.627042 160.847938 173.769607 158.50376 179.428953 
C 156.159582 185.088299 154.952966 191.154368 154.952966 197.28 
C 154.952966 203.405632 156.159582 209.471701 158.50376 215.131047 
C 160.847938 220.790393 164.28409 225.932958 168.615566 230.264434 
C 172.947042 234.59591 178.089607 238.032062 183.748953 240.37624 
C 189.408299 242.720418 195.474368 243.927034 201.6 243.927034 
C 207.725632 243.927034 213.791701 242.720418 219.451047 240.37624 
C 225.110393 238.032062 230.252958 234.59591 234.584434 230.264434 
C 238.91591 225.932958 242.352062 220.790393 244.69624 215.131047 
C 247.040418 209.471701 248.247034 203.405632 248.247034 197.28 
" clip-path="url(#pe9b59fb1fb)" style="fill: none; stroke: #b0b0b0; stroke-width: 0.8; stroke-linecap: square"/>
     </g>
     <g id="text_5">
      <!-- 20 -->
      <g transform="translate(244.69624 177.349265)scale(0.1 -0.1)">
       <defs>
        <path id="DejaVuSans-32" d="M 1228 531 
L 3431 531 
L 3431 0 
L 469 0 
L 469 531 
Q 828 903 1448 1529 
Q 2069 2156 2228 2338 
Q 2531 2678 2651 2914 
Q 2772 3150 2772 3378 
Q 2772 3750 2511 3984 
Q 2250 4219 1831 4219 
Q 1534 4219 1204 4116 
Q 875 4013 500 3803 
L 500 4441 
Q 881 4594 1212 4672 
Q 1544 4750 1819 4750 
Q 2544 4750 2975 4387 
Q 3406 4025 3406 3419 
Q 3406 3131 3298 2873 
Q 3191 2616 2906 2266 
Q 2828 2175 2409 1742 
Q 1991 1309 1228 531 
z
" transform="scale(0.015625)"/>
       </defs>
       <use xlink:href="#DejaVuSans-32"/>
       <use xlink:href="#DejaVuSans-30" x="63.623047"/>
      </g>
     </g>
    </g>
    <g id="ytick_3">
     <g id="line2d_6">
      <path d="M 271.570551 197.28 
C 271.570551 188.091551 269.760627 178.992449 266.24436 170.503429 
C 262.728093 162.01441 257.573865 154.300563 251.076651 147.803349 
C 244.579437 141.306135 236.86559 136.151907 228.376571 132.63564 
C 219.887551 129.119373 210.788449 127.309449 201.6 127.309449 
C 192.411551 127.309449 183.312449 129.119373 174.823429 132.63564 
C 166.33441 136.151907 158.620563 141.306135 152.123349 147.803349 
C 145.626135 154.300563 140.471907 162.01441 136.95564 170.503429 
C 133.439373 178.992449 131.629449 188.091551 131.629449 197.28 
C 131.629449 206.468449 133.439373 215.567551 136.95564 224.056571 
C 140.471907 232.54559 145.626135 240.259437 152.123349 246.756651 
C 158.620563 253.253865 166.33441 258.408093 174.823429 261.92436 
C 183.312449 265.440627 192.411551 267.250551 201.6 267.250551 
C 210.788449 267.250551 219.887551 265.440627 228.376571 261.92436 
C 236.86559 258.408093 244.579437 253.253865 251.076651 246.756651 
C 257.573865 240.259437 262.728093 232.54559 266.24436 224.056571 
C 269.760627 215.567551 271.570551 206.468449 271.570551 197.28 
" clip-path="url(#pe9b59fb1fb)" style="fill: none; stroke: #b0b0b0; stroke-width: 0.8; stroke-linecap: square"/>
     </g>
     <g id="text_6">
      <!-- 30 -->
      <g transform="translate(266.24436 168.423742)scale(0.1 -0.1)">
       <defs>
        <path id="DejaVuSans-33" d="M 2597 2516 
Q 3050 2419 3304 2112 
Q 3559 1806 3559 1356 
Q 3559 666 3084 287 
Q 2609 -91 1734 -91 
Q 1441 -91 1130 -33 
Q 819 25 488 141 
L 488 750 
Q 750 597 1062 519 
Q 1375 441 1716 441 
Q 2309 441 2620 675 
Q 2931 909 2931 1356 
Q 2931 1769 2642 2001 
Q 2353 2234 1838 2234 
L 1294 2234 
L 1294 2753 
L 1863 2753 
Q 2328 2753 2575 2939 
Q 2822 3125 2822 3475 
Q 2822 3834 2567 4026 
Q 2313 4219 1838 4219 
Q 1578 4219 1281 4162 
Q 984 4106 628 3988 
L 628 4550 
Q 988 4650 1302 4700 
Q 1616 4750 1894 4750 
Q 2613 4750 3031 4423 
Q 3450 4097 3450 3541 
Q 3450 3153 3228 2886 
Q 3006 2619 2597 2516 
z
" transform="scale(0.015625)"/>
       </defs>
       <use xlink:href="#DejaVuSans-33"/>
       <use xlink:href="#DejaVuSans-30" x="63.623047"/>
      </g>
     </g>
    </g>
    <g id="ytick_4">
     <g id="line2d_7">
      <path d="M 294.894068 197.28 
C 294.894068 185.028735 292.480836 172.896599 287.79248 161.577906 
C 283.104124 150.259213 276.231821 139.974084 267.568868 131.311132 
C 258.905916 122.648179 248.620787 115.775876 237.302094 111.08752 
C 225.983401 106.399164 213.851265 103.985932 201.6 103.985932 
C 189.348735 103.985932 177.216599 106.399164 165.897906 111.08752 
C 154.579213 115.775876 144.294084 122.648179 135.631132 131.311132 
C 126.968179 139.974084 120.095876 150.259213 115.40752 161.577906 
C 110.719164 172.896599 108.305932 185.028735 108.305932 197.28 
C 108.305932 209.531265 110.719164 221.663401 115.40752 232.982094 
C 120.095876 244.300787 126.968179 254.585916 135.631132 263.248868 
C 144.294084 271.911821 154.579213 278.784124 165.897906 283.47248 
C 177.216599 288.160836 189.348735 290.574068 201.6 290.574068 
C 213.851265 290.574068 225.983401 288.160836 237.302094 283.47248 
C 248.620787 278.784124 258.905916 271.911821 267.568868 263.248868 
C 276.231821 254.585916 283.104124 244.300787 287.79248 232.982094 
C 292.480836 221.663401 294.894068 209.531265 294.894068 197.28 
" clip-path="url(#pe9b59fb1fb)" style="fill: none; stroke: #b0b0b0; stroke-width: 0.8; stroke-linecap: square"/>
     </g>
     <g id="text_7">
      <!-- 40 -->
      <g transform="translate(287.79248 159.498218)scale(0.1 -0.1)">
       <defs>
        <path id="DejaVuSans-34" d="M 2419 4116 
L 825 1625 
L 2419 1625 
L 2419 4116 
z
M 2253 4666 
L 3047 4666 
L 3047 1625 
L 3713 1625 
L 3713 1100 
L 3047 1100 
L 3047 0 
L 2419 0 
L 2419 1100 
L 313 1100 
L 313 1709 
L 2253 4666 
z
" transform="scale(0.015625)"/>
       </defs>
       <use xlink:href="#DejaVuSans-34"/>
       <use xlink:href="#DejaVuSans-30" x="63.623047"/>
      </g>
     </g>
    </g>
   </g>
   <g id="line2d_8">
    <path d="M 299.861977 197.28 
L 148.01422 104.466706 
L 185.098612 225.861243 
L 299.861977 197.28 
" clip-path="url(#pe9b59fb1fb)" style="fill: none; stroke: #ff0000; stroke-width: 2; stroke-linecap: square"/>
   </g>
   <g id="patch_4">
    <path d="M 312.48 197.28 
C 312.48 182.719372 309.611874 168.300327 304.039763 154.848061 
C 298.467651 141.395795 290.299919 129.171919 280.004 118.876 
C 269.708081 108.580081 257.484205 100.412349 244.031939 94.840237 
C 230.579673 89.268126 216.160628 86.4 201.6 86.4 
C 187.039372 86.4 172.620327 89.268126 159.168061 94.840237 
C 145.715795 100.412349 133.491919 108.580081 123.196 118.876 
C 112.900081 129.171919 104.732349 141.395795 99.160237 154.848061 
C 93.588126 168.300327 90.72 182.719372 90.72 197.28 
C 90.72 211.840628 93.588126 226.259673 99.160237 239.711939 
C 104.732349 253.164205 112.900081 265.388081 123.196 275.684 
C 133.491919 285.979919 145.715795 294.147651 159.168061 299.719763 
C 172.620327 305.291874 187.039372 308.16 201.6 308.16 
C 216.160628 308.16 230.579673 305.291874 244.031939 299.719763 
C 257.484205 294.147651 269.708081 285.979919 280.004 275.684 
C 290.299919 265.388081 298.467651 253.164205 304.039763 239.711939 
C 309.611874 226.259673 312.48 211.840628 312.48 197.28 
" style="fill: none; stroke: #000000; stroke-width: 0.8; stroke-linejoin: miter; stroke-linecap: square"/>
   </g>
   <g id="text_8">
    <!-- CIFAR10 -->
    <g transform="translate(176.828438 80.4)scale(0.12 -0.12)">
     <defs>
      <path id="DejaVuSans-43" d="M 4122 4306 
L 4122 3641 
Q 3803 3938 3442 4084 
Q 3081 4231 2675 4231 
Q 1875 4231 1450 3742 
Q 1025 3253 1025 2328 
Q 1025 1406 1450 917 
Q 1875 428 2675 428 
Q 3081 428 3442 575 
Q 3803 722 4122 1019 
L 4122 359 
Q 3791 134 3420 21 
Q 3050 -91 2638 -91 
Q 1578 -91 968 557 
Q 359 1206 359 2328 
Q 359 3453 968 4101 
Q 1578 4750 2638 4750 
Q 3056 4750 3426 4639 
Q 3797 4528 4122 4306 
z
" transform="scale(0.015625)"/>
      <path id="DejaVuSans-49" d="M 628 4666 
L 1259 4666 
L 1259 0 
L 628 0 
L 628 4666 
z
" transform="scale(0.015625)"/>
      <path id="DejaVuSans-46" d="M 628 4666 
L 3309 4666 
L 3309 4134 
L 1259 4134 
L 1259 2759 
L 3109 2759 
L 3109 2228 
L 1259 2228 
L 1259 0 
L 628 0 
L 628 4666 
z
" transform="scale(0.015625)"/>
      <path id="DejaVuSans-52" d="M 2841 2188 
Q 3044 2119 3236 1894 
Q 3428 1669 3622 1275 
L 4263 0 
L 3584 0 
L 2988 1197 
Q 2756 1666 2539 1819 
Q 2322 1972 1947 1972 
L 1259 1972 
L 1259 0 
L 628 0 
L 628 4666 
L 2053 4666 
Q 2853 4666 3247 4331 
Q 3641 3997 3641 3322 
Q 3641 2881 3436 2590 
Q 3231 2300 2841 2188 
z
M 1259 4147 
L 1259 2491 
L 2053 2491 
Q 2509 2491 2742 2702 
Q 2975 2913 2975 3322 
Q 2975 3731 2742 3939 
Q 2509 4147 2053 4147 
L 1259 4147 
z
" transform="scale(0.015625)"/>
     </defs>
     <use xlink:href="#DejaVuSans-43"/>
     <use xlink:href="#DejaVuSans-49" x="69.824219"/>
     <use xlink:href="#DejaVuSans-46" x="99.316406"/>
     <use xlink:href="#DejaVuSans-41" x="147.710938"/>
     <use xlink:href="#DejaVuSans-52" x="216.119141"/>
     <use xlink:href="#DejaVuSans-31" x="285.601562"/>
     <use xlink:href="#DejaVuSans-30" x="349.224609"/>
    </g>
   </g>
  </g>
  <g id="axes_2">
   <g id="patch_5">
    <path d="M 647.28 197.28 
C 647.28 182.719372 644.411874 168.300327 638.839763 154.848061 
C 633.267651 141.395795 625.099919 129.171919 614.804 118.876 
C 604.508081 108.580081 592.284205 100.412349 578.831939 94.840237 
C 565.379673 89.268126 550.960628 86.4 536.4 86.4 
C 521.839372 86.4 507.420327 89.268126 493.968061 94.840237 
C 480.515795 100.412349 468.291919 108.580081 457.996 118.876 
C 447.700081 129.171919 439.532349 141.395795 433.960237 154.848061 
C 428.388126 168.300327 425.52 182.719372 425.52 197.28 
C 425.52 211.840628 428.388126 226.259673 433.960237 239.711939 
C 439.532349 253.164205 447.700081 265.388081 457.996 275.684 
C 468.291919 285.979919 480.515795 294.147651 493.968061 299.719763 
C 507.420327 305.291874 521.839372 308.16 536.4 308.16 
C 550.960628 308.16 565.379673 305.291874 578.831939 299.719763 
C 592.284205 294.147651 604.508081 285.979919 614.804 275.684 
C 625.099919 265.388081 633.267651 253.164205 638.839763 239.711939 
C 644.411874 226.259673 647.28 211.840628 647.28 197.28 
M 536.4 197.28 
C 536.4 197.28 536.4 197.28 536.4 197.28 
C 536.4 197.28 536.4 197.28 536.4 197.28 
C 536.4 197.28 536.4 197.28 536.4 197.28 
C 536.4 197.28 536.4 197.28 536.4 197.28 
C 536.4 197.28 536.4 197.28 536.4 197.28 
C 536.4 197.28 536.4 197.28 536.4 197.28 
C 536.4 197.28 536.4 197.28 536.4 197.28 
C 536.4 197.28 536.4 197.28 536.4 197.28 
C 536.4 197.28 536.4 197.28 536.4 197.28 
C 536.4 197.28 536.4 197.28 536.4 197.28 
C 536.4 197.28 536.4 197.28 536.4 197.28 
C 536.4 197.28 536.4 197.28 536.4 197.28 
C 536.4 197.28 536.4 197.28 536.4 197.28 
C 536.4 197.28 536.4 197.28 536.4 197.28 
C 536.4 197.28 536.4 197.28 536.4 197.28 
C 536.4 197.28 536.4 197.28 536.4 197.28 
M 647.28 197.28 
z
" style="fill: #ffffff"/>
   </g>
   <g id="patch_6">
    <path d="M 643.8346 197.28 
L 485.063422 108.362438 
L 517.136698 230.645017 
z
" clip-path="url(#p69e229e2c8)" style="fill: #0000ff; opacity: 0.25; stroke: #0000ff; stroke-linejoin: miter"/>
   </g>
   <g id="matplotlib.axis_3">
    <g id="xtick_4">
     <g id="line2d_9">
      <path d="M 536.4 197.28 
L 647.28 197.28 
" clip-path="url(#p69e229e2c8)" style="fill: none; stroke: #b0b0b0; stroke-width: 0.8; stroke-linecap: square"/>
     </g>
     <g id="text_9">
      <!-- Sellers -->
      <g transform="translate(641.16125 200.59125)scale(0.12 -0.12)">
       <use xlink:href="#DejaVuSans-53"/>
       <use xlink:href="#DejaVuSans-65" x="63.476562"/>
       <use xlink:href="#DejaVuSans-6c" x="125"/>
       <use xlink:href="#DejaVuSans-6c" x="152.783203"/>
       <use xlink:href="#DejaVuSans-65" x="180.566406"/>
       <use xlink:href="#DejaVuSans-72" x="242.089844"/>
       <use xlink:href="#DejaVuSans-73" x="283.203125"/>
      </g>
     </g>
    </g>
    <g id="xtick_5">
     <g id="line2d_10">
      <path d="M 536.4 197.28 
L 480.96 101.255103 
" clip-path="url(#p69e229e2c8)" style="fill: none; stroke: #b0b0b0; stroke-width: 0.8; stroke-linecap: square"/>
     </g>
     <g id="text_10">
      <!-- Buyers -->
      <g transform="translate(453.205625 92.441998)scale(0.12 -0.12)">
       <use xlink:href="#DejaVuSans-42"/>
       <use xlink:href="#DejaVuSans-75" x="68.603516"/>
       <use xlink:href="#DejaVuSans-79" x="131.982422"/>
       <use xlink:href="#DejaVuSans-65" x="191.162109"/>
       <use xlink:href="#DejaVuSans-72" x="252.685547"/>
       <use xlink:href="#DejaVuSans-73" x="293.798828"/>
      </g>
     </g>
    </g>
    <g id="xtick_6">
     <g id="line2d_11">
      <path d="M 536.4 197.28 
L 480.96 293.304897 
" clip-path="url(#p69e229e2c8)" style="fill: none; stroke: #b0b0b0; stroke-width: 0.8; stroke-linecap: square"/>
     </g>
     <g id="text_11">
      <!-- Arbiter -->
      <g transform="translate(453.4025 308.740502)scale(0.12 -0.12)">
       <use xlink:href="#DejaVuSans-41"/>
       <use xlink:href="#DejaVuSans-72" x="68.408203"/>
       <use xlink:href="#DejaVuSans-62" x="109.521484"/>
       <use xlink:href="#DejaVuSans-69" x="172.998047"/>
       <use xlink:href="#DejaVuSans-74" x="200.78125"/>
       <use xlink:href="#DejaVuSans-65" x="239.990234"/>
       <use xlink:href="#DejaVuSans-72" x="301.513672"/>
      </g>
     </g>
    </g>
   </g>
   <g id="matplotlib.axis_4">
    <g id="ytick_5">
     <g id="line2d_12">
      <path d="M 560.569764 197.28 
C 560.569764 194.106056 559.944566 190.962974 558.72995 188.030632 
C 557.515334 185.09829 555.734921 182.433714 553.490604 180.189396 
C 551.246286 177.945079 548.58171 176.164666 545.649368 174.95005 
C 542.717026 173.735434 539.573944 173.110236 536.4 173.110236 
C 533.226056 173.110236 530.082974 173.735434 527.150632 174.95005 
C 524.21829 176.164666 521.553714 177.945079 519.309396 180.189396 
C 517.065079 182.433714 515.284666 185.09829 514.07005 188.030632 
C 512.855434 190.962974 512.230236 194.106056 512.230236 197.28 
C 512.230236 200.453944 512.855434 203.597026 514.07005 206.529368 
C 515.284666 209.46171 517.065079 212.126286 519.309396 214.370604 
C 521.553714 216.614921 524.21829 218.395334 527.150632 219.60995 
C 530.082974 220.824566 533.226056 221.449764 536.4 221.449764 
C 539.573944 221.449764 542.717026 220.824566 545.649368 219.60995 
C 548.58171 218.395334 551.246286 216.614921 553.490604 214.370604 
C 555.734921 212.126286 557.515334 209.46171 558.72995 206.529368 
C 559.944566 203.597026 560.569764 200.453944 560.569764 197.28 
" clip-path="url(#p69e229e2c8)" style="fill: none; stroke: #b0b0b0; stroke-width: 0.8; stroke-linecap: square"/>
     </g>
     <g id="text_12">
      <!-- 10 -->
      <g transform="translate(558.72995 185.950944)scale(0.1 -0.1)">
       <use xlink:href="#DejaVuSans-31"/>
       <use xlink:href="#DejaVuSans-30" x="63.623047"/>
      </g>
     </g>
    </g>
    <g id="ytick_6">
     <g id="line2d_13">
      <path d="M 584.739528 197.28 
C 584.739528 190.932111 583.489132 184.645948 581.0599 178.781264 
C 578.630668 172.916579 575.069843 167.587427 570.581208 163.098792 
C 566.092573 158.610157 560.763421 155.049332 554.898736 152.6201 
C 549.034052 150.190868 542.747889 148.940472 536.4 148.940472 
C 530.052111 148.940472 523.765948 150.190868 517.901264 152.6201 
C 512.036579 155.049332 506.707427 158.610157 502.218792 163.098792 
C 497.730157 167.587427 494.169332 172.916579 491.7401 178.781264 
C 489.310868 184.645948 488.060472 190.932111 488.060472 197.28 
C 488.060472 203.627889 489.310868 209.914052 491.7401 215.778736 
C 494.169332 221.643421 497.730157 226.972573 502.218792 231.461208 
C 506.707427 235.949843 512.036579 239.510668 517.901264 241.9399 
C 523.765948 244.369132 530.052111 245.619528 536.4 245.619528 
C 542.747889 245.619528 549.034052 244.369132 554.898736 241.9399 
C 560.763421 239.510668 566.092573 235.949843 570.581208 231.461208 
C 575.069843 226.972573 578.630668 221.643421 581.0599 215.778736 
C 583.489132 209.914052 584.739528 203.627889 584.739528 197.28 
" clip-path="url(#p69e229e2c8)" style="fill: none; stroke: #b0b0b0; stroke-width: 0.8; stroke-linecap: square"/>
     </g>
     <g id="text_13">
      <!-- 20 -->
      <g transform="translate(581.0599 176.701576)scale(0.1 -0.1)">
       <use xlink:href="#DejaVuSans-32"/>
       <use xlink:href="#DejaVuSans-30" x="63.623047"/>
      </g>
     </g>
    </g>
    <g id="ytick_7">
     <g id="line2d_14">
      <path d="M 608.909291 197.28 
C 608.909291 187.758167 607.033698 178.328922 603.38985 169.531895 
C 599.746003 160.734869 594.404764 152.741141 587.671812 146.008188 
C 580.938859 139.275236 572.945131 133.933997 564.148105 130.29015 
C 555.351078 126.646302 545.921833 124.770709 536.4 124.770709 
C 526.878167 124.770709 517.448922 126.646302 508.651895 130.29015 
C 499.854869 133.933997 491.861141 139.275236 485.128188 146.008188 
C 478.395236 152.741141 473.053997 160.734869 469.41015 169.531895 
C 465.766302 178.328922 463.890709 187.758167 463.890709 197.28 
C 463.890709 206.801833 465.766302 216.231078 469.41015 225.028105 
C 473.053997 233.825131 478.395236 241.818859 485.128188 248.551812 
C 491.861141 255.284764 499.854869 260.626003 508.651895 264.26985 
C 517.448922 267.913698 526.878167 269.789291 536.4 269.789291 
C 545.921833 269.789291 555.351078 267.913698 564.148105 264.26985 
C 572.945131 260.626003 580.938859 255.284764 587.671812 248.551812 
C 594.404764 241.818859 599.746003 233.825131 603.38985 225.028105 
C 607.033698 216.231078 608.909291 206.801833 608.909291 197.28 
" clip-path="url(#p69e229e2c8)" style="fill: none; stroke: #b0b0b0; stroke-width: 0.8; stroke-linecap: square"/>
     </g>
     <g id="text_14">
      <!-- 30 -->
      <g transform="translate(603.38985 167.452208)scale(0.1 -0.1)">
       <use xlink:href="#DejaVuSans-33"/>
       <use xlink:href="#DejaVuSans-30" x="63.623047"/>
      </g>
     </g>
    </g>
    <g id="ytick_8">
     <g id="line2d_15">
      <path d="M 633.079055 197.28 
C 633.079055 184.584223 630.578264 172.011896 625.7198 160.282527 
C 620.861337 148.553159 613.739686 137.894855 604.762416 128.917584 
C 595.785145 119.940314 585.126841 112.818663 573.397473 107.9602 
C 561.668104 103.101736 549.095777 100.600945 536.4 100.600945 
C 523.704223 100.600945 511.131896 103.101736 499.402527 107.9602 
C 487.673159 112.818663 477.014855 119.940314 468.037584 128.917584 
C 459.060314 137.894855 451.938663 148.553159 447.0802 160.282527 
C 442.221736 172.011896 439.720945 184.584223 439.720945 197.28 
C 439.720945 209.975777 442.221736 222.548104 447.0802 234.277473 
C 451.938663 246.006841 459.060314 256.665145 468.037584 265.642416 
C 477.014855 274.619686 487.673159 281.741337 499.402527 286.5998 
C 511.131896 291.458264 523.704223 293.959055 536.4 293.959055 
C 549.095777 293.959055 561.668104 291.458264 573.397473 286.5998 
C 585.126841 281.741337 595.785145 274.619686 604.762416 265.642416 
C 613.739686 256.665145 620.861337 246.006841 625.7198 234.277473 
C 630.578264 222.548104 633.079055 209.975777 633.079055 197.28 
" clip-path="url(#p69e229e2c8)" style="fill: none; stroke: #b0b0b0; stroke-width: 0.8; stroke-linecap: square"/>
     </g>
     <g id="text_15">
      <!-- 40 -->
      <g transform="translate(625.7198 158.20284)scale(0.1 -0.1)">
       <use xlink:href="#DejaVuSans-34"/>
       <use xlink:href="#DejaVuSans-30" x="63.623047"/>
      </g>
     </g>
    </g>
   </g>
   <g id="line2d_16">
    <path d="M 643.8346 197.28 
L 485.063422 108.362438 
L 517.136698 230.645017 
L 643.8346 197.28 
" clip-path="url(#p69e229e2c8)" style="fill: none; stroke: #0000ff; stroke-width: 2; stroke-linecap: square"/>
   </g>
   <g id="patch_7">
    <path d="M 647.28 197.28 
C 647.28 182.719372 644.411874 168.300327 638.839763 154.848061 
C 633.267651 141.395795 625.099919 129.171919 614.804 118.876 
C 604.508081 108.580081 592.284205 100.412349 578.831939 94.840237 
C 565.379673 89.268126 550.960628 86.4 536.4 86.4 
C 521.839372 86.4 507.420327 89.268126 493.968061 94.840237 
C 480.515795 100.412349 468.291919 108.580081 457.996 118.876 
C 447.700081 129.171919 439.532349 141.395795 433.960237 154.848061 
C 428.388126 168.300327 425.52 182.719372 425.52 197.28 
C 425.52 211.840628 428.388126 226.259673 433.960237 239.711939 
C 439.532349 253.164205 447.700081 265.388081 457.996 275.684 
C 468.291919 285.979919 480.515795 294.147651 493.968061 299.719763 
C 507.420327 305.291874 521.839372 308.16 536.4 308.16 
C 550.960628 308.16 565.379673 305.291874 578.831939 299.719763 
C 592.284205 294.147651 604.508081 285.979919 614.804 275.684 
C 625.099919 265.388081 633.267651 253.164205 638.839763 239.711939 
C 644.411874 226.259673 647.28 211.840628 647.28 197.28 
" style="fill: none; stroke: #000000; stroke-width: 0.8; stroke-linejoin: miter; stroke-linecap: square"/>
   </g>
   <g id="text_16">
    <!-- CIFAR100 -->
    <g transform="translate(507.810937 80.4)scale(0.12 -0.12)">
     <use xlink:href="#DejaVuSans-43"/>
     <use xlink:href="#DejaVuSans-49" x="69.824219"/>
     <use xlink:href="#DejaVuSans-46" x="99.316406"/>
     <use xlink:href="#DejaVuSans-41" x="147.710938"/>
     <use xlink:href="#DejaVuSans-52" x="216.119141"/>
     <use xlink:href="#DejaVuSans-31" x="285.601562"/>
     <use xlink:href="#DejaVuSans-30" x="349.224609"/>
     <use xlink:href="#DejaVuSans-30" x="412.847656"/>
    </g>
   </g>
  </g>
  <g id="axes_3">
   <g id="patch_8">
    <path d="M 312.48 529.92 
C 312.48 515.359372 309.611874 500.940327 304.039763 487.488061 
C 298.467651 474.035795 290.299919 461.811919 280.004 451.516 
C 269.708081 441.220081 257.484205 433.052349 244.031939 427.480237 
C 230.579673 421.908126 216.160628 419.04 201.6 419.04 
C 187.039372 419.04 172.620327 421.908126 159.168061 427.480237 
C 145.715795 433.052349 133.491919 441.220081 123.196 451.516 
C 112.900081 461.811919 104.732349 474.035795 99.160237 487.488061 
C 93.588126 500.940327 90.72 515.359372 90.72 529.92 
C 90.72 544.480628 93.588126 558.899673 99.160237 572.351939 
C 104.732349 585.804205 112.900081 598.028081 123.196 608.324 
C 133.491919 618.619919 145.715795 626.787651 159.168061 632.359763 
C 172.620327 637.931874 187.039372 640.8 201.6 640.8 
C 216.160628 640.8 230.579673 637.931874 244.031939 632.359763 
C 257.484205 626.787651 269.708081 618.619919 280.004 608.324 
C 290.299919 598.028081 298.467651 585.804205 304.039763 572.351939 
C 309.611874 558.899673 312.48 544.480628 312.48 529.92 
M 201.6 529.92 
C 201.6 529.92 201.6 529.92 201.6 529.92 
C 201.6 529.92 201.6 529.92 201.6 529.92 
C 201.6 529.92 201.6 529.92 201.6 529.92 
C 201.6 529.92 201.6 529.92 201.6 529.92 
C 201.6 529.92 201.6 529.92 201.6 529.92 
C 201.6 529.92 201.6 529.92 201.6 529.92 
C 201.6 529.92 201.6 529.92 201.6 529.92 
C 201.6 529.92 201.6 529.92 201.6 529.92 
C 201.6 529.92 201.6 529.92 201.6 529.92 
C 201.6 529.92 201.6 529.92 201.6 529.92 
C 201.6 529.92 201.6 529.92 201.6 529.92 
C 201.6 529.92 201.6 529.92 201.6 529.92 
C 201.6 529.92 201.6 529.92 201.6 529.92 
C 201.6 529.92 201.6 529.92 201.6 529.92 
C 201.6 529.92 201.6 529.92 201.6 529.92 
C 201.6 529.92 201.6 529.92 201.6 529.92 
M 312.48 529.92 
z
" style="fill: #ffffff"/>
   </g>
   <g id="patch_9">
    <path d="M 309.123397 529.92 
L 149.659714 439.956786 
L 181.404336 564.899916 
z
" clip-path="url(#pc6c3bc997b)" style="fill: #008000; opacity: 0.25; stroke: #008000; stroke-linejoin: miter"/>
   </g>
   <g id="matplotlib.axis_5">
    <g id="xtick_7">
     <g id="line2d_17">
      <path d="M 201.6 529.92 
L 312.48 529.92 
" clip-path="url(#pc6c3bc997b)" style="fill: none; stroke: #b0b0b0; stroke-width: 0.8; stroke-linecap: square"/>
     </g>
     <g id="text_17">
      <!-- Sellers -->
      <g transform="translate(306.36125 533.23125)scale(0.12 -0.12)">
       <use xlink:href="#DejaVuSans-53"/>
       <use xlink:href="#DejaVuSans-65" x="63.476562"/>
       <use xlink:href="#DejaVuSans-6c" x="125"/>
       <use xlink:href="#DejaVuSans-6c" x="152.783203"/>
       <use xlink:href="#DejaVuSans-65" x="180.566406"/>
       <use xlink:href="#DejaVuSans-72" x="242.089844"/>
       <use xlink:href="#DejaVuSans-73" x="283.203125"/>
      </g>
     </g>
    </g>
    <g id="xtick_8">
     <g id="line2d_18">
      <path d="M 201.6 529.92 
L 146.16 433.895103 
" clip-path="url(#pc6c3bc997b)" style="fill: none; stroke: #b0b0b0; stroke-width: 0.8; stroke-linecap: square"/>
     </g>
     <g id="text_18">
      <!-- Buyers -->
      <g transform="translate(118.405625 425.081998)scale(0.12 -0.12)">
       <use xlink:href="#DejaVuSans-42"/>
       <use xlink:href="#DejaVuSans-75" x="68.603516"/>
       <use xlink:href="#DejaVuSans-79" x="131.982422"/>
       <use xlink:href="#DejaVuSans-65" x="191.162109"/>
       <use xlink:href="#DejaVuSans-72" x="252.685547"/>
       <use xlink:href="#DejaVuSans-73" x="293.798828"/>
      </g>
     </g>
    </g>
    <g id="xtick_9">
     <g id="line2d_19">
      <path d="M 201.6 529.92 
L 146.16 625.944897 
" clip-path="url(#pc6c3bc997b)" style="fill: none; stroke: #b0b0b0; stroke-width: 0.8; stroke-linecap: square"/>
     </g>
     <g id="text_19">
      <!-- Arbiter -->
      <g transform="translate(118.6025 641.380502)scale(0.12 -0.12)">
       <use xlink:href="#DejaVuSans-41"/>
       <use xlink:href="#DejaVuSans-72" x="68.408203"/>
       <use xlink:href="#DejaVuSans-62" x="109.521484"/>
       <use xlink:href="#DejaVuSans-69" x="172.998047"/>
       <use xlink:href="#DejaVuSans-74" x="200.78125"/>
       <use xlink:href="#DejaVuSans-65" x="239.990234"/>
       <use xlink:href="#DejaVuSans-72" x="301.513672"/>
      </g>
     </g>
    </g>
   </g>
   <g id="matplotlib.axis_6">
    <g id="ytick_9">
     <g id="line2d_20">
      <path d="M 214.943683 529.92 
C 214.943683 528.167724 214.598523 526.432486 213.927955 524.813594 
C 213.257388 523.194701 212.274455 521.723638 211.035409 520.484591 
C 209.796362 519.245545 208.325299 518.262612 206.706406 517.592045 
C 205.087514 516.921477 203.352276 516.576317 201.6 516.576317 
C 199.847724 516.576317 198.112486 516.921477 196.493594 517.592045 
C 194.874701 518.262612 193.403638 519.245545 192.164591 520.484591 
C 190.925545 521.723638 189.942612 523.194701 189.272045 524.813594 
C 188.601477 526.432486 188.256317 528.167724 188.256317 529.92 
C 188.256317 531.672276 188.601477 533.407514 189.272045 535.026406 
C 189.942612 536.645299 190.925545 538.116362 192.164591 539.355409 
C 193.403638 540.594455 194.874701 541.577388 196.493594 542.247955 
C 198.112486 542.918523 199.847724 543.263683 201.6 543.263683 
C 203.352276 543.263683 205.087514 542.918523 206.706406 542.247955 
C 208.325299 541.577388 209.796362 540.594455 211.035409 539.355409 
C 212.274455 538.116362 213.257388 536.645299 213.927955 535.026406 
C 214.598523 533.407514 214.943683 531.672276 214.943683 529.92 
" clip-path="url(#pc6c3bc997b)" style="fill: none; stroke: #b0b0b0; stroke-width: 0.8; stroke-linecap: square"/>
     </g>
     <g id="text_20">
      <!-- 10 -->
      <g transform="translate(213.927955 522.733906)scale(0.1 -0.1)">
       <use xlink:href="#DejaVuSans-31"/>
       <use xlink:href="#DejaVuSans-30" x="63.623047"/>
      </g>
     </g>
    </g>
    <g id="ytick_10">
     <g id="line2d_21">
      <path d="M 228.287366 529.92 
C 228.287366 526.415447 227.597045 522.944972 226.255911 519.707187 
C 224.914777 516.469403 222.94891 513.527276 220.470817 511.049183 
C 217.992724 508.57109 215.050597 506.605223 211.812813 505.264089 
C 208.575028 503.922955 205.104553 503.232634 201.6 503.232634 
C 198.095447 503.232634 194.624972 503.922955 191.387187 505.264089 
C 188.149403 506.605223 185.207276 508.57109 182.729183 511.049183 
C 180.25109 513.527276 178.285223 516.469403 176.944089 519.707187 
C 175.602955 522.944972 174.912634 526.415447 174.912634 529.92 
C 174.912634 533.424553 175.602955 536.895028 176.944089 540.132813 
C 178.285223 543.370597 180.25109 546.312724 182.729183 548.790817 
C 185.207276 551.26891 188.149403 553.234777 191.387187 554.575911 
C 194.624972 555.917045 198.095447 556.607366 201.6 556.607366 
C 205.104553 556.607366 208.575028 555.917045 211.812813 554.575911 
C 215.050597 553.234777 217.992724 551.26891 220.470817 548.790817 
C 222.94891 546.312724 224.914777 543.370597 226.255911 540.132813 
C 227.597045 536.895028 228.287366 533.424553 228.287366 529.92 
" clip-path="url(#pc6c3bc997b)" style="fill: none; stroke: #b0b0b0; stroke-width: 0.8; stroke-linecap: square"/>
     </g>
     <g id="text_21">
      <!-- 20 -->
      <g transform="translate(226.255911 517.6275)scale(0.1 -0.1)">
       <use xlink:href="#DejaVuSans-32"/>
       <use xlink:href="#DejaVuSans-30" x="63.623047"/>
      </g>
     </g>
    </g>
    <g id="ytick_11">
     <g id="line2d_22">
      <path d="M 241.631049 529.92 
C 241.631049 524.663171 240.595568 519.457458 238.583866 514.600781 
C 236.572165 509.744104 233.623365 505.330914 229.906226 501.613774 
C 226.189086 497.896635 221.775896 494.947835 216.919219 492.936134 
C 212.062542 490.924432 206.856829 489.888951 201.6 489.888951 
C 196.343171 489.888951 191.137458 490.924432 186.280781 492.936134 
C 181.424104 494.947835 177.010914 497.896635 173.293774 501.613774 
C 169.576635 505.330914 166.627835 509.744104 164.616134 514.600781 
C 162.604432 519.457458 161.568951 524.663171 161.568951 529.92 
C 161.568951 535.176829 162.604432 540.382542 164.616134 545.239219 
C 166.627835 550.095896 169.576635 554.509086 173.293774 558.226226 
C 177.010914 561.943365 181.424104 564.892165 186.280781 566.903866 
C 191.137458 568.915568 196.343171 569.951049 201.6 569.951049 
C 206.856829 569.951049 212.062542 568.915568 216.919219 566.903866 
C 221.775896 564.892165 226.189086 561.943365 229.906226 558.226226 
C 233.623365 554.509086 236.572165 550.095896 238.583866 545.239219 
C 240.595568 540.382542 241.631049 535.176829 241.631049 529.92 
" clip-path="url(#pc6c3bc997b)" style="fill: none; stroke: #b0b0b0; stroke-width: 0.8; stroke-linecap: square"/>
     </g>
     <g id="text_22">
      <!-- 30 -->
      <g transform="translate(238.583866 512.521093)scale(0.1 -0.1)">
       <use xlink:href="#DejaVuSans-33"/>
       <use xlink:href="#DejaVuSans-30" x="63.623047"/>
      </g>
     </g>
    </g>
    <g id="ytick_12">
     <g id="line2d_23">
      <path d="M 254.974731 529.92 
C 254.974731 522.910894 253.594091 515.969944 250.911822 509.494375 
C 248.229553 503.018805 244.297821 497.134551 239.341635 492.178365 
C 234.385449 487.222179 228.501195 483.290447 222.025625 480.608178 
C 215.550056 477.925909 208.609106 476.545269 201.6 476.545269 
C 194.590894 476.545269 187.649944 477.925909 181.174375 480.608178 
C 174.698805 483.290447 168.814551 487.222179 163.858365 492.178365 
C 158.902179 497.134551 154.970447 503.018805 152.288178 509.494375 
C 149.605909 515.969944 148.225269 522.910894 148.225269 529.92 
C 148.225269 536.929106 149.605909 543.870056 152.288178 550.345625 
C 154.970447 556.821195 158.902179 562.705449 163.858365 567.661635 
C 168.814551 572.617821 174.698805 576.549553 181.174375 579.231822 
C 187.649944 581.914091 194.590894 583.294731 201.6 583.294731 
C 208.609106 583.294731 215.550056 581.914091 222.025625 579.231822 
C 228.501195 576.549553 234.385449 572.617821 239.341635 567.661635 
C 244.297821 562.705449 248.229553 556.821195 250.911822 550.345625 
C 253.594091 543.870056 254.974731 536.929106 254.974731 529.92 
" clip-path="url(#pc6c3bc997b)" style="fill: none; stroke: #b0b0b0; stroke-width: 0.8; stroke-linecap: square"/>
     </g>
     <g id="text_23">
      <!-- 40 -->
      <g transform="translate(250.911822 507.414687)scale(0.1 -0.1)">
       <use xlink:href="#DejaVuSans-34"/>
       <use xlink:href="#DejaVuSans-30" x="63.623047"/>
      </g>
     </g>
    </g>
    <g id="ytick_13">
     <g id="line2d_24">
      <path d="M 268.318414 529.92 
C 268.318414 521.158618 266.592613 512.48243 263.239777 504.387968 
C 259.886942 496.293507 254.972276 488.938189 248.777043 482.742957 
C 242.581811 476.547724 235.226493 471.633058 227.132032 468.280223 
C 219.03757 464.927387 210.361382 463.201586 201.6 463.201586 
C 192.838618 463.201586 184.16243 464.927387 176.067968 468.280223 
C 167.973507 471.633058 160.618189 476.547724 154.422957 482.742957 
C 148.227724 488.938189 143.313058 496.293507 139.960223 504.387968 
C 136.607387 512.48243 134.881586 521.158618 134.881586 529.92 
C 134.881586 538.681382 136.607387 547.35757 139.960223 555.452032 
C 143.313058 563.546493 148.227724 570.901811 154.422957 577.097043 
C 160.618189 583.292276 167.973507 588.206942 176.067968 591.559777 
C 184.16243 594.912613 192.838618 596.638414 201.6 596.638414 
C 210.361382 596.638414 219.03757 594.912613 227.132032 591.559777 
C 235.226493 588.206942 242.581811 583.292276 248.777043 577.097043 
C 254.972276 570.901811 259.886942 563.546493 263.239777 555.452032 
C 266.592613 547.35757 268.318414 538.681382 268.318414 529.92 
" clip-path="url(#pc6c3bc997b)" style="fill: none; stroke: #b0b0b0; stroke-width: 0.8; stroke-linecap: square"/>
     </g>
     <g id="text_24">
      <!-- 50 -->
      <g transform="translate(263.239777 502.308281)scale(0.1 -0.1)">
       <defs>
        <path id="DejaVuSans-35" d="M 691 4666 
L 3169 4666 
L 3169 4134 
L 1269 4134 
L 1269 2991 
Q 1406 3038 1543 3061 
Q 1681 3084 1819 3084 
Q 2600 3084 3056 2656 
Q 3513 2228 3513 1497 
Q 3513 744 3044 326 
Q 2575 -91 1722 -91 
Q 1428 -91 1123 -41 
Q 819 9 494 109 
L 494 744 
Q 775 591 1075 516 
Q 1375 441 1709 441 
Q 2250 441 2565 725 
Q 2881 1009 2881 1497 
Q 2881 1984 2565 2268 
Q 2250 2553 1709 2553 
Q 1456 2553 1204 2497 
Q 953 2441 691 2322 
L 691 4666 
z
" transform="scale(0.015625)"/>
       </defs>
       <use xlink:href="#DejaVuSans-35"/>
       <use xlink:href="#DejaVuSans-30" x="63.623047"/>
      </g>
     </g>
    </g>
    <g id="ytick_14">
     <g id="line2d_25">
      <path d="M 281.662097 529.92 
C 281.662097 519.406342 279.591136 508.994916 275.567733 499.281562 
C 271.54433 489.568208 265.646731 480.741827 258.212452 473.307548 
C 250.778173 465.873269 241.951792 459.97567 232.238438 455.952267 
C 222.525084 451.928864 212.113658 449.857903 201.6 449.857903 
C 191.086342 449.857903 180.674916 451.928864 170.961562 455.952267 
C 161.248208 459.97567 152.421827 465.873269 144.987548 473.307548 
C 137.553269 480.741827 131.65567 489.568208 127.632267 499.281562 
C 123.608864 508.994916 121.537903 519.406342 121.537903 529.92 
C 121.537903 540.433658 123.608864 550.845084 127.632267 560.558438 
C 131.65567 570.271792 137.553269 579.098173 144.987548 586.532452 
C 152.421827 593.966731 161.248208 599.86433 170.961562 603.887733 
C 180.674916 607.911136 191.086342 609.982097 201.6 609.982097 
C 212.113658 609.982097 222.525084 607.911136 232.238438 603.887733 
C 241.951792 599.86433 250.778173 593.966731 258.212452 586.532452 
C 265.646731 579.098173 271.54433 570.271792 275.567733 560.558438 
C 279.591136 550.845084 281.662097 540.433658 281.662097 529.92 
" clip-path="url(#pc6c3bc997b)" style="fill: none; stroke: #b0b0b0; stroke-width: 0.8; stroke-linecap: square"/>
     </g>
     <g id="text_25">
      <!-- 60 -->
      <g transform="translate(275.567733 497.201874)scale(0.1 -0.1)">
       <defs>
        <path id="DejaVuSans-36" d="M 2113 2584 
Q 1688 2584 1439 2293 
Q 1191 2003 1191 1497 
Q 1191 994 1439 701 
Q 1688 409 2113 409 
Q 2538 409 2786 701 
Q 3034 994 3034 1497 
Q 3034 2003 2786 2293 
Q 2538 2584 2113 2584 
z
M 3366 4563 
L 3366 3988 
Q 3128 4100 2886 4159 
Q 2644 4219 2406 4219 
Q 1781 4219 1451 3797 
Q 1122 3375 1075 2522 
Q 1259 2794 1537 2939 
Q 1816 3084 2150 3084 
Q 2853 3084 3261 2657 
Q 3669 2231 3669 1497 
Q 3669 778 3244 343 
Q 2819 -91 2113 -91 
Q 1303 -91 875 529 
Q 447 1150 447 2328 
Q 447 3434 972 4092 
Q 1497 4750 2381 4750 
Q 2619 4750 2861 4703 
Q 3103 4656 3366 4563 
z
" transform="scale(0.015625)"/>
       </defs>
       <use xlink:href="#DejaVuSans-36"/>
       <use xlink:href="#DejaVuSans-30" x="63.623047"/>
      </g>
     </g>
    </g>
    <g id="ytick_15">
     <g id="line2d_26">
      <path d="M 295.00578 529.92 
C 295.00578 517.654065 292.589658 505.507401 287.895688 494.175155 
C 283.201718 482.842909 276.321186 472.545465 267.647861 463.872139 
C 258.974535 455.198814 248.677091 448.318282 237.344845 443.624312 
C 226.012599 438.930342 213.865935 436.51422 201.6 436.51422 
C 189.334065 436.51422 177.187401 438.930342 165.855155 443.624312 
C 154.522909 448.318282 144.225465 455.198814 135.552139 463.872139 
C 126.878814 472.545465 119.998282 482.842909 115.304312 494.175155 
C 110.610342 505.507401 108.19422 517.654065 108.19422 529.92 
C 108.19422 542.185935 110.610342 554.332599 115.304312 565.664845 
C 119.998282 576.997091 126.878814 587.294535 135.552139 595.967861 
C 144.225465 604.641186 154.522909 611.521718 165.855155 616.215688 
C 177.187401 620.909658 189.334065 623.32578 201.6 623.32578 
C 213.865935 623.32578 226.012599 620.909658 237.344845 616.215688 
C 248.677091 611.521718 258.974535 604.641186 267.647861 595.967861 
C 276.321186 587.294535 283.201718 576.997091 287.895688 565.664845 
C 292.589658 554.332599 295.00578 542.185935 295.00578 529.92 
" clip-path="url(#pc6c3bc997b)" style="fill: none; stroke: #b0b0b0; stroke-width: 0.8; stroke-linecap: square"/>
     </g>
     <g id="text_26">
      <!-- 70 -->
      <g transform="translate(287.895688 492.095468)scale(0.1 -0.1)">
       <defs>
        <path id="DejaVuSans-37" d="M 525 4666 
L 3525 4666 
L 3525 4397 
L 1831 0 
L 1172 0 
L 2766 4134 
L 525 4134 
L 525 4666 
z
" transform="scale(0.015625)"/>
       </defs>
       <use xlink:href="#DejaVuSans-37"/>
       <use xlink:href="#DejaVuSans-30" x="63.623047"/>
      </g>
     </g>
    </g>
    <g id="ytick_16">
     <g id="line2d_27">
      <path d="M 308.349463 529.92 
C 308.349463 515.901789 305.588181 502.019887 300.223644 489.068749 
C 294.859107 476.117611 286.995641 464.349103 277.083269 454.436731 
C 267.170897 444.524359 255.402389 436.660893 242.451251 431.296356 
C 229.500113 425.931819 215.618211 423.170537 201.6 423.170537 
C 187.581789 423.170537 173.699887 425.931819 160.748749 431.296356 
C 147.797611 436.660893 136.029103 444.524359 126.116731 454.436731 
C 116.204359 464.349103 108.340893 476.117611 102.976356 489.068749 
C 97.611819 502.019887 94.850537 515.901789 94.850537 529.92 
C 94.850537 543.938211 97.611819 557.820113 102.976356 570.771251 
C 108.340893 583.722389 116.204359 595.490897 126.116731 605.403269 
C 136.029103 615.315641 147.797611 623.179107 160.748749 628.543644 
C 173.699887 633.908181 187.581789 636.669463 201.6 636.669463 
C 215.618211 636.669463 229.500113 633.908181 242.451251 628.543644 
C 255.402389 623.179107 267.170897 615.315641 277.083269 605.403269 
C 286.995641 595.490897 294.859107 583.722389 300.223644 570.771251 
C 305.588181 557.820113 308.349463 543.938211 308.349463 529.92 
" clip-path="url(#pc6c3bc997b)" style="fill: none; stroke: #b0b0b0; stroke-width: 0.8; stroke-linecap: square"/>
     </g>
     <g id="text_27">
      <!-- 80 -->
      <g transform="translate(300.223644 486.989062)scale(0.1 -0.1)">
       <defs>
        <path id="DejaVuSans-38" d="M 2034 2216 
Q 1584 2216 1326 1975 
Q 1069 1734 1069 1313 
Q 1069 891 1326 650 
Q 1584 409 2034 409 
Q 2484 409 2743 651 
Q 3003 894 3003 1313 
Q 3003 1734 2745 1975 
Q 2488 2216 2034 2216 
z
M 1403 2484 
Q 997 2584 770 2862 
Q 544 3141 544 3541 
Q 544 4100 942 4425 
Q 1341 4750 2034 4750 
Q 2731 4750 3128 4425 
Q 3525 4100 3525 3541 
Q 3525 3141 3298 2862 
Q 3072 2584 2669 2484 
Q 3125 2378 3379 2068 
Q 3634 1759 3634 1313 
Q 3634 634 3220 271 
Q 2806 -91 2034 -91 
Q 1263 -91 848 271 
Q 434 634 434 1313 
Q 434 1759 690 2068 
Q 947 2378 1403 2484 
z
M 1172 3481 
Q 1172 3119 1398 2916 
Q 1625 2713 2034 2713 
Q 2441 2713 2670 2916 
Q 2900 3119 2900 3481 
Q 2900 3844 2670 4047 
Q 2441 4250 2034 4250 
Q 1625 4250 1398 4047 
Q 1172 3844 1172 3481 
z
" transform="scale(0.015625)"/>
       </defs>
       <use xlink:href="#DejaVuSans-38"/>
       <use xlink:href="#DejaVuSans-30" x="63.623047"/>
      </g>
     </g>
    </g>
   </g>
   <g id="line2d_28">
    <path d="M 309.123397 529.92 
L 149.659714 439.956786 
L 181.404336 564.899916 
L 309.123397 529.92 
" clip-path="url(#pc6c3bc997b)" style="fill: none; stroke: #008000; stroke-width: 2; stroke-linecap: square"/>
   </g>
   <g id="patch_10">
    <path d="M 312.48 529.92 
C 312.48 515.359372 309.611874 500.940327 304.039763 487.488061 
C 298.467651 474.035795 290.299919 461.811919 280.004 451.516 
C 269.708081 441.220081 257.484205 433.052349 244.031939 427.480237 
C 230.579673 421.908126 216.160628 419.04 201.6 419.04 
C 187.039372 419.04 172.620327 421.908126 159.168061 427.480237 
C 145.715795 433.052349 133.491919 441.220081 123.196 451.516 
C 112.900081 461.811919 104.732349 474.035795 99.160237 487.488061 
C 93.588126 500.940327 90.72 515.359372 90.72 529.92 
C 90.72 544.480628 93.588126 558.899673 99.160237 572.351939 
C 104.732349 585.804205 112.900081 598.028081 123.196 608.324 
C 133.491919 618.619919 145.715795 626.787651 159.168061 632.359763 
C 172.620327 637.931874 187.039372 640.8 201.6 640.8 
C 216.160628 640.8 230.579673 637.931874 244.031939 632.359763 
C 257.484205 626.787651 269.708081 618.619919 280.004 608.324 
C 290.299919 598.028081 298.467651 585.804205 304.039763 572.351939 
C 309.611874 558.899673 312.48 544.480628 312.48 529.92 
" style="fill: none; stroke: #000000; stroke-width: 0.8; stroke-linejoin: miter; stroke-linecap: square"/>
   </g>
   <g id="text_28">
    <!-- TinyImageNet -->
    <g transform="translate(159.777188 413.04)scale(0.12 -0.12)">
     <defs>
      <path id="DejaVuSans-54" d="M -19 4666 
L 3928 4666 
L 3928 4134 
L 2272 4134 
L 2272 0 
L 1638 0 
L 1638 4134 
L -19 4134 
L -19 4666 
z
" transform="scale(0.015625)"/>
      <path id="DejaVuSans-6e" d="M 3513 2113 
L 3513 0 
L 2938 0 
L 2938 2094 
Q 2938 2591 2744 2837 
Q 2550 3084 2163 3084 
Q 1697 3084 1428 2787 
Q 1159 2491 1159 1978 
L 1159 0 
L 581 0 
L 581 3500 
L 1159 3500 
L 1159 2956 
Q 1366 3272 1645 3428 
Q 1925 3584 2291 3584 
Q 2894 3584 3203 3211 
Q 3513 2838 3513 2113 
z
" transform="scale(0.015625)"/>
      <path id="DejaVuSans-6d" d="M 3328 2828 
Q 3544 3216 3844 3400 
Q 4144 3584 4550 3584 
Q 5097 3584 5394 3201 
Q 5691 2819 5691 2113 
L 5691 0 
L 5113 0 
L 5113 2094 
Q 5113 2597 4934 2840 
Q 4756 3084 4391 3084 
Q 3944 3084 3684 2787 
Q 3425 2491 3425 1978 
L 3425 0 
L 2847 0 
L 2847 2094 
Q 2847 2600 2669 2842 
Q 2491 3084 2119 3084 
Q 1678 3084 1418 2786 
Q 1159 2488 1159 1978 
L 1159 0 
L 581 0 
L 581 3500 
L 1159 3500 
L 1159 2956 
Q 1356 3278 1631 3431 
Q 1906 3584 2284 3584 
Q 2666 3584 2933 3390 
Q 3200 3197 3328 2828 
z
" transform="scale(0.015625)"/>
      <path id="DejaVuSans-61" d="M 2194 1759 
Q 1497 1759 1228 1600 
Q 959 1441 959 1056 
Q 959 750 1161 570 
Q 1363 391 1709 391 
Q 2188 391 2477 730 
Q 2766 1069 2766 1631 
L 2766 1759 
L 2194 1759 
z
M 3341 1997 
L 3341 0 
L 2766 0 
L 2766 531 
Q 2569 213 2275 61 
Q 1981 -91 1556 -91 
Q 1019 -91 701 211 
Q 384 513 384 1019 
Q 384 1609 779 1909 
Q 1175 2209 1959 2209 
L 2766 2209 
L 2766 2266 
Q 2766 2663 2505 2880 
Q 2244 3097 1772 3097 
Q 1472 3097 1187 3025 
Q 903 2953 641 2809 
L 641 3341 
Q 956 3463 1253 3523 
Q 1550 3584 1831 3584 
Q 2591 3584 2966 3190 
Q 3341 2797 3341 1997 
z
" transform="scale(0.015625)"/>
      <path id="DejaVuSans-67" d="M 2906 1791 
Q 2906 2416 2648 2759 
Q 2391 3103 1925 3103 
Q 1463 3103 1205 2759 
Q 947 2416 947 1791 
Q 947 1169 1205 825 
Q 1463 481 1925 481 
Q 2391 481 2648 825 
Q 2906 1169 2906 1791 
z
M 3481 434 
Q 3481 -459 3084 -895 
Q 2688 -1331 1869 -1331 
Q 1566 -1331 1297 -1286 
Q 1028 -1241 775 -1147 
L 775 -588 
Q 1028 -725 1275 -790 
Q 1522 -856 1778 -856 
Q 2344 -856 2625 -561 
Q 2906 -266 2906 331 
L 2906 616 
Q 2728 306 2450 153 
Q 2172 0 1784 0 
Q 1141 0 747 490 
Q 353 981 353 1791 
Q 353 2603 747 3093 
Q 1141 3584 1784 3584 
Q 2172 3584 2450 3431 
Q 2728 3278 2906 2969 
L 2906 3500 
L 3481 3500 
L 3481 434 
z
" transform="scale(0.015625)"/>
      <path id="DejaVuSans-4e" d="M 628 4666 
L 1478 4666 
L 3547 763 
L 3547 4666 
L 4159 4666 
L 4159 0 
L 3309 0 
L 1241 3903 
L 1241 0 
L 628 0 
L 628 4666 
z
" transform="scale(0.015625)"/>
     </defs>
     <use xlink:href="#DejaVuSans-54"/>
     <use xlink:href="#DejaVuSans-69" x="57.958984"/>
     <use xlink:href="#DejaVuSans-6e" x="85.742188"/>
     <use xlink:href="#DejaVuSans-79" x="149.121094"/>
     <use xlink:href="#DejaVuSans-49" x="208.300781"/>
     <use xlink:href="#DejaVuSans-6d" x="237.792969"/>
     <use xlink:href="#DejaVuSans-61" x="335.205078"/>
     <use xlink:href="#DejaVuSans-67" x="396.484375"/>
     <use xlink:href="#DejaVuSans-65" x="459.960938"/>
     <use xlink:href="#DejaVuSans-4e" x="521.484375"/>
     <use xlink:href="#DejaVuSans-65" x="596.289062"/>
     <use xlink:href="#DejaVuSans-74" x="657.8125"/>
    </g>
   </g>
  </g>
  <g id="axes_4">
   <g id="patch_11">
    <path d="M 647.28 529.92 
C 647.28 515.359372 644.411874 500.940327 638.839763 487.488061 
C 633.267651 474.035795 625.099919 461.811919 614.804 451.516 
C 604.508081 441.220081 592.284205 433.052349 578.831939 427.480237 
C 565.379673 421.908126 550.960628 419.04 536.4 419.04 
C 521.839372 419.04 507.420327 421.908126 493.968061 427.480237 
C 480.515795 433.052349 468.291919 441.220081 457.996 451.516 
C 447.700081 461.811919 439.532349 474.035795 433.960237 487.488061 
C 428.388126 500.940327 425.52 515.359372 425.52 529.92 
C 425.52 544.480628 428.388126 558.899673 433.960237 572.351939 
C 439.532349 585.804205 447.700081 598.028081 457.996 608.324 
C 468.291919 618.619919 480.515795 626.787651 493.968061 632.359763 
C 507.420327 637.931874 521.839372 640.8 536.4 640.8 
C 550.960628 640.8 565.379673 637.931874 578.831939 632.359763 
C 592.284205 626.787651 604.508081 618.619919 614.804 608.324 
C 625.099919 598.028081 633.267651 585.804205 638.839763 572.351939 
C 644.411874 558.899673 647.28 544.480628 647.28 529.92 
M 536.4 529.92 
C 536.4 529.92 536.4 529.92 536.4 529.92 
C 536.4 529.92 536.4 529.92 536.4 529.92 
C 536.4 529.92 536.4 529.92 536.4 529.92 
C 536.4 529.92 536.4 529.92 536.4 529.92 
C 536.4 529.92 536.4 529.92 536.4 529.92 
C 536.4 529.92 536.4 529.92 536.4 529.92 
C 536.4 529.92 536.4 529.92 536.4 529.92 
C 536.4 529.92 536.4 529.92 536.4 529.92 
C 536.4 529.92 536.4 529.92 536.4 529.92 
C 536.4 529.92 536.4 529.92 536.4 529.92 
C 536.4 529.92 536.4 529.92 536.4 529.92 
C 536.4 529.92 536.4 529.92 536.4 529.92 
C 536.4 529.92 536.4 529.92 536.4 529.92 
C 536.4 529.92 536.4 529.92 536.4 529.92 
C 536.4 529.92 536.4 529.92 536.4 529.92 
C 536.4 529.92 536.4 529.92 536.4 529.92 
M 647.28 529.92 
z
" style="fill: #ffffff"/>
   </g>
   <g id="patch_12">
    <path d="M 643.425054 529.92 
L 488.109376 446.278185 
L 521.436933 555.836792 
z
" clip-path="url(#p74c7181657)" style="fill: #ffa500; opacity: 0.25; stroke: #ffa500; stroke-linejoin: miter"/>
   </g>
   <g id="matplotlib.axis_7">
    <g id="xtick_10">
     <g id="line2d_29">
      <path d="M 536.4 529.92 
L 647.28 529.92 
" clip-path="url(#p74c7181657)" style="fill: none; stroke: #b0b0b0; stroke-width: 0.8; stroke-linecap: square"/>
     </g>
     <g id="text_29">
      <!-- Sellers -->
      <g transform="translate(641.16125 533.23125)scale(0.12 -0.12)">
       <use xlink:href="#DejaVuSans-53"/>
       <use xlink:href="#DejaVuSans-65" x="63.476562"/>
       <use xlink:href="#DejaVuSans-6c" x="125"/>
       <use xlink:href="#DejaVuSans-6c" x="152.783203"/>
       <use xlink:href="#DejaVuSans-65" x="180.566406"/>
       <use xlink:href="#DejaVuSans-72" x="242.089844"/>
       <use xlink:href="#DejaVuSans-73" x="283.203125"/>
      </g>
     </g>
    </g>
    <g id="xtick_11">
     <g id="line2d_30">
      <path d="M 536.4 529.92 
L 480.96 433.895103 
" clip-path="url(#p74c7181657)" style="fill: none; stroke: #b0b0b0; stroke-width: 0.8; stroke-linecap: square"/>
     </g>
     <g id="text_30">
      <!-- Buyers -->
      <g transform="translate(453.205625 425.081998)scale(0.12 -0.12)">
       <use xlink:href="#DejaVuSans-42"/>
       <use xlink:href="#DejaVuSans-75" x="68.603516"/>
       <use xlink:href="#DejaVuSans-79" x="131.982422"/>
       <use xlink:href="#DejaVuSans-65" x="191.162109"/>
       <use xlink:href="#DejaVuSans-72" x="252.685547"/>
       <use xlink:href="#DejaVuSans-73" x="293.798828"/>
      </g>
     </g>
    </g>
    <g id="xtick_12">
     <g id="line2d_31">
      <path d="M 536.4 529.92 
L 480.96 625.944897 
" clip-path="url(#p74c7181657)" style="fill: none; stroke: #b0b0b0; stroke-width: 0.8; stroke-linecap: square"/>
     </g>
     <g id="text_31">
      <!-- Arbiter -->
      <g transform="translate(453.4025 641.380502)scale(0.12 -0.12)">
       <use xlink:href="#DejaVuSans-41"/>
       <use xlink:href="#DejaVuSans-72" x="68.408203"/>
       <use xlink:href="#DejaVuSans-62" x="109.521484"/>
       <use xlink:href="#DejaVuSans-69" x="172.998047"/>
       <use xlink:href="#DejaVuSans-74" x="200.78125"/>
       <use xlink:href="#DejaVuSans-65" x="239.990234"/>
       <use xlink:href="#DejaVuSans-72" x="301.513672"/>
      </g>
     </g>
    </g>
   </g>
   <g id="matplotlib.axis_8">
    <g id="ytick_17">
     <g id="line2d_32">
      <path d="M 552.369122 529.92 
C 552.369122 527.822954 551.956049 525.746299 551.153545 523.808882 
C 550.35104 521.871464 549.17471 520.110961 547.691874 518.628126 
C 546.209039 517.14529 544.448536 515.96896 542.511118 515.166455 
C 540.573701 514.363951 538.497046 513.950878 536.4 513.950878 
C 534.302954 513.950878 532.226299 514.363951 530.288882 515.166455 
C 528.351464 515.96896 526.590961 517.14529 525.108126 518.628126 
C 523.62529 520.110961 522.44896 521.871464 521.646455 523.808882 
C 520.843951 525.746299 520.430878 527.822954 520.430878 529.92 
C 520.430878 532.017046 520.843951 534.093701 521.646455 536.031118 
C 522.44896 537.968536 523.62529 539.729039 525.108126 541.211874 
C 526.590961 542.69471 528.351464 543.87104 530.288882 544.673545 
C 532.226299 545.476049 534.302954 545.889122 536.4 545.889122 
C 538.497046 545.889122 540.573701 545.476049 542.511118 544.673545 
C 544.448536 543.87104 546.209039 542.69471 547.691874 541.211874 
C 549.17471 539.729039 550.35104 537.968536 551.153545 536.031118 
C 551.956049 534.093701 552.369122 532.017046 552.369122 529.92 
" clip-path="url(#p74c7181657)" style="fill: none; stroke: #b0b0b0; stroke-width: 0.8; stroke-linecap: square"/>
     </g>
     <g id="text_32">
      <!-- 5 -->
      <g transform="translate(551.153545 521.729194)scale(0.1 -0.1)">
       <use xlink:href="#DejaVuSans-35"/>
      </g>
     </g>
    </g>
    <g id="ytick_18">
     <g id="line2d_33">
      <path d="M 568.338244 529.92 
C 568.338244 525.725908 567.512099 521.572599 565.907089 517.697763 
C 564.30208 513.822928 561.949419 510.301922 558.983749 507.336251 
C 556.018078 504.370581 552.497072 502.01792 548.622237 500.412911 
C 544.747401 498.807901 540.594092 497.981756 536.4 497.981756 
C 532.205908 497.981756 528.052599 498.807901 524.177763 500.412911 
C 520.302928 502.01792 516.781922 504.370581 513.816251 507.336251 
C 510.850581 510.301922 508.49792 513.822928 506.892911 517.697763 
C 505.287901 521.572599 504.461756 525.725908 504.461756 529.92 
C 504.461756 534.114092 505.287901 538.267401 506.892911 542.142237 
C 508.49792 546.017072 510.850581 549.538078 513.816251 552.503749 
C 516.781922 555.469419 520.302928 557.82208 524.177763 559.427089 
C 528.052599 561.032099 532.205908 561.858244 536.4 561.858244 
C 540.594092 561.858244 544.747401 561.032099 548.622237 559.427089 
C 552.497072 557.82208 556.018078 555.469419 558.983749 552.503749 
C 561.949419 549.538078 564.30208 546.017072 565.907089 542.142237 
C 567.512099 538.267401 568.338244 534.114092 568.338244 529.92 
" clip-path="url(#p74c7181657)" style="fill: none; stroke: #b0b0b0; stroke-width: 0.8; stroke-linecap: square"/>
     </g>
     <g id="text_33">
      <!-- 10 -->
      <g transform="translate(565.907089 515.618076)scale(0.1 -0.1)">
       <use xlink:href="#DejaVuSans-31"/>
       <use xlink:href="#DejaVuSans-30" x="63.623047"/>
      </g>
     </g>
    </g>
    <g id="ytick_19">
     <g id="line2d_34">
      <path d="M 584.307365 529.92 
C 584.307365 523.628862 583.068148 517.398898 580.660634 511.586645 
C 578.25312 505.774392 574.724129 500.492883 570.275623 496.044377 
C 565.827117 491.595871 560.545608 488.06688 554.733355 485.659366 
C 548.921102 483.251852 542.691138 482.012635 536.4 482.012635 
C 530.108862 482.012635 523.878898 483.251852 518.066645 485.659366 
C 512.254392 488.06688 506.972883 491.595871 502.524377 496.044377 
C 498.075871 500.492883 494.54688 505.774392 492.139366 511.586645 
C 489.731852 517.398898 488.492635 523.628862 488.492635 529.92 
C 488.492635 536.211138 489.731852 542.441102 492.139366 548.253355 
C 494.54688 554.065608 498.075871 559.347117 502.524377 563.795623 
C 506.972883 568.244129 512.254392 571.77312 518.066645 574.180634 
C 523.878898 576.588148 530.108862 577.827365 536.4 577.827365 
C 542.691138 577.827365 548.921102 576.588148 554.733355 574.180634 
C 560.545608 571.77312 565.827117 568.244129 570.275623 563.795623 
C 574.724129 559.347117 578.25312 554.065608 580.660634 548.253355 
C 583.068148 542.441102 584.307365 536.211138 584.307365 529.92 
" clip-path="url(#p74c7181657)" style="fill: none; stroke: #b0b0b0; stroke-width: 0.8; stroke-linecap: square"/>
     </g>
     <g id="text_34">
      <!-- 15 -->
      <g transform="translate(580.660634 509.506958)scale(0.1 -0.1)">
       <use xlink:href="#DejaVuSans-31"/>
       <use xlink:href="#DejaVuSans-35" x="63.623047"/>
      </g>
     </g>
    </g>
    <g id="ytick_20">
     <g id="line2d_35">
      <path d="M 600.276487 529.92 
C 600.276487 521.531817 598.624198 513.225198 595.414179 505.475527 
C 592.20416 497.725856 587.498839 490.683844 581.567497 484.752503 
C 575.636156 478.821161 568.594144 474.11584 560.844473 470.905821 
C 553.094802 467.695802 544.788183 466.043513 536.4 466.043513 
C 528.011817 466.043513 519.705198 467.695802 511.955527 470.905821 
C 504.205856 474.11584 497.163844 478.821161 491.232503 484.752503 
C 485.301161 490.683844 480.59584 497.725856 477.385821 505.475527 
C 474.175802 513.225198 472.523513 521.531817 472.523513 529.92 
C 472.523513 538.308183 474.175802 546.614802 477.385821 554.364473 
C 480.59584 562.114144 485.301161 569.156156 491.232503 575.087497 
C 497.163844 581.018839 504.205856 585.72416 511.955527 588.934179 
C 519.705198 592.144198 528.011817 593.796487 536.4 593.796487 
C 544.788183 593.796487 553.094802 592.144198 560.844473 588.934179 
C 568.594144 585.72416 575.636156 581.018839 581.567497 575.087497 
C 587.498839 569.156156 592.20416 562.114144 595.414179 554.364473 
C 598.624198 546.614802 600.276487 538.308183 600.276487 529.92 
" clip-path="url(#p74c7181657)" style="fill: none; stroke: #b0b0b0; stroke-width: 0.8; stroke-linecap: square"/>
     </g>
     <g id="text_35">
      <!-- 20 -->
      <g transform="translate(595.414179 503.395839)scale(0.1 -0.1)">
       <use xlink:href="#DejaVuSans-32"/>
       <use xlink:href="#DejaVuSans-30" x="63.623047"/>
      </g>
     </g>
    </g>
    <g id="ytick_21">
     <g id="line2d_36">
      <path d="M 616.245609 529.92 
C 616.245609 519.434771 614.180247 509.051497 610.167724 499.364408 
C 606.1552 489.67732 600.273548 480.874805 592.859371 473.460629 
C 585.445195 466.046452 576.64268 460.1648 566.955592 456.152276 
C 557.268503 452.139753 546.885229 450.074391 536.4 450.074391 
C 525.914771 450.074391 515.531497 452.139753 505.844408 456.152276 
C 496.15732 460.1648 487.354805 466.046452 479.940629 473.460629 
C 472.526452 480.874805 466.6448 489.67732 462.632276 499.364408 
C 458.619753 509.051497 456.554391 519.434771 456.554391 529.92 
C 456.554391 540.405229 458.619753 550.788503 462.632276 560.475592 
C 466.6448 570.16268 472.526452 578.965195 479.940629 586.379371 
C 487.354805 593.793548 496.15732 599.6752 505.844408 603.687724 
C 515.531497 607.700247 525.914771 609.765609 536.4 609.765609 
C 546.885229 609.765609 557.268503 607.700247 566.955592 603.687724 
C 576.64268 599.6752 585.445195 593.793548 592.859371 586.379371 
C 600.273548 578.965195 606.1552 570.16268 610.167724 560.475592 
C 614.180247 550.788503 616.245609 540.405229 616.245609 529.92 
" clip-path="url(#p74c7181657)" style="fill: none; stroke: #b0b0b0; stroke-width: 0.8; stroke-linecap: square"/>
     </g>
     <g id="text_36">
      <!-- 25 -->
      <g transform="translate(610.167724 497.284721)scale(0.1 -0.1)">
       <use xlink:href="#DejaVuSans-32"/>
       <use xlink:href="#DejaVuSans-35" x="63.623047"/>
      </g>
     </g>
    </g>
    <g id="ytick_22">
     <g id="line2d_37">
      <path d="M 632.214731 529.92 
C 632.214731 517.337725 629.736297 504.877797 624.921268 493.25329 
C 620.10624 481.628784 613.048258 471.065766 604.151246 462.168754 
C 595.254234 453.271742 584.691216 446.21376 573.06671 441.398732 
C 561.442203 436.583703 548.982275 434.105269 536.4 434.105269 
C 523.817725 434.105269 511.357797 436.583703 499.73329 441.398732 
C 488.108784 446.21376 477.545766 453.271742 468.648754 462.168754 
C 459.751742 471.065766 452.69376 481.628784 447.878732 493.25329 
C 443.063703 504.877797 440.585269 517.337725 440.585269 529.92 
C 440.585269 542.502275 443.063703 554.962203 447.878732 566.58671 
C 452.69376 578.211216 459.751742 588.774234 468.648754 597.671246 
C 477.545766 606.568258 488.108784 613.62624 499.73329 618.441268 
C 511.357797 623.256297 523.817725 625.734731 536.4 625.734731 
C 548.982275 625.734731 561.442203 623.256297 573.06671 618.441268 
C 584.691216 613.62624 595.254234 606.568258 604.151246 597.671246 
C 613.048258 588.774234 620.10624 578.211216 624.921268 566.58671 
C 629.736297 554.962203 632.214731 542.502275 632.214731 529.92 
" clip-path="url(#p74c7181657)" style="fill: none; stroke: #b0b0b0; stroke-width: 0.8; stroke-linecap: square"/>
     </g>
     <g id="text_37">
      <!-- 30 -->
      <g transform="translate(624.921268 491.173603)scale(0.1 -0.1)">
       <use xlink:href="#DejaVuSans-33"/>
       <use xlink:href="#DejaVuSans-30" x="63.623047"/>
      </g>
     </g>
    </g>
   </g>
   <g id="line2d_38">
    <path d="M 643.425054 529.92 
L 488.109376 446.278185 
L 521.436933 555.836792 
L 643.425054 529.92 
" clip-path="url(#p74c7181657)" style="fill: none; stroke: #ffa500; stroke-width: 2; stroke-linecap: square"/>
   </g>
   <g id="patch_13">
    <path d="M 647.28 529.92 
C 647.28 515.359372 644.411874 500.940327 638.839763 487.488061 
C 633.267651 474.035795 625.099919 461.811919 614.804 451.516 
C 604.508081 441.220081 592.284205 433.052349 578.831939 427.480237 
C 565.379673 421.908126 550.960628 419.04 536.4 419.04 
C 521.839372 419.04 507.420327 421.908126 493.968061 427.480237 
C 480.515795 433.052349 468.291919 441.220081 457.996 451.516 
C 447.700081 461.811919 439.532349 474.035795 433.960237 487.488061 
C 428.388126 500.940327 425.52 515.359372 425.52 529.92 
C 425.52 544.480628 428.388126 558.899673 433.960237 572.351939 
C 439.532349 585.804205 447.700081 598.028081 457.996 608.324 
C 468.291919 618.619919 480.515795 626.787651 493.968061 632.359763 
C 507.420327 637.931874 521.839372 640.8 536.4 640.8 
C 550.960628 640.8 565.379673 637.931874 578.831939 632.359763 
C 592.284205 626.787651 604.508081 618.619919 614.804 608.324 
C 625.099919 598.028081 633.267651 585.804205 638.839763 572.351939 
C 644.411874 558.899673 647.28 544.480628 647.28 529.92 
" style="fill: none; stroke: #000000; stroke-width: 0.8; stroke-linejoin: miter; stroke-linecap: square"/>
   </g>
   <g id="text_38">
    <!-- SUSY -->
    <g transform="translate(520.725937 413.04)scale(0.12 -0.12)">
     <defs>
      <path id="DejaVuSans-55" d="M 556 4666 
L 1191 4666 
L 1191 1831 
Q 1191 1081 1462 751 
Q 1734 422 2344 422 
Q 2950 422 3222 751 
Q 3494 1081 3494 1831 
L 3494 4666 
L 4128 4666 
L 4128 1753 
Q 4128 841 3676 375 
Q 3225 -91 2344 -91 
Q 1459 -91 1007 375 
Q 556 841 556 1753 
L 556 4666 
z
" transform="scale(0.015625)"/>
      <path id="DejaVuSans-59" d="M -13 4666 
L 666 4666 
L 1959 2747 
L 3244 4666 
L 3922 4666 
L 2272 2222 
L 2272 0 
L 1638 0 
L 1638 2222 
L -13 4666 
z
" transform="scale(0.015625)"/>
     </defs>
     <use xlink:href="#DejaVuSans-53"/>
     <use xlink:href="#DejaVuSans-55" x="63.476562"/>
     <use xlink:href="#DejaVuSans-53" x="136.669922"/>
     <use xlink:href="#DejaVuSans-59" x="200.146484"/>
    </g>
   </g>
  </g>
 </g>
 <defs>
  <clipPath id="pe9b59fb1fb">
   <path d="M 312.48 197.28 
C 312.48 182.719372 309.611874 168.300327 304.039763 154.848061 
C 298.467651 141.395795 290.299919 129.171919 280.004 118.876 
C 269.708081 108.580081 257.484205 100.412349 244.031939 94.840237 
C 230.579673 89.268126 216.160628 86.4 201.6 86.4 
C 187.039372 86.4 172.620327 89.268126 159.168061 94.840237 
C 145.715795 100.412349 133.491919 108.580081 123.196 118.876 
C 112.900081 129.171919 104.732349 141.395795 99.160237 154.848061 
C 93.588126 168.300327 90.72 182.719372 90.72 197.28 
C 90.72 211.840628 93.588126 226.259673 99.160237 239.711939 
C 104.732349 253.164205 112.900081 265.388081 123.196 275.684 
C 133.491919 285.979919 145.715795 294.147651 159.168061 299.719763 
C 172.620327 305.291874 187.039372 308.16 201.6 308.16 
C 216.160628 308.16 230.579673 305.291874 244.031939 299.719763 
C 257.484205 294.147651 269.708081 285.979919 280.004 275.684 
C 290.299919 265.388081 298.467651 253.164205 304.039763 239.711939 
C 309.611874 226.259673 312.48 211.840628 312.48 197.28 
M 201.6 197.28 
C 201.6 197.28 201.6 197.28 201.6 197.28 
C 201.6 197.28 201.6 197.28 201.6 197.28 
C 201.6 197.28 201.6 197.28 201.6 197.28 
C 201.6 197.28 201.6 197.28 201.6 197.28 
C 201.6 197.28 201.6 197.28 201.6 197.28 
C 201.6 197.28 201.6 197.28 201.6 197.28 
C 201.6 197.28 201.6 197.28 201.6 197.28 
C 201.6 197.28 201.6 197.28 201.6 197.28 
C 201.6 197.28 201.6 197.28 201.6 197.28 
C 201.6 197.28 201.6 197.28 201.6 197.28 
C 201.6 197.28 201.6 197.28 201.6 197.28 
C 201.6 197.28 201.6 197.28 201.6 197.28 
C 201.6 197.28 201.6 197.28 201.6 197.28 
C 201.6 197.28 201.6 197.28 201.6 197.28 
C 201.6 197.28 201.6 197.28 201.6 197.28 
C 201.6 197.28 201.6 197.28 201.6 197.28 
M 312.48 197.28 
z
"/>
  </clipPath>
  <clipPath id="p69e229e2c8">
   <path d="M 647.28 197.28 
C 647.28 182.719372 644.411874 168.300327 638.839763 154.848061 
C 633.267651 141.395795 625.099919 129.171919 614.804 118.876 
C 604.508081 108.580081 592.284205 100.412349 578.831939 94.840237 
C 565.379673 89.268126 550.960628 86.4 536.4 86.4 
C 521.839372 86.4 507.420327 89.268126 493.968061 94.840237 
C 480.515795 100.412349 468.291919 108.580081 457.996 118.876 
C 447.700081 129.171919 439.532349 141.395795 433.960237 154.848061 
C 428.388126 168.300327 425.52 182.719372 425.52 197.28 
C 425.52 211.840628 428.388126 226.259673 433.960237 239.711939 
C 439.532349 253.164205 447.700081 265.388081 457.996 275.684 
C 468.291919 285.979919 480.515795 294.147651 493.968061 299.719763 
C 507.420327 305.291874 521.839372 308.16 536.4 308.16 
C 550.960628 308.16 565.379673 305.291874 578.831939 299.719763 
C 592.284205 294.147651 604.508081 285.979919 614.804 275.684 
C 625.099919 265.388081 633.267651 253.164205 638.839763 239.711939 
C 644.411874 226.259673 647.28 211.840628 647.28 197.28 
M 536.4 197.28 
C 536.4 197.28 536.4 197.28 536.4 197.28 
C 536.4 197.28 536.4 197.28 536.4 197.28 
C 536.4 197.28 536.4 197.28 536.4 197.28 
C 536.4 197.28 536.4 197.28 536.4 197.28 
C 536.4 197.28 536.4 197.28 536.4 197.28 
C 536.4 197.28 536.4 197.28 536.4 197.28 
C 536.4 197.28 536.4 197.28 536.4 197.28 
C 536.4 197.28 536.4 197.28 536.4 197.28 
C 536.4 197.28 536.4 197.28 536.4 197.28 
C 536.4 197.28 536.4 197.28 536.4 197.28 
C 536.4 197.28 536.4 197.28 536.4 197.28 
C 536.4 197.28 536.4 197.28 536.4 197.28 
C 536.4 197.28 536.4 197.28 536.4 197.28 
C 536.4 197.28 536.4 197.28 536.4 197.28 
C 536.4 197.28 536.4 197.28 536.4 197.28 
C 536.4 197.28 536.4 197.28 536.4 197.28 
M 647.28 197.28 
z
"/>
  </clipPath>
  <clipPath id="pc6c3bc997b">
   <path d="M 312.48 529.92 
C 312.48 515.359372 309.611874 500.940327 304.039763 487.488061 
C 298.467651 474.035795 290.299919 461.811919 280.004 451.516 
C 269.708081 441.220081 257.484205 433.052349 244.031939 427.480237 
C 230.579673 421.908126 216.160628 419.04 201.6 419.04 
C 187.039372 419.04 172.620327 421.908126 159.168061 427.480237 
C 145.715795 433.052349 133.491919 441.220081 123.196 451.516 
C 112.900081 461.811919 104.732349 474.035795 99.160237 487.488061 
C 93.588126 500.940327 90.72 515.359372 90.72 529.92 
C 90.72 544.480628 93.588126 558.899673 99.160237 572.351939 
C 104.732349 585.804205 112.900081 598.028081 123.196 608.324 
C 133.491919 618.619919 145.715795 626.787651 159.168061 632.359763 
C 172.620327 637.931874 187.039372 640.8 201.6 640.8 
C 216.160628 640.8 230.579673 637.931874 244.031939 632.359763 
C 257.484205 626.787651 269.708081 618.619919 280.004 608.324 
C 290.299919 598.028081 298.467651 585.804205 304.039763 572.351939 
C 309.611874 558.899673 312.48 544.480628 312.48 529.92 
M 201.6 529.92 
C 201.6 529.92 201.6 529.92 201.6 529.92 
C 201.6 529.92 201.6 529.92 201.6 529.92 
C 201.6 529.92 201.6 529.92 201.6 529.92 
C 201.6 529.92 201.6 529.92 201.6 529.92 
C 201.6 529.92 201.6 529.92 201.6 529.92 
C 201.6 529.92 201.6 529.92 201.6 529.92 
C 201.6 529.92 201.6 529.92 201.6 529.92 
C 201.6 529.92 201.6 529.92 201.6 529.92 
C 201.6 529.92 201.6 529.92 201.6 529.92 
C 201.6 529.92 201.6 529.92 201.6 529.92 
C 201.6 529.92 201.6 529.92 201.6 529.92 
C 201.6 529.92 201.6 529.92 201.6 529.92 
C 201.6 529.92 201.6 529.92 201.6 529.92 
C 201.6 529.92 201.6 529.92 201.6 529.92 
C 201.6 529.92 201.6 529.92 201.6 529.92 
C 201.6 529.92 201.6 529.92 201.6 529.92 
M 312.48 529.92 
z
"/>
  </clipPath>
  <clipPath id="p74c7181657">
   <path d="M 647.28 529.92 
C 647.28 515.359372 644.411874 500.940327 638.839763 487.488061 
C 633.267651 474.035795 625.099919 461.811919 614.804 451.516 
C 604.508081 441.220081 592.284205 433.052349 578.831939 427.480237 
C 565.379673 421.908126 550.960628 419.04 536.4 419.04 
C 521.839372 419.04 507.420327 421.908126 493.968061 427.480237 
C 480.515795 433.052349 468.291919 441.220081 457.996 451.516 
C 447.700081 461.811919 439.532349 474.035795 433.960237 487.488061 
C 428.388126 500.940327 425.52 515.359372 425.52 529.92 
C 425.52 544.480628 428.388126 558.899673 433.960237 572.351939 
C 439.532349 585.804205 447.700081 598.028081 457.996 608.324 
C 468.291919 618.619919 480.515795 626.787651 493.968061 632.359763 
C 507.420327 637.931874 521.839372 640.8 536.4 640.8 
C 550.960628 640.8 565.379673 637.931874 578.831939 632.359763 
C 592.284205 626.787651 604.508081 618.619919 614.804 608.324 
C 625.099919 598.028081 633.267651 585.804205 638.839763 572.351939 
C 644.411874 558.899673 647.28 544.480628 647.28 529.92 
M 536.4 529.92 
C 536.4 529.92 536.4 529.92 536.4 529.92 
C 536.4 529.92 536.4 529.92 536.4 529.92 
C 536.4 529.92 536.4 529.92 536.4 529.92 
C 536.4 529.92 536.4 529.92 536.4 529.92 
C 536.4 529.92 536.4 529.92 536.4 529.92 
C 536.4 529.92 536.4 529.92 536.4 529.92 
C 536.4 529.92 536.4 529.92 536.4 529.92 
C 536.4 529.92 536.4 529.92 536.4 529.92 
C 536.4 529.92 536.4 529.92 536.4 529.92 
C 536.4 529.92 536.4 529.92 536.4 529.92 
C 536.4 529.92 536.4 529.92 536.4 529.92 
C 536.4 529.92 536.4 529.92 536.4 529.92 
C 536.4 529.92 536.4 529.92 536.4 529.92 
C 536.4 529.92 536.4 529.92 536.4 529.92 
C 536.4 529.92 536.4 529.92 536.4 529.92 
C 536.4 529.92 536.4 529.92 536.4 529.92 
M 647.28 529.92 
z
"/>
  </clipPath>
 </defs>
</svg>
